<?xml version="1.0" encoding="UTF-8"?>
<svg width="120px" height="44px" viewBox="0 0 120 44" version="1.1" xmlns="http://www.w3.org/2000/svg" xmlns:xlink="http://www.w3.org/1999/xlink">
    <!-- Generator: Sketch 41.2 (35397) - http://www.bohemiancoding.com/sketch -->
    <title>Group 25</title>
    <desc>Created with Sketch.</desc>
    <defs></defs>
    <g id="Page-1" stroke="none" stroke-width="1" fill="none" fill-rule="evenodd">
        <g id="Group-25">
            <polygon id="Shape" fill="#844414" transform="translate(20.000000, 12.500000) rotate(-270.000000) translate(-20.000000, -12.500000) " points="15.5 32.5 24.5 32.5 24.5 -7.5 15.5 -7.5"></polygon>
            <polygon id="Shape" fill="#CE8D5B" transform="translate(80.000000, 12.500000) rotate(-270.000000) translate(-80.000000, -12.500000) " points="75.5 52.5 84.5 52.5 84.5 -27.5 75.5 -27.5"></polygon>
            <polygon id="Shape" fill="#844414" transform="translate(31.000000, 39.500000) rotate(-270.000000) translate(-31.000000, -39.500000) " points="26.5 70.5 35.5 70.5 35.5 8.5 26.5 8.5"></polygon>
            <polygon id="Shape" fill="#9E5A23" transform="translate(91.000000, 39.500000) rotate(-270.000000) translate(-91.000000, -39.500000) " points="86.5 68.5 95.5 68.5 95.5 10.5 86.5 10.5"></polygon>
            <polygon id="Shape" fill="#9E5A23" transform="translate(41.000000, 21.500000) rotate(-270.000000) translate(-41.000000, -21.500000) " points="36.5 62.5 45.5 62.5 45.5 -19.5 36.5 -19.5 36.5 62.5"></polygon>
            <polygon id="Shape" fill="#844414" transform="translate(101.000000, 21.500000) rotate(-270.000000) translate(-101.000000, -21.500000) " points="96.5 40.5 105.5 40.5 105.5 2.5 96.5 2.5 96.5 40.5"></polygon>
            <polygon id="Shape" fill="#CE8D5B" transform="translate(60.000000, 30.500000) rotate(-270.000000) translate(-60.000000, -30.500000) " points="55.5 90.5 64.5 90.5 64.5 -29.5 55.5 -29.5"></polygon>
            <polygon id="Shape" fill="#9E5A23" transform="translate(60.000000, 4.030600) rotate(-270.000000) translate(-60.000000, -4.030600) " points="56 64.0305997 64 64.0305997 64 -55.9694003 56 -55.9694003"></polygon>
            <path d="M33.8539034,14.8437364 C33.8539034,13.6005254 33.5053625,12.7717962 32.9825017,12.7717962 C32.459641,12.7717962 32.1111001,13.6005254 32.1111001,14.8437364 C32.1111001,16.0869475 32.459641,16.9156766 32.9825017,16.9156766 C33.5053625,16.9156766 33.8539034,16.0867128 33.8539034,14.8437364" id="Shape" fill="#9E5A23" transform="translate(32.982502, 14.843736) rotate(-270.000000) translate(-32.982502, -14.843736) "></path>
            <path d="M33.8539034,11.3583273 C33.8539034,10.1151163 33.5053625,9.28638714 32.9825017,9.28638714 C32.459641,9.28638714 32.1111001,10.1151163 32.1111001,11.3583273 C32.1111001,12.6015384 32.459641,13.4302675 32.9825017,13.4302675 C33.5053625,13.4302675 33.8539034,12.6013037 33.8539034,11.3583273" id="Shape" fill="#9E5A23" transform="translate(32.982502, 11.358327) rotate(-270.000000) translate(-32.982502, -11.358327) "></path>
            <path d="M44.5422719,11.3583273 C44.5422719,12.6015384 44.8908128,13.4302675 45.4136735,13.4302675 C45.9365342,13.4302675 46.2850751,12.6015384 46.2850751,11.3583273 C46.2850751,10.1151163 45.9365342,9.28638714 45.4136735,9.28638714 C44.8908128,9.28638714 44.5422719,10.115351 44.5422719,11.3583273" id="Shape" fill="#9E5A23" transform="translate(45.413674, 11.358327) rotate(-270.000000) translate(-45.413674, -11.358327) "></path>
            <path d="M44.5422719,14.8438351 C44.5422719,16.0870462 44.8908128,16.9157753 45.4136735,16.9157753 C45.9365342,16.9157753 46.2850751,16.0870462 46.2850751,14.8438351 C46.2850751,13.6006241 45.9365342,12.7718949 45.4136735,12.7718949 C44.8908128,12.7718949 44.5422719,13.6008588 44.5422719,14.8438351" id="Shape" fill="#9E5A23" transform="translate(45.413674, 14.843835) rotate(-270.000000) translate(-45.413674, -14.843835) "></path>
            <path d="M56.6443067,40.984502 C56.6443067,39.7412909 56.2957658,38.9125618 55.7729051,38.9125618 C55.2500444,38.9125618 54.9015035,39.7412909 54.9015035,40.984502 C54.9015035,42.2277131 55.2500444,43.0564422 55.7729051,43.0564422 C56.2957658,43.0564422 56.6443067,42.2277131 56.6443067,40.984502" id="Shape" fill="#9E5A23" transform="translate(55.772905, 40.984502) rotate(-270.000000) translate(-55.772905, -40.984502) "></path>
            <path d="M56.6443067,37.4990929 C56.6443067,36.2558819 56.2957658,35.4271527 55.7729051,35.4271527 C55.2500444,35.4271527 54.9015035,36.2558819 54.9015035,37.4990929 C54.9015035,38.742304 55.2500444,39.5710331 55.7729051,39.5710331 C56.2957658,39.5710331 56.6443067,38.742304 56.6443067,37.4990929" id="Shape" fill="#9E5A23" transform="translate(55.772905, 37.499093) rotate(-270.000000) translate(-55.772905, -37.499093) "></path>
            <g id="Group" transform="translate(68.500000, 39.000000) rotate(-270.000000) translate(-68.500000, -39.000000) translate(65.500000, 36.500000)" fill="#844414">
                <path d="M0.00697307438,2.27425243 C0.00697307438,3.51746349 0.363812576,4.34619263 0.899122358,4.34619263 C1.43443214,4.34619263 1.79127164,3.51746349 1.79127164,2.27425243 C1.79127164,1.03104138 1.43443214,0.202312239 0.899122358,0.202312239 C0.363812576,0.202312239 0.00697307438,1.03104138 0.00697307438,2.27425243" id="Shape"></path>
                <path d="M3.57536809,2.27425243 C3.57536809,3.51746349 3.93220759,4.34619263 4.46751738,4.34619263 C5.00282716,4.34619263 5.35966666,3.51746349 5.35966666,2.27425243 C5.35966666,1.03104138 5.00282716,0.202312239 4.46751738,0.202312239 C3.93220759,0.202312239 3.57536809,1.03104138 3.57536809,2.27425243" id="Shape"></path>
            </g>
            <g id="Group" transform="translate(76.192629, 22.605455) rotate(-270.000000) translate(-76.192629, -22.605455) translate(73.192629, 20.105455)" fill="#CE8D5B">
                <path d="M5.40494111,2.20126043 C5.40494111,0.958049374 5.04810161,0.129320236 4.51279183,0.129320236 C3.97748205,0.129320236 3.62064255,0.958049374 3.62064255,2.20126043 C3.62064255,3.44447149 3.97748205,4.27320063 4.51279183,4.27320063 C5.04810161,4.27320063 5.40494111,3.44447149 5.40494111,2.20126043" id="Shape"></path>
                <path d="M1.83644504,2.20126043 C1.83644504,0.958049374 1.47960554,0.129320236 0.944295753,0.129320236 C0.408985971,0.129320236 0.0521464693,0.958049374 0.0521464693,2.20126043 C0.0521464693,3.44447149 0.408985971,4.27320063 0.944295753,4.27320063 C1.47960554,4.27320063 1.83644504,3.44447149 1.83644504,2.20126043" id="Shape"></path>
            </g>
            <g id="Group" transform="translate(88.631780, 22.605455) rotate(-270.000000) translate(-88.631780, -22.605455) translate(85.631780, 20.105455)" fill="#9E5A23">
                <path d="M0.0522475283,2.20947497 C0.0522475283,3.45268602 0.40908703,4.28141516 0.944396812,4.28141516 C1.47970659,4.28141516 1.8365461,3.45268602 1.8365461,2.20947497 C1.8365461,0.966263908 1.47970659,0.137534771 0.944396812,0.137534771 C0.40908703,0.137534771 0.0522475283,0.966263908 0.0522475283,2.20947497" id="Shape"></path>
                <path d="M3.62074361,2.20947497 C3.62074361,3.45268602 3.97758311,4.28141516 4.51289289,4.28141516 C5.04820267,4.28141516 5.40504217,3.45268602 5.40504217,2.20947497 C5.40504217,0.966263908 5.04820267,0.137534771 4.51289289,0.137534771 C3.97758311,0.137534771 3.62074361,0.966263908 3.62074361,2.20947497" id="Shape"></path>
            </g>
            <g id="Group" transform="translate(59.500000, 4.000000) rotate(-270.000000) translate(-59.500000, -4.000000) translate(56.500000, -52.500000)" fill="#CE8D5B">
                <path d="M5.45021557,2.22566933 C5.45021557,0.982458275 5.09337607,0.153729138 4.55806628,0.153729138 C4.0227565,0.153729138 3.665917,0.982458275 3.665917,2.22566933 C3.665917,3.46888039 4.0227565,4.29760953 4.55806628,4.29760953 C5.09337607,4.29737483 5.45021557,3.46864569 5.45021557,2.22566933" id="Shape"></path>
                <path d="M1.88182055,2.22566933 C1.88182055,0.982458275 1.52498105,0.153729138 0.989671266,0.153729138 C0.454361484,0.153729138 0.0975219822,0.982458275 0.0975219822,2.22566933 C0.0975219822,3.46888039 0.454361484,4.29760953 0.989671266,4.29760953 C1.52498105,4.29760953 1.88182055,3.46864569 1.88182055,2.22566933" id="Shape"></path>
                <path d="M5.45021557,109.961396 C5.45021557,108.718185 5.09337607,107.889456 4.55806628,107.889456 C4.0227565,107.889456 3.665917,108.718185 3.665917,109.961396 C3.665917,111.204607 4.0227565,112.033336 4.55806628,112.033336 C5.09337607,112.033336 5.45021557,111.204607 5.45021557,109.961396" id="Shape"></path>
                <path d="M1.88182055,109.961396 C1.88182055,108.718185 1.52498105,107.889456 0.989671266,107.889456 C0.454361484,107.889456 0.0975219822,108.718185 0.0975219822,109.961396 C0.0975219822,111.204607 0.454361484,112.033336 0.989671266,112.033336 C1.52498105,112.033336 1.88182055,111.204607 1.88182055,109.961396" id="Shape"></path>
            </g>
            <g id="Group" transform="translate(59.500000, 30.000000) rotate(-270.000000) translate(-59.500000, -30.000000) translate(56.500000, -26.500000)" fill="#9E5A23">
                <path d="M5.43283341,2.22566933 C5.43283341,0.982458275 5.07599391,0.153729138 4.54068413,0.153729138 C4.00537435,0.153729138 3.64853484,0.982458275 3.64853484,2.22566933 C3.64853484,3.46888039 4.00537435,4.29760953 4.54068413,4.29760953 C5.07599391,4.29760953 5.43283341,3.46864569 5.43283341,2.22566933" id="Shape"></path>
                <path d="M1.86433733,2.22566933 C1.86433733,0.982458275 1.50749783,0.153729138 0.972188051,0.153729138 C0.436878269,0.153729138 0.0800387668,0.982458275 0.0800387668,2.22566933 C0.0800387668,3.46888039 0.436878269,4.29760953 0.972188051,4.29760953 C1.50749783,4.29760953 1.86433733,3.46864569 1.86433733,2.22566933" id="Shape"></path>
                <path d="M5.43283341,109.961396 C5.43283341,108.718185 5.07599391,107.889456 4.54068413,107.889456 C4.00537435,107.889456 3.64853484,108.718185 3.64853484,109.961396 C3.64853484,111.204607 4.00537435,112.033336 4.54068413,112.033336 C5.07599391,112.033336 5.43283341,111.204607 5.43283341,109.961396" id="Shape"></path>
                <path d="M1.86433733,109.961396 C1.86433733,108.718185 1.50749783,107.889456 0.972188051,107.889456 C0.436878269,107.889456 0.0800387668,108.718185 0.0800387668,109.961396 C0.0800387668,111.204607 0.436878269,112.033336 0.972188051,112.033336 C1.50749783,112.033336 1.86433733,111.204607 1.86433733,109.961396" id="Shape"></path>
            </g>
        </g>
    </g>
</svg>