<?xml version="1.0" encoding="UTF-8"?>
<svg width="448px" height="620px" viewBox="0 0 448 620" version="1.1" xmlns="http://www.w3.org/2000/svg" xmlns:xlink="http://www.w3.org/1999/xlink">
    <!-- Generator: Sketch 41.2 (35397) - http://www.bohemiancoding.com/sketch -->
    <title>Group 23</title>
    <desc>Created with Sketch.</desc>
    <defs>
        <radialGradient cx="50%" cy="50%" fx="50%" fy="50%" r="46.9959112%" id="radialGradient-1">
            <stop stop-color="#FBDA61" offset="0%"></stop>
            <stop stop-color="#F76B1C" stop-opacity="0" offset="100%"></stop>
        </radialGradient>
        <rect id="path-2" x="-1.59872116e-14" y="-2.84217094e-14" width="77" height="36"></rect>
        <mask id="mask-3" maskContentUnits="userSpaceOnUse" maskUnits="objectBoundingBox" x="0" y="0" width="77" height="36" fill="white">
            <use xlink:href="#path-2"></use>
        </mask>
        <rect id="path-4" x="0" y="70.9172414" width="159" height="20.0827586" rx="10.0413793"></rect>
        <filter x="-50%" y="-50%" width="200%" height="200%" filterUnits="objectBoundingBox" id="filter-5">
            <feOffset dx="0" dy="-3" in="SourceAlpha" result="shadowOffsetInner1"></feOffset>
            <feComposite in="shadowOffsetInner1" in2="SourceAlpha" operator="arithmetic" k2="-1" k3="1" result="shadowInnerInner1"></feComposite>
            <feColorMatrix values="0 0 0 0 0.866666667   0 0 0 0 0.764705882   0 0 0 0 0.341176471  0 0 0 1 0" type="matrix" in="shadowInnerInner1"></feColorMatrix>
        </filter>
        <rect id="path-6" x="12.56917" y="50.8344828" width="133.86166" height="20.0827586" rx="10.0413793"></rect>
        <filter x="-50%" y="-50%" width="200%" height="200%" filterUnits="objectBoundingBox" id="filter-7">
            <feOffset dx="0" dy="-3" in="SourceAlpha" result="shadowOffsetInner1"></feOffset>
            <feComposite in="shadowOffsetInner1" in2="SourceAlpha" operator="arithmetic" k2="-1" k3="1" result="shadowInnerInner1"></feComposite>
            <feColorMatrix values="0 0 0 0 0.88416773   0 0 0 0 0.72196964   0 0 0 0 0.316474414  0 0 0 1 0" type="matrix" in="shadowInnerInner1"></feColorMatrix>
        </filter>
        <path d="M51.3961215,30.847333 C51.3961215,30.847333 78.166893,18.5799838 69.7858974,6.25625 C61.4049017,-6.06748384 110.981843,-0.186314655 106.310138,30.8742996" id="path-8"></path>
        <filter x="-50%" y="-50%" width="200%" height="200%" filterUnits="objectBoundingBox" id="filter-9">
            <feOffset dx="0" dy="-3" in="SourceAlpha" result="shadowOffsetInner1"></feOffset>
            <feComposite in="shadowOffsetInner1" in2="SourceAlpha" operator="arithmetic" k2="-1" k3="1" result="shadowInnerInner1"></feComposite>
            <feColorMatrix values="0 0 0 0 0.955091412   0 0 0 0 0.810698223   0 0 0 0 0.449715253  0 0 0 1 0" type="matrix" in="shadowInnerInner1"></feColorMatrix>
        </filter>
        <rect id="path-10" x="31.4229249" y="30.7517241" width="96.1541502" height="20.0827586" rx="10.0413793"></rect>
        <filter x="-50%" y="-50%" width="200%" height="200%" filterUnits="objectBoundingBox" id="filter-11">
            <feOffset dx="0" dy="-3" in="SourceAlpha" result="shadowOffsetInner1"></feOffset>
            <feComposite in="shadowOffsetInner1" in2="SourceAlpha" operator="arithmetic" k2="-1" k3="1" result="shadowInnerInner1"></feComposite>
            <feColorMatrix values="0 0 0 0 0.933886054   0 0 0 0 0.745859156   0 0 0 0 0.27579191  0 0 0 1 0" type="matrix" in="shadowInnerInner1"></feColorMatrix>
        </filter>
        <polygon id="path-12" points="0 0 128 0 108 58 20 58"></polygon>
    </defs>
    <g id="Page-1" stroke="none" stroke-width="1" fill="none" fill-rule="evenodd">
        <g id="Desktop-HD-Copy" transform="translate(-766.000000, -140.000000)">
            <g id="Group-23" transform="translate(766.000000, 131.000000)">
                <ellipse id="Oval-2" fill="url(#radialGradient-1)" cx="224" cy="158" rx="191" ry="158"></ellipse>
                <g id="store-1" transform="translate(0.000000, 201.000000)">
                    <g id="Capa_1">
                        <g id="Group">
                            <polygon id="Shape" fill="#C28D4A" points="29 85.4137931 29 199.724138 29 388 419 388 419 199.724138 419 85.4137931"></polygon>
                            <g transform="translate(42.448276, 85.413793)">
                                <rect id="Rectangle-path" fill="#FFFFFF" x="0" y="0" width="67.2413793" height="242.068966"></rect>
                                <rect id="Rectangle-path" fill="#90BAE1" opacity="0.4" x="0" y="0" width="67.2413793" height="242.068966"></rect>
                                <path d="M53.7931034,13.4482759 L53.7931034,228.62069 L13.4482759,228.62069 L13.4482759,13.4482759 L53.7931034,13.4482759 L53.7931034,13.4482759 Z M67.2413793,0 L0,0 L0,242.068966 L67.2413793,242.068966 L67.2413793,0 L67.2413793,0 Z" id="Shape" fill="#ECF0F1"></path>
                            </g>
                            <g transform="translate(257.620690, 85.413793)">
                                <rect id="Rectangle-path" fill="#FFFFFF" x="0" y="0" width="141.206897" height="242.068966"></rect>
                                <rect id="Rectangle-path" fill="#90BAE1" opacity="0.4" x="0" y="0" width="141.206897" height="242.068966"></rect>
                                <path d="M127.758621,13.4482759 L127.758621,228.62069 L13.4482759,228.62069 L13.4482759,13.4482759 L127.758621,13.4482759 L127.758621,13.4482759 Z M141.206897,0 L0,0 L0,242.068966 L141.206897,242.068966 L141.206897,0 L141.206897,0 Z" id="Shape" fill="#ECF0F1"></path>
                            </g>
                            <rect id="Rectangle-path" fill="#ECF0F1" x="123.137931" y="85.4137931" width="107.586207" height="302.586207"></rect>
                            <rect id="Rectangle-path" fill="#90BAE1" opacity="0.4" x="136.586207" y="240.068966" width="80.6896552" height="134.482759"></rect>
                            <rect id="Rectangle-2" fill="#B2C5E5" x="136.586207" y="240" width="2" height="134"></rect>
                            <rect id="Rectangle-2" fill="#B2C5E5" x="136.586207" y="92" width="2" height="134"></rect>
                            <rect id="Rectangle-2" fill="#B2C5E5" x="271.586207" y="100" width="2" height="214"></rect>
                            <rect id="Rectangle-2" fill="#B2C5E5" x="56.5862069" y="140" width="2" height="174"></rect>
                            <rect id="Rectangle-2" fill="#B2C5E5" x="136.586207" y="240" width="80.6896552" height="2"></rect>
                            <g transform="translate(290.241379, 171.827586)" id="Shape" fill="#FFFFFF" opacity="0.400000006">
                                <path d="M7.72413793,41.3448276 C9.44551724,41.3448276 11.1668966,40.6858621 12.4781034,39.3746552 L39.3746552,12.4781034 C42.0037931,9.84896552 42.0037931,5.59931034 39.3746552,2.97017241 C36.7455172,0.341034483 32.4958621,0.341034483 29.8667241,2.97017241 L2.97017241,29.8667241 C0.341034483,32.4958621 0.341034483,36.7455172 2.97017241,39.3746552 C4.28137931,40.6858621 6.00275862,41.3448276 7.72413793,41.3448276 Z"></path>
                                <path d="M7.72413793,74.9655172 C9.44551724,74.9655172 11.1668966,74.3065517 12.4781034,72.9953448 L25.9263793,59.547069 C28.5555172,56.917931 28.5555172,52.6682759 25.9263793,50.0391379 C23.2972414,47.41 19.0475862,47.41 16.4184483,50.0391379 L2.97017241,63.4874138 C0.341034483,66.1165517 0.341034483,70.3662069 2.97017241,72.9953448 C4.28137931,74.3065517 6.00275862,74.9655172 7.72413793,74.9655172 Z"></path>
                                <path d="M29.8465517,36.5706897 C28.6294828,37.8415517 27.8965517,39.5225862 27.8965517,41.3448276 C27.8965517,43.0931034 28.6294828,44.8413793 29.8465517,46.1189655 C31.1174138,47.3293103 32.8724138,48.0689655 34.6206897,48.0689655 C36.3689655,48.0689655 38.1172414,47.3293103 39.3948276,46.1189655 C40.6051724,44.8413793 41.3448276,43.0931034 41.3448276,41.3448276 C41.3448276,39.5965517 40.6051724,37.8415517 39.3948276,36.5706897 C36.8396552,34.0827586 32.3344828,34.0827586 29.8465517,36.5706897 Z"></path>
                                <path d="M43.315,32.6505172 C44.6262069,33.9617241 46.3475862,34.6206897 48.0689655,34.6206897 C49.7903448,34.6206897 51.5117241,33.9617241 52.822931,32.6505172 L72.9953448,12.4781034 C75.6244828,9.84896552 75.6244828,5.59931034 72.9953448,2.97017241 C70.3662069,0.341034483 66.1165517,0.341034483 63.4874138,2.97017241 L43.315,23.1425862 C40.6858621,25.7717241 40.6858621,30.0213793 43.315,32.6505172 Z"></path>
                                <path d="M63.4874138,36.5908621 L2.97017241,97.1081034 C0.341034483,99.7372414 0.341034483,103.986897 2.97017241,106.616034 C4.28137931,107.927241 6.00275862,108.586207 7.72413793,108.586207 C9.44551724,108.586207 11.1668966,107.927241 12.4781034,106.616034 L72.9953448,46.0987931 C75.6244828,43.4696552 75.6244828,39.22 72.9953448,36.5908621 C70.3662069,33.9617241 66.1165517,33.9617241 63.4874138,36.5908621 Z"></path>
                                <path d="M86.4637931,23.1224138 C83.9758621,20.6344828 79.4706897,20.6344828 76.9155172,23.1224138 C75.6984483,24.3932759 74.9655172,26.0743103 74.9655172,27.8965517 C74.9655172,29.6448276 75.6984483,31.3931034 76.9155172,32.6706897 C78.1863793,33.8810345 79.9413793,34.6206897 81.6896552,34.6206897 C83.5051724,34.6206897 85.1862069,33.8810345 86.4637931,32.6706897 C87.6741379,31.3931034 88.4137931,29.6448276 88.4137931,27.8965517 C88.4137931,26.0743103 87.6741379,24.3932759 86.4637931,23.1224138 Z"></path>
                            </g>
                            <rect id="Rectangle-path" fill="#735B43" x="29" y="348" width="94.137931" height="40"></rect>
                            <rect id="Rectangle-path" fill="#735B43" x="231" y="348" width="188.275862" height="40"></rect>
                            <rect id="Rectangle-path" fill="#5E5146" x="56" y="348" width="13.4482759" height="40"></rect>
                            <rect id="Rectangle-path" fill="#5E5146" x="83" y="348" width="13.4482759" height="40"></rect>
                            <rect id="Rectangle-path" fill="#5E5146" x="258" y="348" width="13.4482759" height="40"></rect>
                            <rect id="Rectangle-path" fill="#5E5146" x="285" y="348" width="13.4482759" height="40"></rect>
                            <rect id="Rectangle-path" fill="#5E5146" x="311" y="348" width="13.4482759" height="40"></rect>
                            <rect id="Rectangle-path" fill="#5E5146" x="338" y="348" width="13.4482759" height="40"></rect>
                            <rect id="Rectangle-path" fill="#5E5146" x="365" y="348" width="13.4482759" height="40"></rect>
                            <rect id="Rectangle-path" fill="#5E5146" x="392" y="348" width="13.4482759" height="40"></rect>
                            <g id="Group-14" transform="translate(136.000000, 155.000000)">
                                <g id="Group-5" transform="translate(41.187500, 45.664062) rotate(-9.000000) translate(-41.187500, -45.664062) translate(2.687500, 27.664062)">
                                    <use id="Rectangle" stroke="#573313" mask="url(#mask-3)" stroke-width="10" fill="#8B572A" xlink:href="#path-2"></use>
                                    <text id="不收奧客" font-family="PingFangTC-Regular, PingFang TC" font-size="14" font-weight="normal" fill="#331902">
                                        <tspan x="10" y="23">不收奧客</tspan>
                                    </text>
                                </g>
                                <path d="M22.4765625,32.5234375 C22.4765625,32.5234375 28.359375,0.51171875 39.1132812,0.51171875 C49.8671875,0.51171875 61.5,25.265625 61.5,25.265625" id="Path-3" stroke="#573314" stroke-width="2"></path>
                                <circle id="Oval-6" fill="#6E98C0" cx="39" cy="5" r="4"></circle>
                            </g>
                            <path d="M176.931034,132.482759 C160.941034,132.482759 146.840517,124.494483 138.334483,112.310345 L136.586207,112.310345 L136.586207,226.62069 L217.275862,226.62069 L217.275862,112.310345 L215.527586,112.310345 C207.021552,124.494483 192.921034,132.482759 176.931034,132.482759 Z" id="Shape" fill="#90BAE1" opacity="0.4"></path>
                            <g id="Group-15" transform="translate(0.000000, 4.000000)" fill="#8F8F8F">
                                <path d="M131.017241,0 L108.081517,0 L107.896552,0 L107.896552,0.00772030651 C57.8171379,0.0926436782 14.1729828,33.7531801 0.801517241,82.1209004 C-0.840051724,88.0578161 1.44889655,84.9233716 2.9132069,84.9233716 L107.896552,84.9233716 L115.603448,84.9233716 L223.5,84.9233716 L223.5,0 L131.017241,0 Z" id="Shape" style="mix-blend-mode: multiply;"></path>
                                <path d="M346.810345,84.9233716 L444.264052,84.9233716 C445.635879,84.9233716 447.354517,86.2512644 446.244724,82.2907471 L446.198483,82.1131801 C433.721017,36.2005172 393.629741,3.65170498 346.810345,0.33197318 L346.810345,0 L338.918483,0 L315.982759,0 L223.5,0 L223.5,84.9233716 L331.396552,84.9233716 L346.810345,84.9233716 Z" id="Shape" style="mix-blend-mode: multiply;"></path>
                                <path d="M223.5,84.9233716 L115.603448,84.9233716 L115.603448,84.9233716 C124.528034,35.7450192 167.285897,0 217.180345,0 L223.5,0 L223.5,84.9233716 Z" id="Shape" style="mix-blend-mode: multiply;"></path>
                                <path d="M331.396552,84.9233716 L223.5,84.9233716 L223.5,0 L229.819655,0 C279.714103,0 322.471966,35.7450192 331.396552,84.9233716 L331.396552,84.9233716 Z" id="Shape" style="mix-blend-mode: multiply;"></path>
                                <path d="M61.6551724,154.40613 L53.9482759,154.40613 C24.1534138,154.40613 0,130.21069 0,100.363985 L0,86.1586207 C0,85.4792337 0.554896552,84.9233716 1.23310345,84.9233716 L115.603448,84.9233716 L115.603448,100.363985 C115.603448,130.21069 91.4500345,154.40613 61.6551724,154.40613 Z" id="Shape" style="mix-blend-mode: multiply;"></path>
                                <path d="M169.551724,154.40613 L169.551724,154.40613 C139.756862,154.40613 115.603448,130.21069 115.603448,100.363985 L115.603448,84.9233716 L223.5,84.9233716 L223.5,100.363985 C223.5,130.21069 199.346586,154.40613 169.551724,154.40613 Z" id="Shape" style="mix-blend-mode: multiply;"></path>
                                <path d="M277.448276,154.40613 L277.448276,154.40613 C247.653414,154.40613 223.5,130.21069 223.5,100.363985 L223.5,84.9233716 L331.396552,84.9233716 L331.396552,100.363985 C331.396552,130.21069 307.243138,154.40613 277.448276,154.40613 Z" id="Shape" style="mix-blend-mode: multiply;"></path>
                                <path d="M393.051724,154.40613 L385.344828,154.40613 C355.549966,154.40613 331.396552,130.21069 331.396552,100.363985 L331.396552,84.9233716 L445.766897,84.9233716 C446.445103,84.9233716 447,85.4792337 447,86.1586207 L447,100.363985 C447,130.21069 422.846586,154.40613 393.051724,154.40613 Z" id="Shape" style="mix-blend-mode: multiply;"></path>
                            </g>
                            <g id="Group-15">
                                <path d="M131.017241,0 L108.081517,0 L107.896552,0 L107.896552,0.00772030651 C57.8171379,0.0926436782 14.1729828,33.7531801 0.801517241,82.1209004 C-0.840051724,88.0578161 1.44889655,84.9233716 2.9132069,84.9233716 L107.896552,84.9233716 L115.603448,84.9233716 L223.5,84.9233716 L223.5,0 L131.017241,0 Z" id="Shape" fill="#E64C3C"></path>
                                <path d="M346.810345,84.9233716 L444.264052,84.9233716 C445.635879,84.9233716 447.354517,86.2512644 446.244724,82.2907471 L446.198483,82.1131801 C433.721017,36.2005172 393.629741,3.65170498 346.810345,0.33197318 L346.810345,0 L338.918483,0 L315.982759,0 L223.5,0 L223.5,84.9233716 L331.396552,84.9233716 L346.810345,84.9233716 Z" id="Shape" fill="#F3D55B"></path>
                                <path d="M223.5,84.9233716 L115.603448,84.9233716 L115.603448,84.9233716 C124.528034,35.7450192 167.285897,0 217.180345,0 L223.5,0 L223.5,84.9233716 Z" id="Shape" fill="#F3D55B"></path>
                                <path d="M331.396552,84.9233716 L223.5,84.9233716 L223.5,0 L229.819655,0 C279.714103,0 322.471966,35.7450192 331.396552,84.9233716 L331.396552,84.9233716 Z" id="Shape" fill="#E64C3C"></path>
                                <path d="M61.6551724,154.40613 L53.9482759,154.40613 C24.1534138,154.40613 0,130.21069 0,100.363985 L0,86.1586207 C0,85.4792337 0.554896552,84.9233716 1.23310345,84.9233716 L115.603448,84.9233716 L115.603448,100.363985 C115.603448,130.21069 91.4500345,154.40613 61.6551724,154.40613 Z" id="Shape" fill="#C03A2B"></path>
                                <path d="M169.551724,154.40613 L169.551724,154.40613 C139.756862,154.40613 115.603448,130.21069 115.603448,100.363985 L115.603448,84.9233716 L223.5,84.9233716 L223.5,100.363985 C223.5,130.21069 199.346586,154.40613 169.551724,154.40613 Z" id="Shape" fill="#DDC357"></path>
                                <path d="M277.448276,154.40613 L277.448276,154.40613 C247.653414,154.40613 223.5,130.21069 223.5,100.363985 L223.5,84.9233716 L331.396552,84.9233716 L331.396552,100.363985 C331.396552,130.21069 307.243138,154.40613 277.448276,154.40613 Z" id="Shape" fill="#C03A2B"></path>
                                <path d="M393.051724,154.40613 L385.344828,154.40613 C355.549966,154.40613 331.396552,130.21069 331.396552,100.363985 L331.396552,84.9233716 L445.766897,84.9233716 C446.445103,84.9233716 447,85.4792337 447,86.1586207 L447,100.363985 C447,130.21069 422.846586,154.40613 393.051724,154.40613 Z" id="Shape" fill="#DDC357"></path>
                            </g>
                        </g>
                    </g>
                </g>
                <g id="store-1" opacity="0.100000001" transform="translate(224.000000, 609.000000) scale(1, -1) translate(-224.000000, -609.000000) translate(29.000000, 589.000000)">
                    <g id="Capa_1">
                        <g id="Group">
                            <polygon id="Shape" fill="#CBB292" points="0 8.96551724 0 20.6896552 0 40 390 40 390 20.6896552 390 8.96551724"></polygon>
                            <g transform="translate(13.448276, 8.965517)">
                                <rect id="Rectangle-path" fill="#90BAE1" x="0" y="0" width="67.2413793" height="24.8275862"></rect>
                                <path d="M53.7931034,1.37931034 L53.7931034,23.4482759 L13.4482759,23.4482759 L13.4482759,1.37931034 L53.7931034,1.37931034 L53.7931034,1.37931034 Z M67.2413793,0 L0,0 L0,24.8275862 L67.2413793,24.8275862 L67.2413793,0 L67.2413793,0 Z" id="Shape" fill="#ECF0F1"></path>
                            </g>
                            <g transform="translate(228.620690, 8.965517)">
                                <rect id="Rectangle-path" fill="#90BAE1" x="0" y="0" width="141.206897" height="24.8275862"></rect>
                                <path d="M127.758621,1.37931034 L127.758621,23.4482759 L13.4482759,23.4482759 L13.4482759,1.37931034 L127.758621,1.37931034 L127.758621,1.37931034 Z M141.206897,0 L0,0 L0,24.8275862 L141.206897,24.8275862 L141.206897,0 L141.206897,0 Z" id="Shape" fill="#ECF0F1"></path>
                            </g>
                            <rect id="Rectangle-path" fill="#ECF0F1" x="94.137931" y="8.96551724" width="107.586207" height="31.0344828"></rect>
                            <rect id="Rectangle-path" fill="#90BAE1" x="107.586207" y="24.8275862" width="80.6896552" height="13.7931034"></rect>
                            <g transform="translate(261.241379, 17.931034)" id="Shape" fill="#FFFFFF">
                                <path d="M7.72413793,4.13793103 C9.44551724,4.13793103 11.1668966,4.07034483 12.4781034,3.93586207 L39.3746552,1.17724138 C42.0037931,0.907586207 42.0037931,0.471724138 39.3746552,0.202068966 C36.7455172,-0.0675862069 32.4958621,-0.0675862069 29.8667241,0.202068966 L2.97017241,2.96068966 C0.341034483,3.23034483 0.341034483,3.6662069 2.97017241,3.93586207 C4.28137931,4.07034483 6.00275862,4.13793103 7.72413793,4.13793103 Z"></path>
                                <path d="M7.72413793,7.5862069 C9.44551724,7.5862069 11.1668966,7.51862069 12.4781034,7.38413793 L25.9263793,6.00482759 C28.5555172,5.73517241 28.5555172,5.29931034 25.9263793,5.02965517 C23.2972414,4.76 19.0475862,4.76 16.4184483,5.02965517 L2.97017241,6.40896552 C0.341034483,6.67862069 0.341034483,7.11448276 2.97017241,7.38413793 C4.28137931,7.51862069 6.00275862,7.5862069 7.72413793,7.5862069 Z"></path>
                                <path d="M29.8465517,3.64827586 C28.6294828,3.77862069 27.8965517,3.95103448 27.8965517,4.13793103 C27.8965517,4.31724138 28.6294828,4.49655172 29.8465517,4.62758621 C31.1174138,4.75172414 32.8724138,4.82758621 34.6206897,4.82758621 C36.3689655,4.82758621 38.1172414,4.75172414 39.3948276,4.62758621 C40.6051724,4.49655172 41.3448276,4.31724138 41.3448276,4.13793103 C41.3448276,3.95862069 40.6051724,3.77862069 39.3948276,3.64827586 C36.8396552,3.39310345 32.3344828,3.39310345 29.8465517,3.64827586 Z"></path>
                                <path d="M43.315,3.2462069 C44.6262069,3.38068966 46.3475862,3.44827586 48.0689655,3.44827586 C49.7903448,3.44827586 51.5117241,3.38068966 52.822931,3.2462069 L72.9953448,1.17724138 C75.6244828,0.907586207 75.6244828,0.471724138 72.9953448,0.202068966 C70.3662069,-0.0675862069 66.1165517,-0.0675862069 63.4874138,0.202068966 L43.315,2.27103448 C40.6858621,2.54068966 40.6858621,2.97655172 43.315,3.2462069 Z"></path>
                                <path d="M63.4874138,3.65034483 L2.97017241,9.85724138 C0.341034483,10.1268966 0.341034483,10.5627586 2.97017241,10.8324138 C4.28137931,10.9668966 6.00275862,11.0344828 7.72413793,11.0344828 C9.44551724,11.0344828 11.1668966,10.9668966 12.4781034,10.8324138 L72.9953448,4.62551724 C75.6244828,4.35586207 75.6244828,3.92 72.9953448,3.65034483 C70.3662069,3.38068966 66.1165517,3.38068966 63.4874138,3.65034483 Z"></path>
                                <path d="M86.4637931,2.26896552 C83.9758621,2.0137931 79.4706897,2.0137931 76.9155172,2.26896552 C75.6984483,2.39931034 74.9655172,2.57172414 74.9655172,2.75862069 C74.9655172,2.93793103 75.6984483,3.11724138 76.9155172,3.24827586 C78.1863793,3.37241379 79.9413793,3.44827586 81.6896552,3.44827586 C83.5051724,3.44827586 85.1862069,3.37241379 86.4637931,3.24827586 C87.6741379,3.11724138 88.4137931,2.93793103 88.4137931,2.75862069 C88.4137931,2.57172414 87.6741379,2.39931034 86.4637931,2.26896552 Z"></path>
                            </g>
                            <rect id="Rectangle-path" fill="#9B9B9B" x="0" y="35.862069" width="94.137931" height="4.13793103"></rect>
                            <rect id="Rectangle-path" fill="#9B9B9B" x="201.724138" y="35.862069" width="188.275862" height="4.13793103"></rect>
                            <rect id="Rectangle-path" fill="#9B9B9B" x="26.8965517" y="35.862069" width="13.4482759" height="4.13793103"></rect>
                            <rect id="Rectangle-path" fill="#9B9B9B" x="53.7931034" y="35.862069" width="13.4482759" height="4.13793103"></rect>
                            <rect id="Rectangle-path" fill="#9B9B9B" x="228.62069" y="35.862069" width="13.4482759" height="4.13793103"></rect>
                            <rect id="Rectangle-path" fill="#9B9B9B" x="255.517241" y="35.862069" width="13.4482759" height="4.13793103"></rect>
                            <rect id="Rectangle-path" fill="#9B9B9B" x="282.413793" y="35.862069" width="13.4482759" height="4.13793103"></rect>
                            <rect id="Rectangle-path" fill="#9B9B9B" x="309.310345" y="35.862069" width="13.4482759" height="4.13793103"></rect>
                            <rect id="Rectangle-path" fill="#9B9B9B" x="336.206897" y="35.862069" width="13.4482759" height="4.13793103"></rect>
                            <rect id="Rectangle-path" fill="#9B9B9B" x="363.103448" y="35.862069" width="13.4482759" height="4.13793103"></rect>
                            <path d="M147.931034,13.7931034 C131.941034,13.7931034 117.840517,12.9737931 109.334483,11.7241379 L107.586207,11.7241379 L107.586207,23.4482759 L188.275862,23.4482759 L188.275862,11.7241379 L186.527586,11.7241379 C178.021552,12.9737931 163.921034,13.7931034 147.931034,13.7931034 Z" id="Shape" fill="#9B9B9B"></path>
                            <path d="M114.310345,0 L94.2993103,0 L94.137931,0 L94.137931,0.000689655172 C50.4444828,0.00827586207 12.3656897,3.01517241 0.699310345,7.33586207 C-0.732931034,7.8662069 1.26413793,7.5862069 2.54172414,7.5862069 L94.137931,7.5862069 L100.862069,7.5862069 L195,7.5862069 L195,0 L114.310345,0 Z" id="Shape" fill="#9B9B9B"></path>
                            <path d="M302.586207,7.5862069 L387.612931,7.5862069 C388.809828,7.5862069 390.30931,7.70482759 389.341034,7.35103448 L389.30069,7.33517241 C378.41431,3.2337931 343.435345,0.326206897 302.586207,0.0296551724 L302.586207,0 L295.70069,0 L275.689655,0 L195,0 L195,7.5862069 L289.137931,7.5862069 L302.586207,7.5862069 Z" id="Shape" fill="#9B9B9B"></path>
                            <path d="M195,7.5862069 L100.862069,7.5862069 L100.862069,7.5862069 C108.648621,3.19310345 145.954138,0 189.486207,0 L195,0 L195,7.5862069 Z" id="Shape" fill="#9B9B9B"></path>
                            <path d="M289.137931,7.5862069 L195,7.5862069 L195,0 L200.513793,0 C244.045862,0 281.351379,3.19310345 289.137931,7.5862069 L289.137931,7.5862069 Z" id="Shape" fill="#9B9B9B"></path>
                            <path d="M53.7931034,13.7931034 L47.0689655,13.7931034 C21.0734483,13.7931034 0,11.6317241 0,8.96551724 L0,7.69655172 C0,7.63586207 0.484137931,7.5862069 1.07586207,7.5862069 L100.862069,7.5862069 L100.862069,8.96551724 C100.862069,11.6317241 79.7886207,13.7931034 53.7931034,13.7931034 Z" id="Shape" fill="#9B9B9B"></path>
                            <path d="M147.931034,13.7931034 L147.931034,13.7931034 C121.935517,13.7931034 100.862069,11.6317241 100.862069,8.96551724 L100.862069,7.5862069 L195,7.5862069 L195,8.96551724 C195,11.6317241 173.926552,13.7931034 147.931034,13.7931034 Z" id="Shape" fill="#9B9B9B"></path>
                            <path d="M242.068966,13.7931034 L242.068966,13.7931034 C216.073448,13.7931034 195,11.6317241 195,8.96551724 L195,7.5862069 L289.137931,7.5862069 L289.137931,8.96551724 C289.137931,11.6317241 268.064483,13.7931034 242.068966,13.7931034 Z" id="Shape" fill="#9B9B9B"></path>
                            <path d="M342.931034,13.7931034 L336.206897,13.7931034 C310.211379,13.7931034 289.137931,11.6317241 289.137931,8.96551724 L289.137931,7.5862069 L388.924138,7.5862069 C389.515862,7.5862069 390,7.63586207 390,7.69655172 L390,8.96551724 C390,11.6317241 368.926552,13.7931034 342.931034,13.7931034 Z" id="Shape" fill="#9B9B9B"></path>
                        </g>
                    </g>
                </g>
                <text id="You" font-family="Roboto-Bold, Roboto" font-size="14" font-weight="bold" letter-spacing="2.91666675" fill="#C03A2B">
                    <tspan x="48" y="277">You</tspan>
                </text>
                <text id="are" font-family="Roboto-Bold, Roboto" font-size="14" font-weight="bold" letter-spacing="2.91666675" fill="#DDC357">
                    <tspan x="156" y="277">are</tspan>
                </text>
                <text id="not" font-family="Roboto-Bold, Roboto" font-size="14" font-weight="bold" letter-spacing="2.91666675" fill="#C03A2B">
                    <tspan x="259" y="277">not</tspan>
                </text>
                <text id="welcome" font-family="Roboto-Bold, Roboto" font-size="14" font-weight="bold" letter-spacing="2.91666675" fill="#DDC357">
                    <tspan x="350" y="277">welcome</tspan>
                </text>
                <g id="Group-21" transform="translate(145.000000, 52.000000)">
                    <ellipse id="Oval-7" fill="#8F5F21" cx="81" cy="150.5" rx="44" ry="4.5"></ellipse>
                    <g id="Group-20">
                        <g id="Group-16">
                            <g id="Rectangle-10">
                                <use fill="#FFC73B" fill-rule="evenodd" xlink:href="#path-4"></use>
                                <use fill="black" fill-opacity="1" filter="url(#filter-5)" xlink:href="#path-4"></use>
                            </g>
                            <g id="Rectangle-10-Copy">
                                <use fill="#FFD366" fill-rule="evenodd" xlink:href="#path-6"></use>
                                <use fill="black" fill-opacity="1" filter="url(#filter-7)" xlink:href="#path-6"></use>
                            </g>
                            <g id="Path-4">
                                <use fill="#FFEEC1" fill-rule="evenodd" xlink:href="#path-8"></use>
                                <use fill="black" fill-opacity="1" filter="url(#filter-9)" xlink:href="#path-8"></use>
                            </g>
                            <g id="Rectangle-10-Copy">
                                <use fill="#FFE298" fill-rule="evenodd" xlink:href="#path-10"></use>
                                <use fill="black" fill-opacity="1" filter="url(#filter-11)" xlink:href="#path-10"></use>
                            </g>
                        </g>
                        <g id="Group-19" transform="translate(17.000000, 91.000000)">
                            <mask id="mask-13" fill="white">
                                <use xlink:href="#path-12"></use>
                            </mask>
                            <use id="Rectangle-11" fill="#C28D4A" xlink:href="#path-12"></use>
                            <g id="Group-18" mask="url(#mask-13)" stroke-linecap="square">
                                <g transform="translate(64.500000, 47.500000) rotate(-315.000000) translate(-64.500000, -47.500000) translate(-15.000000, -32.000000)" id="Group-17">
                                    <g transform="translate(24.461538, 0.000000)">
                                        <path d="M1.22307692,0.306949807 L1.22307692,158.836942" id="Line" stroke="#8F5E21" stroke-width="4"></path>
                                        <path d="M14.6769231,0.306949807 L14.6769231,158.836942" id="Line-Copy" stroke="#8F5E21" stroke-width="4"></path>
                                        <path d="M28.1307692,0.306949807 L28.1307692,158.836942" id="Line-Copy-2" stroke="#8F5E21" stroke-width="4"></path>
                                        <path d="M41.5846154,0.306949807 L41.5846154,158.836942" id="Line-Copy-3" stroke="#8F5E21" stroke-width="4"></path>
                                        <path d="M55.0384615,0.306949807 L55.0384615,158.836942" id="Line-Copy-4" stroke="#8F5E21" stroke-width="4"></path>
                                        <path d="M68.4923077,0.306949807 L68.4923077,158.836942" id="Line-Copy-5" stroke="#8F5E21" stroke-width="4"></path>
                                        <path d="M81.9461538,0.306949807 L81.9461538,158.836942" id="Line-Copy-6" stroke="#8F5E21" stroke-width="4"></path>
                                        <path d="M95.4,0.306949807 L95.4,158.836942" id="Line-Copy-7" stroke="#8F5E21" stroke-width="4"></path>
                                        <path d="M108.853846,0.306949807 L108.853846,158.836942" id="Line-Copy-8" stroke="#8F5E21" stroke-width="4"></path>
                                    </g>
                                    <g transform="translate(79.500000, 79.038462) rotate(-90.000000) translate(-79.500000, -79.038462) translate(24.000000, -0.461538)">
                                        <path d="M1.22307692,0.306949807 L1.22307692,158.836942" id="Line" stroke="#8F5E21" stroke-width="4"></path>
                                        <path d="M14.6769231,0.306949807 L14.6769231,158.836942" id="Line-Copy" stroke="#8F5E21" stroke-width="4"></path>
                                        <path d="M28.1307692,0.306949807 L28.1307692,158.836942" id="Line-Copy-2" stroke="#8F5E21" stroke-width="4"></path>
                                        <path d="M41.5846154,0.306949807 L41.5846154,158.836942" id="Line-Copy-3" stroke="#8F5E21" stroke-width="4"></path>
                                        <path d="M55.0384615,0.306949807 L55.0384615,158.836942" id="Line-Copy-4" stroke="#8F5E21" stroke-width="4"></path>
                                        <path d="M68.4923077,0.306949807 L68.4923077,158.836942" id="Line-Copy-5" stroke="#8F5E21" stroke-width="4"></path>
                                        <path d="M81.9461538,0.306949807 L81.9461538,158.836942" id="Line-Copy-6" stroke="#8F5E21" stroke-width="4"></path>
                                        <path d="M95.4,0.306949807 L95.4,158.836942" id="Line-Copy-7" stroke="#8F5E21" stroke-width="4"></path>
                                        <path d="M108.853846,0.306949807 L108.853846,158.836942" id="Line-Copy-8" stroke="#8F5E21" stroke-width="4"></path>
                                    </g>
                                </g>
                            </g>
                        </g>
                    </g>
                </g>
                <path d="M161.5,144.5 L0.5,286.5" id="Line" stroke="#979797" stroke-linecap="square" opacity="0.300000012"></path>
                <path d="M447.5,144.5 L286.5,286.5" id="Line" stroke="#979797" stroke-linecap="square" opacity="0.300000012" transform="translate(367.000000, 215.500000) scale(-1, 1) translate(-367.000000, -215.500000) "></path>
            </g>
        </g>
    </g>
</svg>