<?xml version="1.0" encoding="UTF-8"?>
<svg width="131px" height="22px" viewBox="0 0 131 22" version="1.1" xmlns="http://www.w3.org/2000/svg" xmlns:xlink="http://www.w3.org/1999/xlink">
    <!-- Generator: Sketch 41.2 (35397) - http://www.bohemiancoding.com/sketch -->
    <title>Group 36</title>
    <desc>Created with Sketch.</desc>
    <defs></defs>
    <g id="Page-1" stroke="none" stroke-width="1" fill="none" fill-rule="evenodd">
        <g id="Group-36" transform="translate(0.000000, -1.000000)">
            <path d="M79.5507812,15.4804688 C79.402343,15.628907 79.2226573,15.703125 79.0117188,15.703125 C78.8007802,15.703125 78.6210945,15.628907 78.4726562,15.4804688 C78.324218,15.3320305 78.2421876,15.1484386 78.2265625,14.9296875 L77.96875,5.53125 L77.921875,4.1484375 C77.921875,3.83593594 78.0273427,3.57031359 78.2382812,3.3515625 C78.4492198,3.13281141 78.7070297,3.0234375 79.0117188,3.0234375 C79.3164078,3.0234375 79.5742177,3.13281141 79.7851562,3.3515625 C79.9960948,3.57031359 80.1015625,3.83593594 80.1015625,4.1484375 L80.0546875,5.53125 L79.796875,14.9296875 C79.7812499,15.1484386 79.6992195,15.3320305 79.5507812,15.4804688 Z M79,21.3046875 C78.5624978,21.3046875 78.1875016,21.1523453 77.875,20.8476562 C77.5624984,20.5429672 77.40625,20.1484399 77.40625,19.6640625 C77.40625,19.1796851 77.5624984,18.7734391 77.875,18.4453125 C78.1875016,18.1171859 78.5624978,17.953125 79,17.953125 C79.4375022,17.953125 79.8085922,18.1132796 80.1132812,18.4335938 C80.4179703,18.7539079 80.5703125,19.16406 80.5703125,19.6640625 C80.5703125,20.1484399 80.4218765,20.5429672 80.125,20.8476562 C79.8281235,21.1523453 79.4531273,21.3046875 79,21.3046875 Z" id="!" fill="#4A4A4A"></path>
            <path d="M32.1445312,7.04296875 C31.9804679,6.87890543 31.8984375,6.68359488 31.8984375,6.45703125 C31.8984375,6.23046762 31.9804679,6.03515707 32.1445312,5.87109375 C32.3085946,5.70703043 32.5078113,5.625 32.7421875,5.625 L37.875,5.625 C38.0312508,5.625 38.109375,5.54687578 38.109375,5.390625 L38.109375,2.109375 C38.109375,1.85937375 38.1992179,1.64453215 38.3789062,1.46484375 C38.5585946,1.28515535 38.76953,1.1953125 39.0117188,1.1953125 C39.2539075,1.1953125 39.4648429,1.28515535 39.6445312,1.46484375 C39.8242196,1.64453215 39.9140625,1.85937375 39.9140625,2.109375 L39.9140625,5.390625 C39.9140625,5.54687578 39.9921867,5.625 40.1484375,5.625 L45.6328125,5.625 C45.8515636,5.625 46.0429679,5.70703043 46.2070312,5.87109375 C46.3710946,6.03515707 46.453125,6.23046762 46.453125,6.45703125 C46.453125,6.68359488 46.3710946,6.87890543 46.2070312,7.04296875 C46.0429679,7.20703207 45.8515636,7.2890625 45.6328125,7.2890625 L32.7421875,7.2890625 C32.5078113,7.2890625 32.3085946,7.20703207 32.1445312,7.04296875 Z M37.3125,17.625 C37.3437502,17.8906263 37.285157,18.124999 37.1367188,18.328125 C36.9882805,18.531251 36.7890638,18.6640622 36.5390625,18.7265625 C36.3046863,18.7734377 36.0937509,18.7265632 35.90625,18.5859375 C35.7187491,18.4453118 35.6093752,18.2578137 35.578125,18.0234375 C35.3124987,15.5077999 34.8203161,12.8203268 34.1015625,9.9609375 C34.0390622,9.75781148 34.0664057,9.56640715 34.1835938,9.38671875 C34.3007818,9.20703035 34.4687489,9.09375023 34.6875,9.046875 C34.9062511,8.99999977 35.1132803,9.03906188 35.3085938,9.1640625 C35.5039072,9.28906312 35.6328122,9.46093641 35.6953125,9.6796875 C36.4609413,12.5390768 36.9999984,15.1874878 37.3125,17.625 Z M30.375,1.78125 C30.4687505,1.56249891 30.6249989,1.39843805 30.84375,1.2890625 C30.9687506,1.22656219 31.1015618,1.1953125 31.2421875,1.1953125 C31.335938,1.1953125 31.429687,1.21093734 31.5234375,1.2421875 C31.7421886,1.32031289 31.9023432,1.4648427 32.0039062,1.67578125 C32.1054693,1.8867198 32.1093755,2.10156141 32.015625,2.3203125 C31.4531222,3.63281906 30.7890663,4.94530594 30.0234375,6.2578125 C29.9453121,6.3984382 29.90625,6.5390618 29.90625,6.6796875 L29.90625,21.9140625 C29.90625,22.1484387 29.8242196,22.3476554 29.6601562,22.5117188 C29.4960929,22.6757821 29.2968762,22.7578125 29.0625,22.7578125 C28.8281238,22.7578125 28.6289071,22.6757821 28.4648438,22.5117188 C28.3007804,22.3476554 28.21875,22.1484387 28.21875,21.9140625 L28.21875,9.2578125 C28.21875,9.22656234 28.2031252,9.20312508 28.171875,9.1875 C28.1406248,9.17187492 28.1093752,9.17968734 28.078125,9.2109375 C27.468747,10.0546917 26.8750029,10.7890594 26.296875,11.4140625 C26.1249991,11.6015634 25.9140638,11.6757814 25.6640625,11.6367188 C25.4140612,11.5976561 25.2265631,11.4687511 25.1015625,11.25 C24.9765619,11.046874 24.9140625,10.8281262 24.9140625,10.59375 L24.9140625,10.4296875 C24.9453127,10.132811 25.062499,9.88281352 25.265625,9.6796875 C27.3593855,7.49217656 29.0624934,4.85939039 30.375,1.78125 Z M41.4140625,19.828125 C41.3984374,19.8750002 41.4062498,19.9218748 41.4375,19.96875 C41.4687502,20.0156252 41.5078123,20.0390625 41.5546875,20.0390625 L46.21875,20.0390625 C46.4531262,20.0390625 46.6523429,20.1210929 46.8164062,20.2851562 C46.9804696,20.4492196 47.0625,20.6484363 47.0625,20.8828125 C47.0625,21.1171887 46.9804696,21.3164054 46.8164062,21.4804688 C46.6523429,21.6445321 46.4531262,21.7265625 46.21875,21.7265625 L32.15625,21.7265625 C31.9218738,21.7265625 31.7226571,21.6445321 31.5585938,21.4804688 C31.3945304,21.3164054 31.3125,21.1171887 31.3125,20.8828125 C31.3125,20.6484363 31.3945304,20.4492196 31.5585938,20.2851562 C31.7226571,20.1210929 31.9218738,20.0390625 32.15625,20.0390625 L39.375,20.0390625 C39.5312508,20.0390625 39.6328123,19.9687507 39.6796875,19.828125 C40.7421928,16.8593602 41.6484337,13.4609566 42.3984375,9.6328125 C42.4453127,9.38281125 42.5781239,9.17968828 42.796875,9.0234375 C42.9687509,8.89843688 43.156249,8.8359375 43.359375,8.8359375 C43.4218753,8.8359375 43.4843747,8.84374992 43.546875,8.859375 C43.7968763,8.90625023 43.9999992,9.03906141 44.15625,9.2578125 C44.2500005,9.41406328 44.296875,9.57812414 44.296875,9.75 C44.296875,9.82812539 44.2890626,9.90624961 44.2734375,9.984375 C43.3359328,13.8593944 42.3828173,17.1406116 41.4140625,19.828125 Z" id="位" fill="#7ED321"></path>
            <path d="M4.671875,5.2734375 C4.671875,5.11718672 4.59375078,5.0390625 4.4375,5.0390625 L2.4453125,5.0390625 C2.28906172,5.0390625 2.2109375,5.11718672 2.2109375,5.2734375 L2.2109375,14.25 C2.2109375,14.4062508 2.28906172,14.484375 2.4453125,14.484375 L4.4375,14.484375 C4.59375078,14.484375 4.671875,14.4062508 4.671875,14.25 L4.671875,5.2734375 Z M18.21875,9.6328125 C18.3750008,9.6328125 18.453125,9.55468828 18.453125,9.3984375 L18.453125,5.6953125 C18.453125,5.53906172 18.3750008,5.4609375 18.21875,5.4609375 L16.7890625,5.4609375 C16.6328117,5.4609375 16.5546875,5.53906172 16.5546875,5.6953125 L16.5546875,9.3984375 C16.5546875,9.55468828 16.6328117,9.6328125 16.7890625,9.6328125 L18.21875,9.6328125 Z M18.21875,15.3984375 C18.3750008,15.3984375 18.453125,15.3203133 18.453125,15.1640625 L18.453125,11.4140625 C18.453125,11.2578117 18.3750008,11.1796875 18.21875,11.1796875 L16.7890625,11.1796875 C16.6328117,11.1796875 16.5546875,11.2578117 16.5546875,11.4140625 L16.5546875,15.1640625 C16.5546875,15.3203133 16.6328117,15.3984375 16.7890625,15.3984375 L18.21875,15.3984375 Z M10.3203125,11.1796875 C10.1640617,11.1796875 10.0859375,11.2578117 10.0859375,11.4140625 L10.0859375,15.1640625 C10.0859375,15.3203133 10.1640617,15.3984375 10.3203125,15.3984375 L11.65625,15.3984375 C11.8125008,15.3984375 11.890625,15.3203133 11.890625,15.1640625 L11.890625,11.4140625 C11.890625,11.2578117 11.8125008,11.1796875 11.65625,11.1796875 L10.3203125,11.1796875 Z M15.1484375,11.4140625 C15.1484375,11.2578117 15.0703133,11.1796875 14.9140625,11.1796875 L13.5078125,11.1796875 C13.3515617,11.1796875 13.2734375,11.2578117 13.2734375,11.4140625 L13.2734375,15.1640625 C13.2734375,15.3203133 13.3515617,15.3984375 13.5078125,15.3984375 L14.9140625,15.3984375 C15.0703133,15.3984375 15.1484375,15.3203133 15.1484375,15.1640625 L15.1484375,11.4140625 Z M13.2734375,9.3984375 C13.2734375,9.55468828 13.3515617,9.6328125 13.5078125,9.6328125 L14.9140625,9.6328125 C15.0703133,9.6328125 15.1484375,9.55468828 15.1484375,9.3984375 L15.1484375,5.6953125 C15.1484375,5.53906172 15.0703133,5.4609375 14.9140625,5.4609375 L13.5078125,5.4609375 C13.3515617,5.4609375 13.2734375,5.53906172 13.2734375,5.6953125 L13.2734375,9.3984375 Z M10.3203125,5.4609375 C10.1640617,5.4609375 10.0859375,5.53906172 10.0859375,5.6953125 L10.0859375,9.3984375 C10.0859375,9.55468828 10.1640617,9.6328125 10.3203125,9.6328125 L11.65625,9.6328125 C11.8125008,9.6328125 11.890625,9.55468828 11.890625,9.3984375 L11.890625,5.6953125 C11.890625,5.53906172 11.8125008,5.4609375 11.65625,5.4609375 L10.3203125,5.4609375 Z M6.1015625,14.0625 C6.1015625,14.6250028 5.90234574,15.1054668 5.50390625,15.5039062 C5.10546676,15.9023457 4.62500281,16.1015625 4.0625,16.1015625 L2.421875,16.1015625 C2.2812493,16.1015625 2.2109375,16.1718743 2.2109375,16.3125 L2.2109375,17.34375 C2.2109375,17.546876 2.14453191,17.7148431 2.01171875,17.8476562 C1.87890559,17.9804694 1.71484473,18.046875 1.51953125,18.046875 C1.32421777,18.046875 1.16015691,17.9804694 1.02734375,17.8476562 C0.894530586,17.7148431 0.828125,17.546876 0.828125,17.34375 L0.828125,5.4609375 C0.828125,4.89843469 1.02734176,4.41797074 1.42578125,4.01953125 C1.82422074,3.62109176 2.30468469,3.421875 2.8671875,3.421875 L4.0625,3.421875 C4.62500281,3.421875 5.10546676,3.62109176 5.50390625,4.01953125 C5.90234574,4.41797074 6.1015625,4.89843469 6.1015625,5.4609375 L6.1015625,7.0546875 C6.1015625,7.10156273 6.12109355,7.13281242 6.16015625,7.1484375 C6.19921895,7.16406258 6.23437484,7.15625016 6.265625,7.125 C7.68750711,5.68749281 8.79687102,3.87501094 9.59375,1.6875 C9.67187539,1.46874891 9.81249898,1.29687562 10.015625,1.171875 C10.1562507,1.09374961 10.3046867,1.0546875 10.4609375,1.0546875 C10.5234378,1.0546875 10.5937496,1.06249992 10.671875,1.078125 C10.8906261,1.12500023 11.0507807,1.24999898 11.1523438,1.453125 C11.2539068,1.65625102 11.2656254,1.85937398 11.1875,2.0625 C10.984374,2.62500281 10.7578138,3.17968477 10.5078125,3.7265625 C10.4765623,3.77343773 10.4765623,3.82031227 10.5078125,3.8671875 C10.5390627,3.91406273 10.5781248,3.9375 10.625,3.9375 L20.8671875,3.9375 C21.0703135,3.9375 21.2499992,4.01171801 21.40625,4.16015625 C21.5625008,4.30859449 21.640625,4.4882802 21.640625,4.69921875 C21.640625,4.9101573 21.5625008,5.08984301 21.40625,5.23828125 C21.2499992,5.38671949 21.0703135,5.4609375 20.8671875,5.4609375 L20.1171875,5.4609375 C20.007812,5.4609375 19.953125,5.52343688 19.953125,5.6484375 L19.953125,9.421875 C19.953125,9.5625007 20.0234368,9.6328125 20.1640625,9.6328125 L21.2421875,9.6328125 C21.4609386,9.6328125 21.6445305,9.70703051 21.7929688,9.85546875 C21.941407,10.003907 22.015625,10.1874989 22.015625,10.40625 C22.015625,10.6250011 21.941407,10.808593 21.7929688,10.9570313 C21.6445305,11.1054695 21.4609386,11.1796875 21.2421875,11.1796875 L20.1640625,11.1796875 C20.0234368,11.1796875 19.953125,11.2499993 19.953125,11.390625 L19.953125,15.2109375 C19.953125,15.3359381 20.0156244,15.3984375 20.140625,15.3984375 L21.0546875,15.3984375 C21.2578135,15.3984375 21.433593,15.4726555 21.5820312,15.6210938 C21.7304695,15.769532 21.8046875,15.9492177 21.8046875,16.1601562 C21.8046875,16.3710948 21.7304695,16.5507805 21.5820312,16.6992188 C21.433593,16.847657 21.2578135,16.921875 21.0546875,16.921875 L7.484375,16.921875 C7.28124898,16.921875 7.10546949,16.847657 6.95703125,16.6992188 C6.80859301,16.5507805 6.734375,16.3710948 6.734375,16.1601562 C6.734375,15.9492177 6.80859301,15.769532 6.95703125,15.6210938 C7.10546949,15.4726555 7.28124898,15.3984375 7.484375,15.3984375 L8.3984375,15.3984375 C8.5390632,15.3984375 8.609375,15.3359381 8.609375,15.2109375 L8.609375,11.390625 C8.609375,11.2499993 8.5390632,11.1796875 8.3984375,11.1796875 L7.3203125,11.1796875 C7.10156141,11.1796875 6.91796949,11.1054695 6.76953125,10.9570313 C6.62109301,10.808593 6.546875,10.6250011 6.546875,10.40625 C6.546875,10.1874989 6.62109301,10.003907 6.76953125,9.85546875 C6.91796949,9.70703051 7.10156141,9.6328125 7.3203125,9.6328125 L8.3984375,9.6328125 C8.5390632,9.6328125 8.609375,9.5625007 8.609375,9.421875 L8.609375,7.1484375 C8.609375,7.11718734 8.58984395,7.09375008 8.55078125,7.078125 C8.51171855,7.06249992 8.48437508,7.07031234 8.46875,7.1015625 C8.34374938,7.27343836 8.21875062,7.43749922 8.09375,7.59375 C7.87499891,7.85937633 7.57812688,7.99999992 7.203125,8.015625 C7.17187484,8.03125008 7.14062516,8.0390625 7.109375,8.0390625 C6.78124836,8.0390625 6.48437633,7.93750102 6.21875,7.734375 C6.20312492,7.71874992 6.17968766,7.71874992 6.1484375,7.734375 C6.11718734,7.75000008 6.1015625,7.77343734 6.1015625,7.8046875 L6.1015625,14.0625 Z M6.8984375,22.3125 C6.71093656,22.4687508 6.48828254,22.546875 6.23046875,22.546875 C5.97265496,22.546875 5.74218852,22.4765632 5.5390625,22.3359375 C5.38281172,22.2109369 5.3046875,22.0546884 5.3046875,21.8671875 C5.3046875,21.6484364 5.38281172,21.4765631 5.5390625,21.3515625 C6.46094211,20.6015588 7.20312219,19.6093812 7.765625,18.375 C7.85937547,18.1874991 8.00390527,18.0507817 8.19921875,17.9648438 C8.39453223,17.8789058 8.59374898,17.8749996 8.796875,17.953125 C9.00000102,18.0312504 9.14062461,18.1679678 9.21875,18.3632812 C9.29687539,18.5585947 9.29687539,18.7578115 9.21875,18.9609375 C8.59374688,20.3984447 7.82031711,21.515621 6.8984375,22.3125 Z M11.0703125,18.84375 L11.0703125,18.6796875 C11.0703125,18.5546869 11.1093746,18.4296881 11.1875,18.3046875 C11.2968755,18.1328116 11.453124,18.0312502 11.65625,18 C11.859376,17.9687498 12.0507804,18.0117182 12.2304688,18.1289062 C12.4101571,18.2460943 12.5234373,18.406249 12.5703125,18.609375 C12.8203138,19.6718803 12.9999995,20.6328082 13.109375,21.4921875 C13.1406252,21.7265637 13.0859382,21.9335929 12.9453125,22.1132812 C12.8046868,22.2929696 12.6171887,22.3984373 12.3828125,22.4296875 C12.1796865,22.4609377 11.9960946,22.4101569 11.8320312,22.2773438 C11.6679679,22.1445306 11.5781251,21.9687511 11.5625,21.75 C11.4687495,20.8749956 11.3046887,19.9062553 11.0703125,18.84375 Z M14.5390625,18.84375 C14.4921873,18.7656246 14.46875,18.679688 14.46875,18.5859375 C14.46875,18.5078121 14.4843748,18.4218755 14.515625,18.328125 C14.5937504,18.1562491 14.7187491,18.0390628 14.890625,17.9765625 C15.093751,17.9140622 15.2929678,17.9218746 15.4882812,18 C15.6835947,18.0781254 15.8281245,18.2109366 15.921875,18.3984375 C16.4687527,19.4296927 16.9062484,20.398433 17.234375,21.3046875 C17.2968753,21.5234386 17.2812505,21.7304678 17.1875,21.9257812 C17.0937495,22.1210947 16.9375011,22.2499997 16.71875,22.3125 C16.5312491,22.3906254 16.3437509,22.382813 16.15625,22.2890625 C15.9687491,22.195312 15.8437503,22.046876 15.78125,21.84375 C15.4843735,20.8906202 15.0703152,19.8906302 14.5390625,18.84375 Z M18.1015625,18.75 C18.0234371,18.6406245 17.984375,18.5156257 17.984375,18.375 C17.984375,18.3281248 17.9921874,18.2734378 18.0078125,18.2109375 C18.0546877,18.0234366 18.1640616,17.8906254 18.3359375,17.8125 C18.4765632,17.7499997 18.6171868,17.71875 18.7578125,17.71875 C18.8359379,17.71875 18.9218745,17.7265624 19.015625,17.7421875 C19.2343761,17.8046878 19.4140618,17.9218741 19.5546875,18.09375 C20.4140668,19.1875055 21.140622,20.2734321 21.734375,21.3515625 C21.8125004,21.4765631 21.8515625,21.6015619 21.8515625,21.7265625 C21.8515625,21.8046879 21.8359377,21.8906245 21.8046875,21.984375 C21.7265621,22.2031261 21.5781261,22.367187 21.359375,22.4765625 C21.2499995,22.5390628 21.1328131,22.5703125 21.0078125,22.5703125 C20.914062,22.5703125 20.820313,22.5468752 20.7265625,22.5 C20.5078114,22.4218746 20.3437505,22.281251 20.234375,22.078125 C19.6874973,21.0468698 18.9765669,19.9375059 18.1015625,18.75 Z" id="嘸" fill="#4A4A4A"></path>
            <path d="M88.5898438,16.7421875 C88.4218742,16.9140634 88.2167981,17 87.9746094,17 C87.7324207,17 87.5253915,16.9140634 87.3535156,16.7421875 C87.1816398,16.5703116 87.0957031,16.3632825 87.0957031,16.1210938 L87.0957031,11 C87.0957031,10.8046865 87.1660149,10.6367195 87.3066406,10.4960938 C87.4472663,10.355468 87.6152334,10.2851562 87.8105469,10.2851562 C88.0214854,10.2851562 88.2031242,10.3515618 88.3554688,10.484375 C88.5078133,10.6171882 88.5996092,10.7851552 88.6308594,10.9882812 L88.6542969,11.140625 C88.6542969,11.1562501 88.6621093,11.1640625 88.6777344,11.1640625 C88.6933595,11.1640625 88.7089843,11.1601563 88.7246094,11.1523438 C89.4355504,10.4570278 90.1542932,10.109375 90.8808594,10.109375 C92.2714913,10.109375 92.9667969,11.0117097 92.9667969,12.8164062 L92.9667969,16.1210938 C92.9667969,16.3632825 92.8808602,16.5703116 92.7089844,16.7421875 C92.5371085,16.9140634 92.3281262,17 92.0820312,17 C91.8359363,17 91.626954,16.9140634 91.4550781,16.7421875 C91.2832023,16.5703116 91.1972656,16.3632825 91.1972656,16.1210938 L91.1972656,13.0273438 C91.1972656,12.5195287 91.1230476,12.1582042 90.9746094,11.9433594 C90.8261711,11.7285146 90.5839861,11.6210938 90.2480469,11.6210938 C90.0058582,11.6210938 89.7890635,11.6738276 89.5976562,11.7792969 C89.406249,11.8847662 89.1855481,12.0585925 88.9355469,12.3007812 C88.8730466,12.355469 88.8417969,12.4218746 88.8417969,12.5 L88.8417969,16.1210938 C88.8417969,16.3632825 88.7578133,16.5703116 88.5898438,16.7421875 Z M98.8085938,16.9238281 C98.4218731,17.0839852 98.0156271,17.1640625 97.5898438,17.1640625 C97.1640604,17.1640625 96.7578144,17.0839852 96.3710938,16.9238281 C95.9843731,16.7636711 95.6425796,16.5371108 95.3457031,16.2441406 C95.0488266,15.9511704 94.8105478,15.5800804 94.6308594,15.1308594 C94.451171,14.6816384 94.3613281,14.1875027 94.3613281,13.6484375 C94.3613281,13.1093723 94.451171,12.6132835 94.6308594,12.1601562 C94.8105478,11.707029 95.0488266,11.3320327 95.3457031,11.0351562 C95.6425796,10.7382798 95.9843731,10.5097664 96.3710938,10.3496094 C96.7578144,10.1894523 97.1640604,10.109375 97.5898438,10.109375 C98.0156271,10.109375 98.4218731,10.1894523 98.8085938,10.3496094 C99.1953144,10.5097664 99.5371079,10.7382798 99.8339844,11.0351562 C100.130861,11.3320327 100.36914,11.707029 100.548828,12.1601562 C100.728517,12.6132835 100.818359,13.1093723 100.818359,13.6484375 C100.818359,14.1875027 100.728517,14.6816384 100.548828,15.1308594 C100.36914,15.5800804 100.130861,15.9511704 99.8339844,16.2441406 C99.5371079,16.5371108 99.1953144,16.7636711 98.8085938,16.9238281 Z M96.5410156,15.1660156 C96.7910169,15.5371112 97.1406228,15.7226562 97.5898438,15.7226562 C98.0390647,15.7226562 98.3886706,15.5371112 98.6386719,15.1660156 C98.8886731,14.79492 99.0136719,14.2890657 99.0136719,13.6484375 C99.0136719,13.0078093 98.8886731,12.4980488 98.6386719,12.1191406 C98.3886706,11.7402325 98.0390647,11.5507812 97.5898438,11.5507812 C97.1406228,11.5507812 96.7910169,11.7402325 96.5410156,12.1191406 C96.2910144,12.4980488 96.1660156,13.0078093 96.1660156,13.6484375 C96.1660156,14.2890657 96.2910144,14.79492 96.5410156,15.1660156 Z M105.101562,16.8945312 C105.027343,16.9648441 104.941407,17 104.84375,17 C104.746093,17 104.660157,16.9648441 104.585938,16.8945312 C104.511718,16.8242184 104.474609,16.7382818 104.474609,16.6367188 L104.474609,8.94921875 C104.474609,8.89453098 104.447266,8.8671875 104.392578,8.8671875 L102.037109,8.8671875 C101.951171,8.8671875 101.878907,8.83593781 101.820312,8.7734375 C101.761718,8.71093719 101.732422,8.63867229 101.732422,8.55664062 C101.732422,8.47460896 101.761718,8.40429717 101.820312,8.34570312 C101.878907,8.28710908 101.951171,8.2578125 102.037109,8.2578125 L107.662109,8.2578125 C107.748047,8.2578125 107.820312,8.28710908 107.878906,8.34570312 C107.9375,8.40429717 107.966797,8.47460896 107.966797,8.55664062 C107.966797,8.63867229 107.9375,8.71093719 107.878906,8.7734375 C107.820312,8.83593781 107.748047,8.8671875 107.662109,8.8671875 L105.294922,8.8671875 C105.240234,8.8671875 105.212891,8.89453098 105.212891,8.94921875 L105.212891,16.6367188 C105.212891,16.7382818 105.175782,16.8242184 105.101562,16.8945312 Z M110.029297,17.1523438 C109.490232,17.1523438 109.046877,17.0019546 108.699219,16.7011719 C108.351561,16.4003891 108.177734,15.9648466 108.177734,15.3945312 C108.177734,14.6992153 108.492184,14.1660175 109.121094,13.7949219 C109.750003,13.4238263 110.763665,13.1562508 112.162109,12.9921875 C112.22461,12.984375 112.255859,12.9453129 112.255859,12.875 C112.255859,12.6328113 112.232422,12.4101573 112.185547,12.2070312 C112.146484,12.0039052 112.074219,11.8105478 111.96875,11.6269531 C111.863281,11.4433585 111.710938,11.3007818 111.511719,11.1992188 C111.312499,11.0976557 111.072267,11.046875 110.791016,11.046875 C110.18945,11.046875 109.595706,11.2343731 109.009766,11.609375 C108.947265,11.6562502 108.876954,11.6718751 108.798828,11.65625 C108.720703,11.6406249 108.658203,11.5976566 108.611328,11.5273438 C108.572265,11.4570309 108.560547,11.3808598 108.576172,11.2988281 C108.591797,11.2167965 108.634765,11.1562502 108.705078,11.1171875 C109.447269,10.6640602 110.173825,10.4375 110.884766,10.4375 C111.603519,10.4375 112.126951,10.6640602 112.455078,11.1171875 C112.783205,11.5703148 112.947266,12.1796837 112.947266,12.9453125 L112.947266,16.7070312 C112.947266,16.7851566 112.917969,16.8535153 112.859375,16.9121094 C112.800781,16.9707034 112.732422,17 112.654297,17 C112.568359,17 112.496094,16.9726565 112.4375,16.9179688 C112.378906,16.863281 112.345703,16.7929692 112.337891,16.7070312 L112.291016,16.1914062 C112.291016,16.1835937 112.287109,16.1796875 112.279297,16.1796875 C112.271484,16.1796875 112.263672,16.1835937 112.255859,16.1914062 C111.466793,16.8320345 110.724613,17.1523438 110.029297,17.1523438 Z M110.181641,16.5664062 C110.509767,16.5664062 110.83203,16.4902351 111.148438,16.3378906 C111.464845,16.1855461 111.810545,15.9492204 112.185547,15.6289062 C112.232422,15.5898436 112.255859,15.542969 112.255859,15.4882812 L112.255859,13.578125 C112.255859,13.5312498 112.232422,13.5078125 112.185547,13.5078125 L112.162109,13.5078125 C110.966791,13.6484382 110.119143,13.867186 109.619141,14.1640625 C109.119138,14.460939 108.869141,14.8593725 108.869141,15.359375 C108.869141,15.7734396 108.990233,16.078124 109.232422,16.2734375 C109.474611,16.468751 109.791014,16.5664062 110.181641,16.5664062 Z M117.751953,17.1523438 C117.12695,17.1523438 116.494144,16.8867214 115.853516,16.3554688 L115.841797,16.3554688 C115.833984,16.3554688 115.830078,16.359375 115.830078,16.3671875 L115.783203,16.71875 C115.767578,16.7968754 115.730469,16.863281 115.671875,16.9179688 C115.613281,16.9726565 115.541016,17 115.455078,17 C115.376953,17 115.310547,16.9726565 115.255859,16.9179688 C115.201172,16.863281 115.173828,16.7968754 115.173828,16.71875 L115.173828,7.8125 C115.173828,7.71093699 115.208984,7.62695346 115.279297,7.56054688 C115.34961,7.49414029 115.43164,7.4609375 115.525391,7.4609375 C115.619141,7.4609375 115.701172,7.49414029 115.771484,7.56054688 C115.841797,7.62695346 115.876953,7.71093699 115.876953,7.8125 L115.876953,10.1914062 L115.841797,11.328125 C115.841797,11.3515626 115.849609,11.3652344 115.865234,11.3691406 C115.880859,11.3730469 115.892578,11.3710938 115.900391,11.3632812 C116.650394,10.7460907 117.349606,10.4375 117.998047,10.4375 C118.833989,10.4375 119.470701,10.7285127 119.908203,11.3105469 C120.345705,11.892581 120.564453,12.687495 120.564453,13.6953125 C120.564453,14.2265652 120.488282,14.7128884 120.335938,15.1542969 C120.183593,15.5957053 119.978517,15.9609361 119.720703,16.25 C119.462889,16.5390639 119.164064,16.761718 118.824219,16.9179688 C118.484373,17.0742195 118.126955,17.1523438 117.751953,17.1523438 Z M117.681641,16.5429688 C118.314456,16.5429688 118.830076,16.2812526 119.228516,15.7578125 C119.626955,15.2343724 119.826172,14.5468793 119.826172,13.6953125 C119.826172,12.8749959 119.669923,12.228518 119.357422,11.7558594 C119.04492,11.2832008 118.548832,11.046875 117.869141,11.046875 C117.298825,11.046875 116.6543,11.3671843 115.935547,12.0078125 C115.896484,12.0468752 115.876953,12.0976559 115.876953,12.1601562 L115.876953,15.6757812 C115.876953,15.7382816 115.90039,15.7851561 115.947266,15.8164062 C116.525394,16.3007837 117.103513,16.5429688 117.681641,16.5429688 Z M123.259766,17.1523438 C122.68945,17.1523438 122.404297,16.7851599 122.404297,16.0507812 L122.404297,7.8125 C122.404297,7.71093699 122.439453,7.62695346 122.509766,7.56054688 C122.580078,7.49414029 122.662109,7.4609375 122.755859,7.4609375 C122.84961,7.4609375 122.93164,7.49414029 123.001953,7.56054688 C123.072266,7.62695346 123.107422,7.71093699 123.107422,7.8125 L123.107422,16.1210938 C123.107422,16.2539069 123.128906,16.3554684 123.171875,16.4257812 C123.214844,16.4960941 123.271484,16.5390624 123.341797,16.5546875 C123.53711,16.5859377 123.646484,16.6718743 123.669922,16.8125 C123.677734,16.8281251 123.681641,16.8476561 123.681641,16.8710938 C123.681641,16.9257815 123.666016,16.9804685 123.634766,17.0351562 C123.595703,17.0976566 123.53711,17.1328125 123.458984,17.140625 C123.396484,17.1484375 123.330078,17.1523438 123.259766,17.1523438 Z M128.052734,17.1523438 C127.20898,17.1523438 126.501956,16.8496124 125.931641,16.2441406 C125.361325,15.6386688 125.076172,14.8281301 125.076172,13.8125 C125.076172,12.812495 125.355466,12.0000031 125.914062,11.375 C126.472659,10.7499969 127.130856,10.4375 127.888672,10.4375 C128.638676,10.4375 129.228513,10.6835913 129.658203,11.1757812 C130.126955,11.6992214 130.361328,12.3906207 130.361328,13.25 C130.361328,13.4296884 130.291016,13.5859368 130.150391,13.71875 C130.009765,13.8515632 129.837892,13.9179688 129.634766,13.9179688 L125.873047,13.9179688 C125.818359,13.9179688 125.791016,13.9453122 125.791016,14 C125.822266,14.7656288 126.050779,15.3847633 126.476562,15.8574219 C126.902346,16.3300805 127.451169,16.5664062 128.123047,16.5664062 C128.646487,16.5664062 129.134763,16.4335951 129.587891,16.1679688 C129.650391,16.1289061 129.720703,16.1191405 129.798828,16.1386719 C129.876954,16.1582032 129.93164,16.2031246 129.962891,16.2734375 C130.001953,16.3437504 130.009766,16.4199215 129.986328,16.5019531 C129.962891,16.5839848 129.916016,16.6445311 129.845703,16.6835938 C129.2832,16.9960953 128.68555,17.1523438 128.052734,17.1523438 Z M125.791016,13.296875 C125.791016,13.3437502 125.818359,13.3671875 125.873047,13.3671875 L129.634766,13.3671875 C129.697266,13.3671875 129.728516,13.339844 129.728516,13.2851562 L129.728516,13.2734375 C129.712891,12.5468714 129.544923,11.9921894 129.224609,11.609375 C128.904295,11.2265606 128.462893,11.0351562 127.900391,11.0351562 C127.369138,11.0351562 126.904299,11.2382792 126.505859,11.6445312 C126.029294,12.1289087 125.791016,12.6796844 125.791016,13.296875 Z" id="noTable" fill="#4A4A4A"></path>
            <path d="M70.796875,5.2734375 C71.0156261,5.2734375 71.2031242,5.35156172 71.359375,5.5078125 C71.5156258,5.66406328 71.59375,5.85156141 71.59375,6.0703125 C71.59375,6.28906359 71.5156258,6.47656172 71.359375,6.6328125 C71.2031242,6.78906328 71.0156261,6.8671875 70.796875,6.8671875 L63.8828125,6.8671875 C63.6640614,6.8671875 63.4765633,6.78906328 63.3203125,6.6328125 C63.1640617,6.47656172 63.0859375,6.28906359 63.0859375,6.0703125 C63.0859375,5.85156141 63.1640617,5.66406328 63.3203125,5.5078125 C63.4765633,5.35156172 63.6640614,5.2734375 63.8828125,5.2734375 L66.0625,5.2734375 C66.2187508,5.2734375 66.296875,5.19531328 66.296875,5.0390625 L66.296875,1.828125 C66.296875,1.59374883 66.3789054,1.39453207 66.5429688,1.23046875 C66.7070321,1.06640543 66.9062488,0.984375 67.140625,0.984375 C67.3750012,0.984375 67.5742179,1.06640543 67.7382812,1.23046875 C67.9023446,1.39453207 67.984375,1.59374883 67.984375,1.828125 L67.984375,5.0390625 C67.984375,5.19531328 68.0624992,5.2734375 68.21875,5.2734375 L70.796875,5.2734375 Z M69.0859375,18.8671875 C69.0390623,19.0546884 68.9335946,19.1992182 68.7695312,19.3007812 C68.6054679,19.4023443 68.4257822,19.4296877 68.2304688,19.3828125 C68.0351553,19.3359373 67.882813,19.2304696 67.7734375,19.0664062 C67.664062,18.9023429 67.6328123,18.718751 67.6796875,18.515625 C68.2734405,15.6718608 68.7499982,12.4297057 69.109375,8.7890625 C69.1250001,8.55468633 69.2265616,8.3671882 69.4140625,8.2265625 C69.6015634,8.0859368 69.8124988,8.03906227 70.046875,8.0859375 C70.2812512,8.13281273 70.4687493,8.25781148 70.609375,8.4609375 C70.7500007,8.66406352 70.8046877,8.88281133 70.7734375,9.1171875 C70.2265598,13.023457 69.6640654,16.2734245 69.0859375,18.8671875 Z M66.296875,18.28125 C66.3125001,18.5156262 66.2500007,18.7265616 66.109375,18.9140625 C65.9687493,19.1015634 65.7890636,19.2265622 65.5703125,19.2890625 C65.3828116,19.3515628 65.2070321,19.3242193 65.0429688,19.2070312 C64.8789054,19.0898432 64.796875,18.9296885 64.796875,18.7265625 C64.6718744,15.632797 64.3281278,12.4531413 63.765625,9.1875 C63.7343748,8.98437398 63.773437,8.80078207 63.8828125,8.63671875 C63.992188,8.47265543 64.1445303,8.37109395 64.3398438,8.33203125 C64.5351572,8.29296855 64.7148429,8.32812445 64.8789062,8.4375 C65.0429696,8.54687555 65.1484373,8.70312398 65.1953125,8.90625 C65.8203156,12.3593923 66.1874995,15.484361 66.296875,18.28125 Z M54.7890625,5.2734375 C54.7890625,5.11718672 54.7109383,5.0390625 54.5546875,5.0390625 L52.4921875,5.0390625 C52.3359367,5.0390625 52.2578125,5.11718672 52.2578125,5.2734375 L52.2578125,14.625 C52.2578125,14.7812508 52.3359367,14.859375 52.4921875,14.859375 L54.5546875,14.859375 C54.7109383,14.859375 54.7890625,14.7812508 54.7890625,14.625 L54.7890625,5.2734375 Z M54.2734375,3.421875 C54.8359403,3.421875 55.3164043,3.62109176 55.7148438,4.01953125 C56.1132832,4.41797074 56.3125,4.89843469 56.3125,5.4609375 L56.3125,14.4375 C56.3125,15.0156279 56.1132832,15.499998 55.7148438,15.890625 C55.3164043,16.281252 54.8359403,16.4765625 54.2734375,16.4765625 L52.46875,16.4765625 C52.3281243,16.4765625 52.2578125,16.5468743 52.2578125,16.6875 L52.2578125,17.765625 C52.2578125,17.9843761 52.1835945,18.167968 52.0351562,18.3164062 C51.886718,18.4648445 51.7109385,18.5390625 51.5078125,18.5390625 C51.3046865,18.5390625 51.128907,18.4648445 50.9804688,18.3164062 C50.8320305,18.167968 50.7578125,17.9843761 50.7578125,17.765625 L50.7578125,5.4609375 C50.7578125,4.89843469 50.9570293,4.41797074 51.3554688,4.01953125 C51.7539082,3.62109176 52.2343722,3.421875 52.796875,3.421875 L54.2734375,3.421875 Z M62.6875,11.9296875 C62.7187502,12.1484386 62.6835943,12.3554678 62.5820312,12.5507812 C62.4804682,12.7460947 62.328126,12.8828121 62.125,12.9609375 L60.7890625,13.5234375 C60.6484368,13.5859378 60.578125,13.6953117 60.578125,13.8515625 L60.578125,20.8359375 C60.578125,21.2890648 60.5195318,21.64453 60.4023438,21.9023438 C60.2851557,22.1601575 60.0937513,22.3515619 59.828125,22.4765625 C59.4531231,22.6796885 58.8281294,22.7890624 57.953125,22.8046875 L57.9296875,22.8046875 C57.6953113,22.8046875 57.4921884,22.7343757 57.3203125,22.59375 C57.1171865,22.4374992 56.9843753,22.2421887 56.921875,22.0078125 C56.8593747,21.8203116 56.882812,21.6445321 56.9921875,21.4804688 C57.101563,21.3164054 57.2578115,21.234375 57.4609375,21.234375 L58.6328125,21.234375 C58.7734382,21.2187499 58.8710935,21.1875002 58.9257812,21.140625 C58.980469,21.0937498 59.0078125,20.9921883 59.0078125,20.8359375 L59.0078125,14.484375 C59.0078125,14.4374998 58.9843752,14.3984377 58.9375,14.3671875 C58.8906248,14.3359373 58.8437502,14.3281249 58.796875,14.34375 C58.5781239,14.4375005 58.2343773,14.5781241 57.765625,14.765625 C57.5468739,14.8593755 57.3320323,14.8554693 57.1210938,14.7539062 C56.9101552,14.6523432 56.7734378,14.4921886 56.7109375,14.2734375 C56.6796873,14.179687 56.6640625,14.0937504 56.6640625,14.015625 C56.6640625,13.8749993 56.6953122,13.7421881 56.7578125,13.6171875 C56.867188,13.4140615 57.0312489,13.2656255 57.25,13.171875 C57.5625016,13.0624995 58.0781214,12.8750013 58.796875,12.609375 C58.9375007,12.5624998 59.0078125,12.4609383 59.0078125,12.3046875 L59.0078125,7.59375 C59.0078125,7.43749922 58.9296883,7.359375 58.7734375,7.359375 L57.53125,7.359375 C57.3124989,7.359375 57.128907,7.28515699 56.9804688,7.13671875 C56.8320305,6.98828051 56.7578125,6.80468859 56.7578125,6.5859375 C56.7578125,6.36718641 56.8320305,6.18359449 56.9804688,6.03515625 C57.128907,5.88671801 57.3124989,5.8125 57.53125,5.8125 L58.7734375,5.8125 C58.9296883,5.8125 59.0078125,5.73437578 59.0078125,5.578125 L59.0078125,1.7578125 C59.0078125,1.53906141 59.0859367,1.35546949 59.2421875,1.20703125 C59.3984383,1.05859301 59.5820302,0.984375 59.7929688,0.984375 C60.0039073,0.984375 60.1874992,1.05859301 60.34375,1.20703125 C60.5000008,1.35546949 60.578125,1.53906141 60.578125,1.7578125 L60.578125,5.6015625 C60.578125,5.7421882 60.6406244,5.8125 60.765625,5.8125 L61.796875,5.8125 C62.0156261,5.8125 62.2031242,5.88671801 62.359375,6.03515625 C62.5156258,6.18359449 62.59375,6.36718641 62.59375,6.5859375 C62.59375,6.80468859 62.5156258,6.98828051 62.359375,7.13671875 C62.2031242,7.28515699 62.0156261,7.359375 61.796875,7.359375 L60.765625,7.359375 C60.6406244,7.359375 60.578125,7.4296868 60.578125,7.5703125 L60.578125,11.7421875 C60.578125,11.7890627 60.5976561,11.8281248 60.6367188,11.859375 C60.6757814,11.8906252 60.7187498,11.8984376 60.765625,11.8828125 L61.8203125,11.4609375 C62.0078134,11.3828121 62.1874991,11.3945307 62.359375,11.4960938 C62.5312509,11.5976568 62.6406248,11.7421866 62.6875,11.9296875 Z M62.265625,21.796875 C62.1093742,21.6406242 62.03125,21.4531261 62.03125,21.234375 C62.03125,21.0156239 62.1093742,20.8281258 62.265625,20.671875 C62.4218758,20.5156242 62.6093739,20.4375 62.828125,20.4375 L71.171875,20.4375 C71.3906261,20.4375 71.5781242,20.5156242 71.734375,20.671875 C71.8906258,20.8281258 71.96875,21.0156239 71.96875,21.234375 C71.96875,21.4531261 71.8906258,21.6406242 71.734375,21.796875 C71.5781242,21.9531258 71.3906261,22.03125 71.171875,22.03125 L62.828125,22.03125 C62.6093739,22.03125 62.4218758,21.9531258 62.265625,21.796875 Z" id="啦" fill="#4A4A4A"></path>
        </g>
    </g>
</svg>