<?xml version="1.0" encoding="UTF-8"?>
<svg width="195px" height="44px" viewBox="0 0 195 44" version="1.1" xmlns="http://www.w3.org/2000/svg" xmlns:xlink="http://www.w3.org/1999/xlink">
    <!-- Generator: Sketch 41.2 (35397) - http://www.bohemiancoding.com/sketch -->
    <title>Rectangle 15</title>
    <desc>Created with Sketch.</desc>
    <defs></defs>
    <g id="Page-1" stroke="none" stroke-width="1" fill="none" fill-rule="evenodd">
        <g id="Group-42">
            <g id="Group-41" transform="translate(4.000000, 0.000000)">
                <g id="Group-36" transform="translate(0.000000, 11.000000)">
                    <path d="M79.5507812,15.4804688 C79.402343,15.628907 79.2226573,15.703125 79.0117188,15.703125 C78.8007802,15.703125 78.6210945,15.628907 78.4726562,15.4804688 C78.324218,15.3320305 78.2421876,15.1484386 78.2265625,14.9296875 L77.96875,5.53125 L77.921875,4.1484375 C77.921875,3.83593594 78.0273427,3.57031359 78.2382812,3.3515625 C78.4492198,3.13281141 78.7070297,3.0234375 79.0117188,3.0234375 C79.3164078,3.0234375 79.5742177,3.13281141 79.7851562,3.3515625 C79.9960948,3.57031359 80.1015625,3.83593594 80.1015625,4.1484375 L80.0546875,5.53125 L79.796875,14.9296875 C79.7812499,15.1484386 79.6992195,15.3320305 79.5507812,15.4804688 Z M79,21.3046875 C78.5624978,21.3046875 78.1875016,21.1523453 77.875,20.8476562 C77.5624984,20.5429672 77.40625,20.1484399 77.40625,19.6640625 C77.40625,19.1796851 77.5624984,18.7734391 77.875,18.4453125 C78.1875016,18.1171859 78.5624978,17.953125 79,17.953125 C79.4375022,17.953125 79.8085922,18.1132796 80.1132812,18.4335938 C80.4179703,18.7539079 80.5703125,19.16406 80.5703125,19.6640625 C80.5703125,20.1484399 80.4218765,20.5429672 80.125,20.8476562 C79.8281235,21.1523453 79.4531273,21.3046875 79,21.3046875 Z" id="!" fill="#4A4A4A"></path>
                    <path d="M32.1445312,7.04296875 C31.9804679,6.87890543 31.8984375,6.68359488 31.8984375,6.45703125 C31.8984375,6.23046762 31.9804679,6.03515707 32.1445312,5.87109375 C32.3085946,5.70703043 32.5078113,5.625 32.7421875,5.625 L37.875,5.625 C38.0312508,5.625 38.109375,5.54687578 38.109375,5.390625 L38.109375,2.109375 C38.109375,1.85937375 38.1992179,1.64453215 38.3789062,1.46484375 C38.5585946,1.28515535 38.76953,1.1953125 39.0117188,1.1953125 C39.2539075,1.1953125 39.4648429,1.28515535 39.6445312,1.46484375 C39.8242196,1.64453215 39.9140625,1.85937375 39.9140625,2.109375 L39.9140625,5.390625 C39.9140625,5.54687578 39.9921867,5.625 40.1484375,5.625 L45.6328125,5.625 C45.8515636,5.625 46.0429679,5.70703043 46.2070312,5.87109375 C46.3710946,6.03515707 46.453125,6.23046762 46.453125,6.45703125 C46.453125,6.68359488 46.3710946,6.87890543 46.2070312,7.04296875 C46.0429679,7.20703207 45.8515636,7.2890625 45.6328125,7.2890625 L32.7421875,7.2890625 C32.5078113,7.2890625 32.3085946,7.20703207 32.1445312,7.04296875 Z M37.3125,17.625 C37.3437502,17.8906263 37.285157,18.124999 37.1367188,18.328125 C36.9882805,18.531251 36.7890638,18.6640622 36.5390625,18.7265625 C36.3046863,18.7734377 36.0937509,18.7265632 35.90625,18.5859375 C35.7187491,18.4453118 35.6093752,18.2578137 35.578125,18.0234375 C35.3124987,15.5077999 34.8203161,12.8203268 34.1015625,9.9609375 C34.0390622,9.75781148 34.0664057,9.56640715 34.1835938,9.38671875 C34.3007818,9.20703035 34.4687489,9.09375023 34.6875,9.046875 C34.9062511,8.99999977 35.1132803,9.03906188 35.3085938,9.1640625 C35.5039072,9.28906312 35.6328122,9.46093641 35.6953125,9.6796875 C36.4609413,12.5390768 36.9999984,15.1874878 37.3125,17.625 Z M30.375,1.78125 C30.4687505,1.56249891 30.6249989,1.39843805 30.84375,1.2890625 C30.9687506,1.22656219 31.1015618,1.1953125 31.2421875,1.1953125 C31.335938,1.1953125 31.429687,1.21093734 31.5234375,1.2421875 C31.7421886,1.32031289 31.9023432,1.4648427 32.0039062,1.67578125 C32.1054693,1.8867198 32.1093755,2.10156141 32.015625,2.3203125 C31.4531222,3.63281906 30.7890663,4.94530594 30.0234375,6.2578125 C29.9453121,6.3984382 29.90625,6.5390618 29.90625,6.6796875 L29.90625,21.9140625 C29.90625,22.1484387 29.8242196,22.3476554 29.6601562,22.5117188 C29.4960929,22.6757821 29.2968762,22.7578125 29.0625,22.7578125 C28.8281238,22.7578125 28.6289071,22.6757821 28.4648438,22.5117188 C28.3007804,22.3476554 28.21875,22.1484387 28.21875,21.9140625 L28.21875,9.2578125 C28.21875,9.22656234 28.2031252,9.20312508 28.171875,9.1875 C28.1406248,9.17187492 28.1093752,9.17968734 28.078125,9.2109375 C27.468747,10.0546917 26.8750029,10.7890594 26.296875,11.4140625 C26.1249991,11.6015634 25.9140638,11.6757814 25.6640625,11.6367188 C25.4140612,11.5976561 25.2265631,11.4687511 25.1015625,11.25 C24.9765619,11.046874 24.9140625,10.8281262 24.9140625,10.59375 L24.9140625,10.4296875 C24.9453127,10.132811 25.062499,9.88281352 25.265625,9.6796875 C27.3593855,7.49217656 29.0624934,4.85939039 30.375,1.78125 Z M41.4140625,19.828125 C41.3984374,19.8750002 41.4062498,19.9218748 41.4375,19.96875 C41.4687502,20.0156252 41.5078123,20.0390625 41.5546875,20.0390625 L46.21875,20.0390625 C46.4531262,20.0390625 46.6523429,20.1210929 46.8164062,20.2851562 C46.9804696,20.4492196 47.0625,20.6484363 47.0625,20.8828125 C47.0625,21.1171887 46.9804696,21.3164054 46.8164062,21.4804688 C46.6523429,21.6445321 46.4531262,21.7265625 46.21875,21.7265625 L32.15625,21.7265625 C31.9218738,21.7265625 31.7226571,21.6445321 31.5585938,21.4804688 C31.3945304,21.3164054 31.3125,21.1171887 31.3125,20.8828125 C31.3125,20.6484363 31.3945304,20.4492196 31.5585938,20.2851562 C31.7226571,20.1210929 31.9218738,20.0390625 32.15625,20.0390625 L39.375,20.0390625 C39.5312508,20.0390625 39.6328123,19.9687507 39.6796875,19.828125 C40.7421928,16.8593602 41.6484337,13.4609566 42.3984375,9.6328125 C42.4453127,9.38281125 42.5781239,9.17968828 42.796875,9.0234375 C42.9687509,8.89843688 43.156249,8.8359375 43.359375,8.8359375 C43.4218753,8.8359375 43.4843747,8.84374992 43.546875,8.859375 C43.7968763,8.90625023 43.9999992,9.03906141 44.15625,9.2578125 C44.2500005,9.41406328 44.296875,9.57812414 44.296875,9.75 C44.296875,9.82812539 44.2890626,9.90624961 44.2734375,9.984375 C43.3359328,13.8593944 42.3828173,17.1406116 41.4140625,19.828125 Z" id="位" fill="#7ED321"></path>
                    <path d="M4.671875,5.2734375 C4.671875,5.11718672 4.59375078,5.0390625 4.4375,5.0390625 L2.4453125,5.0390625 C2.28906172,5.0390625 2.2109375,5.11718672 2.2109375,5.2734375 L2.2109375,14.25 C2.2109375,14.4062508 2.28906172,14.484375 2.4453125,14.484375 L4.4375,14.484375 C4.59375078,14.484375 4.671875,14.4062508 4.671875,14.25 L4.671875,5.2734375 Z M18.21875,9.6328125 C18.3750008,9.6328125 18.453125,9.55468828 18.453125,9.3984375 L18.453125,5.6953125 C18.453125,5.53906172 18.3750008,5.4609375 18.21875,5.4609375 L16.7890625,5.4609375 C16.6328117,5.4609375 16.5546875,5.53906172 16.5546875,5.6953125 L16.5546875,9.3984375 C16.5546875,9.55468828 16.6328117,9.6328125 16.7890625,9.6328125 L18.21875,9.6328125 Z M18.21875,15.3984375 C18.3750008,15.3984375 18.453125,15.3203133 18.453125,15.1640625 L18.453125,11.4140625 C18.453125,11.2578117 18.3750008,11.1796875 18.21875,11.1796875 L16.7890625,11.1796875 C16.6328117,11.1796875 16.5546875,11.2578117 16.5546875,11.4140625 L16.5546875,15.1640625 C16.5546875,15.3203133 16.6328117,15.3984375 16.7890625,15.3984375 L18.21875,15.3984375 Z M10.3203125,11.1796875 C10.1640617,11.1796875 10.0859375,11.2578117 10.0859375,11.4140625 L10.0859375,15.1640625 C10.0859375,15.3203133 10.1640617,15.3984375 10.3203125,15.3984375 L11.65625,15.3984375 C11.8125008,15.3984375 11.890625,15.3203133 11.890625,15.1640625 L11.890625,11.4140625 C11.890625,11.2578117 11.8125008,11.1796875 11.65625,11.1796875 L10.3203125,11.1796875 Z M15.1484375,11.4140625 C15.1484375,11.2578117 15.0703133,11.1796875 14.9140625,11.1796875 L13.5078125,11.1796875 C13.3515617,11.1796875 13.2734375,11.2578117 13.2734375,11.4140625 L13.2734375,15.1640625 C13.2734375,15.3203133 13.3515617,15.3984375 13.5078125,15.3984375 L14.9140625,15.3984375 C15.0703133,15.3984375 15.1484375,15.3203133 15.1484375,15.1640625 L15.1484375,11.4140625 Z M13.2734375,9.3984375 C13.2734375,9.55468828 13.3515617,9.6328125 13.5078125,9.6328125 L14.9140625,9.6328125 C15.0703133,9.6328125 15.1484375,9.55468828 15.1484375,9.3984375 L15.1484375,5.6953125 C15.1484375,5.53906172 15.0703133,5.4609375 14.9140625,5.4609375 L13.5078125,5.4609375 C13.3515617,5.4609375 13.2734375,5.53906172 13.2734375,5.6953125 L13.2734375,9.3984375 Z M10.3203125,5.4609375 C10.1640617,5.4609375 10.0859375,5.53906172 10.0859375,5.6953125 L10.0859375,9.3984375 C10.0859375,9.55468828 10.1640617,9.6328125 10.3203125,9.6328125 L11.65625,9.6328125 C11.8125008,9.6328125 11.890625,9.55468828 11.890625,9.3984375 L11.890625,5.6953125 C11.890625,5.53906172 11.8125008,5.4609375 11.65625,5.4609375 L10.3203125,5.4609375 Z M6.1015625,14.0625 C6.1015625,14.6250028 5.90234574,15.1054668 5.50390625,15.5039062 C5.10546676,15.9023457 4.62500281,16.1015625 4.0625,16.1015625 L2.421875,16.1015625 C2.2812493,16.1015625 2.2109375,16.1718743 2.2109375,16.3125 L2.2109375,17.34375 C2.2109375,17.546876 2.14453191,17.7148431 2.01171875,17.8476562 C1.87890559,17.9804694 1.71484473,18.046875 1.51953125,18.046875 C1.32421777,18.046875 1.16015691,17.9804694 1.02734375,17.8476562 C0.894530586,17.7148431 0.828125,17.546876 0.828125,17.34375 L0.828125,5.4609375 C0.828125,4.89843469 1.02734176,4.41797074 1.42578125,4.01953125 C1.82422074,3.62109176 2.30468469,3.421875 2.8671875,3.421875 L4.0625,3.421875 C4.62500281,3.421875 5.10546676,3.62109176 5.50390625,4.01953125 C5.90234574,4.41797074 6.1015625,4.89843469 6.1015625,5.4609375 L6.1015625,7.0546875 C6.1015625,7.10156273 6.12109355,7.13281242 6.16015625,7.1484375 C6.19921895,7.16406258 6.23437484,7.15625016 6.265625,7.125 C7.68750711,5.68749281 8.79687102,3.87501094 9.59375,1.6875 C9.67187539,1.46874891 9.81249898,1.29687562 10.015625,1.171875 C10.1562507,1.09374961 10.3046867,1.0546875 10.4609375,1.0546875 C10.5234378,1.0546875 10.5937496,1.06249992 10.671875,1.078125 C10.8906261,1.12500023 11.0507807,1.24999898 11.1523438,1.453125 C11.2539068,1.65625102 11.2656254,1.85937398 11.1875,2.0625 C10.984374,2.62500281 10.7578138,3.17968477 10.5078125,3.7265625 C10.4765623,3.77343773 10.4765623,3.82031227 10.5078125,3.8671875 C10.5390627,3.91406273 10.5781248,3.9375 10.625,3.9375 L20.8671875,3.9375 C21.0703135,3.9375 21.2499992,4.01171801 21.40625,4.16015625 C21.5625008,4.30859449 21.640625,4.4882802 21.640625,4.69921875 C21.640625,4.9101573 21.5625008,5.08984301 21.40625,5.23828125 C21.2499992,5.38671949 21.0703135,5.4609375 20.8671875,5.4609375 L20.1171875,5.4609375 C20.007812,5.4609375 19.953125,5.52343688 19.953125,5.6484375 L19.953125,9.421875 C19.953125,9.5625007 20.0234368,9.6328125 20.1640625,9.6328125 L21.2421875,9.6328125 C21.4609386,9.6328125 21.6445305,9.70703051 21.7929688,9.85546875 C21.941407,10.003907 22.015625,10.1874989 22.015625,10.40625 C22.015625,10.6250011 21.941407,10.808593 21.7929688,10.9570313 C21.6445305,11.1054695 21.4609386,11.1796875 21.2421875,11.1796875 L20.1640625,11.1796875 C20.0234368,11.1796875 19.953125,11.2499993 19.953125,11.390625 L19.953125,15.2109375 C19.953125,15.3359381 20.0156244,15.3984375 20.140625,15.3984375 L21.0546875,15.3984375 C21.2578135,15.3984375 21.433593,15.4726555 21.5820312,15.6210938 C21.7304695,15.769532 21.8046875,15.9492177 21.8046875,16.1601562 C21.8046875,16.3710948 21.7304695,16.5507805 21.5820312,16.6992188 C21.433593,16.847657 21.2578135,16.921875 21.0546875,16.921875 L7.484375,16.921875 C7.28124898,16.921875 7.10546949,16.847657 6.95703125,16.6992188 C6.80859301,16.5507805 6.734375,16.3710948 6.734375,16.1601562 C6.734375,15.9492177 6.80859301,15.769532 6.95703125,15.6210938 C7.10546949,15.4726555 7.28124898,15.3984375 7.484375,15.3984375 L8.3984375,15.3984375 C8.5390632,15.3984375 8.609375,15.3359381 8.609375,15.2109375 L8.609375,11.390625 C8.609375,11.2499993 8.5390632,11.1796875 8.3984375,11.1796875 L7.3203125,11.1796875 C7.10156141,11.1796875 6.91796949,11.1054695 6.76953125,10.9570313 C6.62109301,10.808593 6.546875,10.6250011 6.546875,10.40625 C6.546875,10.1874989 6.62109301,10.003907 6.76953125,9.85546875 C6.91796949,9.70703051 7.10156141,9.6328125 7.3203125,9.6328125 L8.3984375,9.6328125 C8.5390632,9.6328125 8.609375,9.5625007 8.609375,9.421875 L8.609375,7.1484375 C8.609375,7.11718734 8.58984395,7.09375008 8.55078125,7.078125 C8.51171855,7.06249992 8.48437508,7.07031234 8.46875,7.1015625 C8.34374938,7.27343836 8.21875062,7.43749922 8.09375,7.59375 C7.87499891,7.85937633 7.57812688,7.99999992 7.203125,8.015625 C7.17187484,8.03125008 7.14062516,8.0390625 7.109375,8.0390625 C6.78124836,8.0390625 6.48437633,7.93750102 6.21875,7.734375 C6.20312492,7.71874992 6.17968766,7.71874992 6.1484375,7.734375 C6.11718734,7.75000008 6.1015625,7.77343734 6.1015625,7.8046875 L6.1015625,14.0625 Z M6.8984375,22.3125 C6.71093656,22.4687508 6.48828254,22.546875 6.23046875,22.546875 C5.97265496,22.546875 5.74218852,22.4765632 5.5390625,22.3359375 C5.38281172,22.2109369 5.3046875,22.0546884 5.3046875,21.8671875 C5.3046875,21.6484364 5.38281172,21.4765631 5.5390625,21.3515625 C6.46094211,20.6015588 7.20312219,19.6093812 7.765625,18.375 C7.85937547,18.1874991 8.00390527,18.0507817 8.19921875,17.9648438 C8.39453223,17.8789058 8.59374898,17.8749996 8.796875,17.953125 C9.00000102,18.0312504 9.14062461,18.1679678 9.21875,18.3632812 C9.29687539,18.5585947 9.29687539,18.7578115 9.21875,18.9609375 C8.59374688,20.3984447 7.82031711,21.515621 6.8984375,22.3125 Z M11.0703125,18.84375 L11.0703125,18.6796875 C11.0703125,18.5546869 11.1093746,18.4296881 11.1875,18.3046875 C11.2968755,18.1328116 11.453124,18.0312502 11.65625,18 C11.859376,17.9687498 12.0507804,18.0117182 12.2304688,18.1289062 C12.4101571,18.2460943 12.5234373,18.406249 12.5703125,18.609375 C12.8203138,19.6718803 12.9999995,20.6328082 13.109375,21.4921875 C13.1406252,21.7265637 13.0859382,21.9335929 12.9453125,22.1132812 C12.8046868,22.2929696 12.6171887,22.3984373 12.3828125,22.4296875 C12.1796865,22.4609377 11.9960946,22.4101569 11.8320312,22.2773438 C11.6679679,22.1445306 11.5781251,21.9687511 11.5625,21.75 C11.4687495,20.8749956 11.3046887,19.9062553 11.0703125,18.84375 Z M14.5390625,18.84375 C14.4921873,18.7656246 14.46875,18.679688 14.46875,18.5859375 C14.46875,18.5078121 14.4843748,18.4218755 14.515625,18.328125 C14.5937504,18.1562491 14.7187491,18.0390628 14.890625,17.9765625 C15.093751,17.9140622 15.2929678,17.9218746 15.4882812,18 C15.6835947,18.0781254 15.8281245,18.2109366 15.921875,18.3984375 C16.4687527,19.4296927 16.9062484,20.398433 17.234375,21.3046875 C17.2968753,21.5234386 17.2812505,21.7304678 17.1875,21.9257812 C17.0937495,22.1210947 16.9375011,22.2499997 16.71875,22.3125 C16.5312491,22.3906254 16.3437509,22.382813 16.15625,22.2890625 C15.9687491,22.195312 15.8437503,22.046876 15.78125,21.84375 C15.4843735,20.8906202 15.0703152,19.8906302 14.5390625,18.84375 Z M18.1015625,18.75 C18.0234371,18.6406245 17.984375,18.5156257 17.984375,18.375 C17.984375,18.3281248 17.9921874,18.2734378 18.0078125,18.2109375 C18.0546877,18.0234366 18.1640616,17.8906254 18.3359375,17.8125 C18.4765632,17.7499997 18.6171868,17.71875 18.7578125,17.71875 C18.8359379,17.71875 18.9218745,17.7265624 19.015625,17.7421875 C19.2343761,17.8046878 19.4140618,17.9218741 19.5546875,18.09375 C20.4140668,19.1875055 21.140622,20.2734321 21.734375,21.3515625 C21.8125004,21.4765631 21.8515625,21.6015619 21.8515625,21.7265625 C21.8515625,21.8046879 21.8359377,21.8906245 21.8046875,21.984375 C21.7265621,22.2031261 21.5781261,22.367187 21.359375,22.4765625 C21.2499995,22.5390628 21.1328131,22.5703125 21.0078125,22.5703125 C20.914062,22.5703125 20.820313,22.5468752 20.7265625,22.5 C20.5078114,22.4218746 20.3437505,22.281251 20.234375,22.078125 C19.6874973,21.0468698 18.9765669,19.9375059 18.1015625,18.75 Z" id="嘸" fill="#4A4A4A"></path>
                    <path d="M70.796875,5.2734375 C71.0156261,5.2734375 71.2031242,5.35156172 71.359375,5.5078125 C71.5156258,5.66406328 71.59375,5.85156141 71.59375,6.0703125 C71.59375,6.28906359 71.5156258,6.47656172 71.359375,6.6328125 C71.2031242,6.78906328 71.0156261,6.8671875 70.796875,6.8671875 L63.8828125,6.8671875 C63.6640614,6.8671875 63.4765633,6.78906328 63.3203125,6.6328125 C63.1640617,6.47656172 63.0859375,6.28906359 63.0859375,6.0703125 C63.0859375,5.85156141 63.1640617,5.66406328 63.3203125,5.5078125 C63.4765633,5.35156172 63.6640614,5.2734375 63.8828125,5.2734375 L66.0625,5.2734375 C66.2187508,5.2734375 66.296875,5.19531328 66.296875,5.0390625 L66.296875,1.828125 C66.296875,1.59374883 66.3789054,1.39453207 66.5429688,1.23046875 C66.7070321,1.06640543 66.9062488,0.984375 67.140625,0.984375 C67.3750012,0.984375 67.5742179,1.06640543 67.7382812,1.23046875 C67.9023446,1.39453207 67.984375,1.59374883 67.984375,1.828125 L67.984375,5.0390625 C67.984375,5.19531328 68.0624992,5.2734375 68.21875,5.2734375 L70.796875,5.2734375 Z M69.0859375,18.8671875 C69.0390623,19.0546884 68.9335946,19.1992182 68.7695312,19.3007812 C68.6054679,19.4023443 68.4257822,19.4296877 68.2304688,19.3828125 C68.0351553,19.3359373 67.882813,19.2304696 67.7734375,19.0664062 C67.664062,18.9023429 67.6328123,18.718751 67.6796875,18.515625 C68.2734405,15.6718608 68.7499982,12.4297057 69.109375,8.7890625 C69.1250001,8.55468633 69.2265616,8.3671882 69.4140625,8.2265625 C69.6015634,8.0859368 69.8124988,8.03906227 70.046875,8.0859375 C70.2812512,8.13281273 70.4687493,8.25781148 70.609375,8.4609375 C70.7500007,8.66406352 70.8046877,8.88281133 70.7734375,9.1171875 C70.2265598,13.023457 69.6640654,16.2734245 69.0859375,18.8671875 Z M66.296875,18.28125 C66.3125001,18.5156262 66.2500007,18.7265616 66.109375,18.9140625 C65.9687493,19.1015634 65.7890636,19.2265622 65.5703125,19.2890625 C65.3828116,19.3515628 65.2070321,19.3242193 65.0429688,19.2070312 C64.8789054,19.0898432 64.796875,18.9296885 64.796875,18.7265625 C64.6718744,15.632797 64.3281278,12.4531413 63.765625,9.1875 C63.7343748,8.98437398 63.773437,8.80078207 63.8828125,8.63671875 C63.992188,8.47265543 64.1445303,8.37109395 64.3398438,8.33203125 C64.5351572,8.29296855 64.7148429,8.32812445 64.8789062,8.4375 C65.0429696,8.54687555 65.1484373,8.70312398 65.1953125,8.90625 C65.8203156,12.3593923 66.1874995,15.484361 66.296875,18.28125 Z M54.7890625,5.2734375 C54.7890625,5.11718672 54.7109383,5.0390625 54.5546875,5.0390625 L52.4921875,5.0390625 C52.3359367,5.0390625 52.2578125,5.11718672 52.2578125,5.2734375 L52.2578125,14.625 C52.2578125,14.7812508 52.3359367,14.859375 52.4921875,14.859375 L54.5546875,14.859375 C54.7109383,14.859375 54.7890625,14.7812508 54.7890625,14.625 L54.7890625,5.2734375 Z M54.2734375,3.421875 C54.8359403,3.421875 55.3164043,3.62109176 55.7148438,4.01953125 C56.1132832,4.41797074 56.3125,4.89843469 56.3125,5.4609375 L56.3125,14.4375 C56.3125,15.0156279 56.1132832,15.499998 55.7148438,15.890625 C55.3164043,16.281252 54.8359403,16.4765625 54.2734375,16.4765625 L52.46875,16.4765625 C52.3281243,16.4765625 52.2578125,16.5468743 52.2578125,16.6875 L52.2578125,17.765625 C52.2578125,17.9843761 52.1835945,18.167968 52.0351562,18.3164062 C51.886718,18.4648445 51.7109385,18.5390625 51.5078125,18.5390625 C51.3046865,18.5390625 51.128907,18.4648445 50.9804688,18.3164062 C50.8320305,18.167968 50.7578125,17.9843761 50.7578125,17.765625 L50.7578125,5.4609375 C50.7578125,4.89843469 50.9570293,4.41797074 51.3554688,4.01953125 C51.7539082,3.62109176 52.2343722,3.421875 52.796875,3.421875 L54.2734375,3.421875 Z M62.6875,11.9296875 C62.7187502,12.1484386 62.6835943,12.3554678 62.5820312,12.5507812 C62.4804682,12.7460947 62.328126,12.8828121 62.125,12.9609375 L60.7890625,13.5234375 C60.6484368,13.5859378 60.578125,13.6953117 60.578125,13.8515625 L60.578125,20.8359375 C60.578125,21.2890648 60.5195318,21.64453 60.4023438,21.9023438 C60.2851557,22.1601575 60.0937513,22.3515619 59.828125,22.4765625 C59.4531231,22.6796885 58.8281294,22.7890624 57.953125,22.8046875 L57.9296875,22.8046875 C57.6953113,22.8046875 57.4921884,22.7343757 57.3203125,22.59375 C57.1171865,22.4374992 56.9843753,22.2421887 56.921875,22.0078125 C56.8593747,21.8203116 56.882812,21.6445321 56.9921875,21.4804688 C57.101563,21.3164054 57.2578115,21.234375 57.4609375,21.234375 L58.6328125,21.234375 C58.7734382,21.2187499 58.8710935,21.1875002 58.9257812,21.140625 C58.980469,21.0937498 59.0078125,20.9921883 59.0078125,20.8359375 L59.0078125,14.484375 C59.0078125,14.4374998 58.9843752,14.3984377 58.9375,14.3671875 C58.8906248,14.3359373 58.8437502,14.3281249 58.796875,14.34375 C58.5781239,14.4375005 58.2343773,14.5781241 57.765625,14.765625 C57.5468739,14.8593755 57.3320323,14.8554693 57.1210938,14.7539062 C56.9101552,14.6523432 56.7734378,14.4921886 56.7109375,14.2734375 C56.6796873,14.179687 56.6640625,14.0937504 56.6640625,14.015625 C56.6640625,13.8749993 56.6953122,13.7421881 56.7578125,13.6171875 C56.867188,13.4140615 57.0312489,13.2656255 57.25,13.171875 C57.5625016,13.0624995 58.0781214,12.8750013 58.796875,12.609375 C58.9375007,12.5624998 59.0078125,12.4609383 59.0078125,12.3046875 L59.0078125,7.59375 C59.0078125,7.43749922 58.9296883,7.359375 58.7734375,7.359375 L57.53125,7.359375 C57.3124989,7.359375 57.128907,7.28515699 56.9804688,7.13671875 C56.8320305,6.98828051 56.7578125,6.80468859 56.7578125,6.5859375 C56.7578125,6.36718641 56.8320305,6.18359449 56.9804688,6.03515625 C57.128907,5.88671801 57.3124989,5.8125 57.53125,5.8125 L58.7734375,5.8125 C58.9296883,5.8125 59.0078125,5.73437578 59.0078125,5.578125 L59.0078125,1.7578125 C59.0078125,1.53906141 59.0859367,1.35546949 59.2421875,1.20703125 C59.3984383,1.05859301 59.5820302,0.984375 59.7929688,0.984375 C60.0039073,0.984375 60.1874992,1.05859301 60.34375,1.20703125 C60.5000008,1.35546949 60.578125,1.53906141 60.578125,1.7578125 L60.578125,5.6015625 C60.578125,5.7421882 60.6406244,5.8125 60.765625,5.8125 L61.796875,5.8125 C62.0156261,5.8125 62.2031242,5.88671801 62.359375,6.03515625 C62.5156258,6.18359449 62.59375,6.36718641 62.59375,6.5859375 C62.59375,6.80468859 62.5156258,6.98828051 62.359375,7.13671875 C62.2031242,7.28515699 62.0156261,7.359375 61.796875,7.359375 L60.765625,7.359375 C60.6406244,7.359375 60.578125,7.4296868 60.578125,7.5703125 L60.578125,11.7421875 C60.578125,11.7890627 60.5976561,11.8281248 60.6367188,11.859375 C60.6757814,11.8906252 60.7187498,11.8984376 60.765625,11.8828125 L61.8203125,11.4609375 C62.0078134,11.3828121 62.1874991,11.3945307 62.359375,11.4960938 C62.5312509,11.5976568 62.6406248,11.7421866 62.6875,11.9296875 Z M62.265625,21.796875 C62.1093742,21.6406242 62.03125,21.4531261 62.03125,21.234375 C62.03125,21.0156239 62.1093742,20.8281258 62.265625,20.671875 C62.4218758,20.5156242 62.6093739,20.4375 62.828125,20.4375 L71.171875,20.4375 C71.3906261,20.4375 71.5781242,20.5156242 71.734375,20.671875 C71.8906258,20.8281258 71.96875,21.0156239 71.96875,21.234375 C71.96875,21.4531261 71.8906258,21.6406242 71.734375,21.796875 C71.5781242,21.9531258 71.3906261,22.03125 71.171875,22.03125 L62.828125,22.03125 C62.6093739,22.03125 62.4218758,21.9531258 62.265625,21.796875 Z" id="啦" fill="#4A4A4A"></path>
                </g>
                <g id="Group-40" transform="translate(91.000000, 0.000000)">
                    <path d="M78.896,8.592 C78.896,8.808 79.112,9 79.46,9 L81.896,9 C83.24,9 84.284,8.34 84.284,6.48 L84.284,6.252 C84.284,5.028 83.792,4.536 83.048,4.248 C83.672,3.972 84.068,3.3 84.068,2.304 C84.068,0.612 82.928,0.228 81.644,0.228 L79.46,0.228 C79.172,0.228 78.896,0.372 78.896,0.648 L78.896,8.592 Z M80.156,7.872 L80.156,4.752 L81.656,4.752 C82.508,4.752 83.012,5.136 83.012,6.192 L83.012,6.384 C83.012,7.416 82.508,7.872 81.656,7.872 L80.156,7.872 Z M80.156,1.356 L81.56,1.356 C82.316,1.356 82.796,1.704 82.796,2.508 C82.796,3.324 82.4,3.744 81.584,3.744 L80.156,3.744 L80.156,1.356 Z M87.68,3.24 C86.3,3.24 85.184,4.308 85.184,5.568 L85.184,6.708 C85.184,8.136 86.336,9.096 87.968,9.096 C89.18,9.096 89.96,8.544 89.96,8.184 C89.96,7.968 89.768,7.62 89.468,7.62 C89.144,7.62 88.856,8.076 88.004,8.076 C87.08,8.076 86.444,7.572 86.444,6.768 L86.444,6.492 L88.976,6.492 C89.516,6.492 90.068,6.456 90.068,5.46 C90.068,4.152 88.964,3.24 87.68,3.24 Z M86.444,5.712 L86.444,5.328 C86.444,4.668 87.008,4.2 87.668,4.2 C88.352,4.2 88.88,4.716 88.88,5.352 C88.88,5.64 88.784,5.712 88.436,5.712 L86.444,5.712 Z M92.336,4.248 L93.8,4.248 C94.016,4.248 94.148,4.02 94.148,3.78 C94.148,3.54 94.016,3.312 93.8,3.312 L92.336,3.312 L92.336,1.116 C92.336,0.876 92.012,0.708 91.7,0.708 C91.4,0.708 91.076,0.876 91.076,1.116 L91.076,7.128 C91.076,8.436 91.808,9 93.176,9 L93.596,9 C93.956,9 94.136,8.736 94.136,8.46 C94.136,8.184 93.956,7.92 93.596,7.92 L93.176,7.92 C92.552,7.92 92.336,7.704 92.336,7.128 L92.336,4.248 Z M96.848,3.24 C96.032,3.24 95.036,3.576 95.036,4.008 C95.036,4.296 95.192,4.644 95.492,4.644 C95.732,4.644 95.948,4.284 96.824,4.284 C97.7,4.284 98.012,4.968 98.012,5.58 L98.012,5.796 L97.484,5.796 C95.816,5.796 94.676,6.156 94.676,7.512 C94.676,8.592 95.396,9.096 96.272,9.096 C97.088,9.096 97.664,8.652 98.084,8.16 L98.084,8.58 C98.084,8.808 98.336,9 98.66,9 C99.008,9 99.272,8.808 99.272,8.58 L99.272,5.568 C99.272,4.368 98.612,3.24 96.848,3.24 Z M98.012,6.936 C98.012,7.512 97.328,8.136 96.728,8.136 C96.284,8.136 95.948,7.896 95.948,7.356 C95.948,6.588 96.8,6.492 97.712,6.492 L98.012,6.492 L98.012,6.936 Z" id="Beta" fill="#4990E2"></path>
                    <path d="M9.426,31 C9.888,31 10.35,30.78 10.35,30.34 L10.35,15.556 C10.35,15.116 9.888,14.918 9.426,14.918 C8.964,14.918 8.502,15.116 8.502,15.556 L8.502,26.798 L3.024,16.084 C2.628,15.314 2.276,14.918 1.616,14.918 C1.132,14.918 0.692,15.094 0.692,15.556 L0.692,30.34 C0.692,30.78 1.154,31 1.616,31 C2.078,31 2.54,30.78 2.54,30.34 L2.54,19.098 L8.26,30.164 C8.524,30.648 8.92,31 9.426,31 Z M18.05,31.132 C20.712,31.132 22.802,29.834 22.802,26.336 L22.802,19.714 C22.802,16.216 20.712,14.918 18.05,14.918 C15.388,14.918 13.32,16.216 13.32,19.714 L13.32,26.336 C13.32,29.834 15.388,31.132 18.05,31.132 Z M20.954,26.336 C20.954,28.47 19.854,29.46 18.05,29.46 C16.246,29.46 15.168,28.47 15.168,26.336 L15.168,19.714 C15.168,17.58 16.246,16.59 18.05,16.59 C19.854,16.59 20.954,17.58 20.954,19.714 L20.954,26.336 Z M25.09,14.918 C24.716,14.918 24.54,15.27 24.54,15.6 C24.54,15.952 24.738,16.282 25.09,16.282 L28.786,16.282 L28.786,30.428 C28.786,30.802 29.138,31 29.512,31 C29.864,31 30.238,30.802 30.238,30.428 L30.238,16.282 L33.912,16.282 C34.286,16.282 34.462,15.93 34.462,15.578 C34.462,15.248 34.286,14.918 33.912,14.918 L25.09,14.918 Z M36.09,31 C36.354,31 36.596,30.89 36.662,30.626 L37.674,27.238 L43.768,27.238 L44.78,30.626 C44.868,30.89 45.088,31 45.33,31 C45.726,31 46.21,30.714 46.21,30.362 C46.21,30.318 46.188,30.274 46.188,30.23 L41.612,15.292 C41.502,14.962 41.128,14.786 40.732,14.786 C40.358,14.786 39.984,14.94 39.874,15.292 L35.276,30.23 C35.254,30.274 35.254,30.34 35.254,30.384 C35.254,30.758 35.716,31 36.09,31 Z M38.048,25.984 L40.732,17.118 L43.394,25.984 L38.048,25.984 Z M48.344,30.45 C48.344,30.736 48.586,31 49.004,31 L53.14,31 C55.582,31 57.496,29.812 57.496,26.468 L57.496,26.072 C57.496,23.828 56.572,22.838 55.23,22.288 C56.352,21.804 57.1,20.506 57.1,18.658 C57.1,15.556 55.076,14.918 52.612,14.918 L49.004,14.918 C48.674,14.918 48.344,15.094 48.344,15.468 L48.344,30.45 Z M49.774,29.658 L49.774,22.904 L52.964,22.904 C54.878,22.904 56.044,23.74 56.044,26.028 L56.044,26.402 C56.044,28.668 54.878,29.658 52.964,29.658 L49.774,29.658 Z M49.774,16.26 L52.568,16.26 C54.372,16.26 55.648,16.788 55.648,18.812 C55.648,20.902 54.68,21.65 52.656,21.65 L49.774,21.65 L49.774,16.26 Z M67.902,31 C68.232,31 68.386,30.67 68.386,30.318 C68.386,29.988 68.232,29.658 67.902,29.658 L61.632,29.658 L61.632,15.446 C61.632,15.072 61.258,14.918 60.906,14.918 C60.532,14.918 60.18,15.072 60.18,15.446 L60.18,30.428 C60.18,30.802 60.51,31 60.84,31 L67.902,31 Z M71.818,16.26 L78.858,16.26 C79.21,16.26 79.408,15.93 79.408,15.556 C79.408,15.248 79.254,14.918 78.858,14.918 L71.026,14.918 C70.696,14.918 70.366,15.094 70.366,15.468 L70.366,30.428 C70.366,30.802 70.696,31 71.026,31 L78.858,31 C79.254,31 79.408,30.648 79.408,30.34 C79.408,29.988 79.21,29.658 78.858,29.658 L71.818,29.658 L71.818,23.564 L75.272,23.564 C75.668,23.564 75.822,23.256 75.822,22.97 C75.822,22.618 75.624,22.31 75.272,22.31 L71.818,22.31 L71.818,16.26 Z" id="NOTABLE" fill="#4A4A4A"></path>
                </g>
            </g>
        </g>
    </g>
</svg>