<?xml version="1.0" encoding="UTF-8"?>
<svg width="1484px" height="129px" viewBox="0 0 1484 129" version="1.1" xmlns="http://www.w3.org/2000/svg" xmlns:xlink="http://www.w3.org/1999/xlink">
    <!-- Generator: Sketch 41.2 (35397) - http://www.bohemiancoding.com/sketch -->
    <title>Group 29</title>
    <desc>Created with Sketch.</desc>
    <defs>
        <rect id="path-1" x="0" y="0" width="68" height="106"></rect>
        <rect id="path-3" x="0" y="0" width="68" height="106"></rect>
    </defs>
    <g id="Page-1" stroke="none" stroke-width="1" fill="none" fill-rule="evenodd">
        <g id="Group-29">
            <g id="chair" transform="translate(372.576923, 25.666667)">
                <g id="Capa_1">
                    <g id="Group">
                        <path d="M56.25,57.8125 C56.25,56.09375 54.84375,54.6875 53.125,54.6875 L3.125,54.6875 C1.40625,54.6875 0,56.09375 0,57.8125 L0,60.9375 C0,62.65625 1.40625,64.0625 3.125,64.0625 L53.125,64.0625 C54.84375,64.0625 56.25,62.65625 56.25,60.9375 L56.25,57.8125 Z" id="Shape" fill="#AF6328"></path>
                        <path d="M46.875,98.4375 C46.875,99.296875 47.578125,100 48.4375,100 L51.5625,100 C52.421875,100 53.125,99.296875 53.125,98.4375 L53.125,64.0625 L46.875,64.0625 L46.875,98.4375 Z" id="Shape" fill="#A25425"></path>
                        <path d="M3.125,98.4375 C3.125,99.296875 3.828125,100 4.6875,100 L7.8125,100 C8.671875,100 9.375,99.296875 9.375,98.4375 L9.375,64.0625 L3.125,64.0625 L3.125,98.4375 Z" id="Shape" fill="#A25425"></path>
                        <rect id="Rectangle-path" fill="#7F4122" x="46.875" y="64.0625" width="6.25" height="3.125"></rect>
                        <rect id="Rectangle-path" fill="#7F4122" x="3.125" y="64.0625" width="6.25" height="3.125"></rect>
                        <rect id="Rectangle-path" fill="#7F4122" x="9.375" y="68.75" width="37.5" height="3.125"></rect>
                        <path d="M48.4375,0 L7.8125,0 C6.08671875,0 4.6875,1.39902344 4.6875,3.125 L4.6875,7.8125 C4.6875,9.53828125 6.08671875,10.9375 7.8125,10.9375 L8.59375,10.9375 C9.88808594,10.9375 10.9375,11.9867187 10.9375,13.28125 L10.9375,53.125 L10.9375,54.6875 L14.0625,54.6875 L17.1875,54.6875 L20.3125,54.6875 L23.4375,54.6875 L26.5625,54.6875 L29.6875,54.6875 L32.8125,54.6875 L35.9375,54.6875 L39.0625,54.6875 L42.1875,54.6875 L43.75,54.6875 L45.3125,54.6875 L45.3125,13.28125 C45.3125,11.9867187 46.3619141,10.9375 47.65625,10.9375 L48.4375,10.9375 C50.1632813,10.9375 51.5625,9.53828125 51.5625,7.8125 L51.5625,3.125 C51.5625,1.39902344 50.1632813,0 48.4375,0 Z M40.625,51.5625 C39.7621094,51.5625 39.0625,50.8628906 39.0625,50 L39.0625,15.625 C39.0625,14.7621094 39.7621094,14.0625 40.625,14.0625 C41.4878906,14.0625 42.1875,14.7621094 42.1875,15.625 L42.1875,50 C42.1875,50.8628906 41.4878906,51.5625 40.625,51.5625 Z M34.375,51.5625 C33.5121094,51.5625 32.8125,50.8628906 32.8125,50 L32.8125,15.625 C32.8125,14.7621094 33.5121094,14.0625 34.375,14.0625 C35.2378906,14.0625 35.9375,14.7621094 35.9375,15.625 L35.9375,50 C35.9375,50.8628906 35.2378906,51.5625 34.375,51.5625 Z M28.125,51.5625 C27.2621094,51.5625 26.5625,50.8628906 26.5625,50 L26.5625,15.625 C26.5625,14.7621094 27.2621094,14.0625 28.125,14.0625 C28.9878906,14.0625 29.6875,14.7621094 29.6875,15.625 L29.6875,50 C29.6875,50.8628906 28.9878906,51.5625 28.125,51.5625 Z M21.875,51.5625 C21.0121094,51.5625 20.3125,50.8628906 20.3125,50 L20.3125,15.625 C20.3125,14.7621094 21.0121094,14.0625 21.875,14.0625 C22.7378906,14.0625 23.4375,14.7621094 23.4375,15.625 L23.4375,50 C23.4375,50.8628906 22.7378906,51.5625 21.875,51.5625 Z M15.625,51.5625 C14.7621094,51.5625 14.0625,50.8628906 14.0625,50 L14.0625,15.625 C14.0625,14.7621094 14.7621094,14.0625 15.625,14.0625 C16.4878906,14.0625 17.1875,14.7621094 17.1875,15.625 L17.1875,50 C17.1875,50.8628906 16.4878906,51.5625 15.625,51.5625 Z" id="Shape" fill="#7F4122"></path>
                    </g>
                </g>
            </g>
            <g id="chair" transform="translate(988.875000, 25.666667)">
                <g id="Capa_1">
                    <g id="Group">
                        <path d="M56.25,57.8125 C56.25,56.09375 54.84375,54.6875 53.125,54.6875 L3.125,54.6875 C1.40625,54.6875 0,56.09375 0,57.8125 L0,60.9375 C0,62.65625 1.40625,64.0625 3.125,64.0625 L53.125,64.0625 C54.84375,64.0625 56.25,62.65625 56.25,60.9375 L56.25,57.8125 Z" id="Shape" fill="#AF6328"></path>
                        <path d="M46.875,98.4375 C46.875,99.296875 47.578125,100 48.4375,100 L51.5625,100 C52.421875,100 53.125,99.296875 53.125,98.4375 L53.125,64.0625 L46.875,64.0625 L46.875,98.4375 Z" id="Shape" fill="#A25425"></path>
                        <path d="M3.125,98.4375 C3.125,99.296875 3.828125,100 4.6875,100 L7.8125,100 C8.671875,100 9.375,99.296875 9.375,98.4375 L9.375,64.0625 L3.125,64.0625 L3.125,98.4375 Z" id="Shape" fill="#A25425"></path>
                        <rect id="Rectangle-path" fill="#7F4122" x="46.875" y="64.0625" width="6.25" height="3.125"></rect>
                        <rect id="Rectangle-path" fill="#7F4122" x="3.125" y="64.0625" width="6.25" height="3.125"></rect>
                        <rect id="Rectangle-path" fill="#7F4122" x="9.375" y="68.75" width="37.5" height="3.125"></rect>
                        <path d="M48.4375,0 L7.8125,0 C6.08671875,0 4.6875,1.39902344 4.6875,3.125 L4.6875,7.8125 C4.6875,9.53828125 6.08671875,10.9375 7.8125,10.9375 L8.59375,10.9375 C9.88808594,10.9375 10.9375,11.9867187 10.9375,13.28125 L10.9375,53.125 L10.9375,54.6875 L14.0625,54.6875 L17.1875,54.6875 L20.3125,54.6875 L23.4375,54.6875 L26.5625,54.6875 L29.6875,54.6875 L32.8125,54.6875 L35.9375,54.6875 L39.0625,54.6875 L42.1875,54.6875 L43.75,54.6875 L45.3125,54.6875 L45.3125,13.28125 C45.3125,11.9867187 46.3619141,10.9375 47.65625,10.9375 L48.4375,10.9375 C50.1632813,10.9375 51.5625,9.53828125 51.5625,7.8125 L51.5625,3.125 C51.5625,1.39902344 50.1632813,0 48.4375,0 Z M40.625,51.5625 C39.7621094,51.5625 39.0625,50.8628906 39.0625,50 L39.0625,15.625 C39.0625,14.7621094 39.7621094,14.0625 40.625,14.0625 C41.4878906,14.0625 42.1875,14.7621094 42.1875,15.625 L42.1875,50 C42.1875,50.8628906 41.4878906,51.5625 40.625,51.5625 Z M34.375,51.5625 C33.5121094,51.5625 32.8125,50.8628906 32.8125,50 L32.8125,15.625 C32.8125,14.7621094 33.5121094,14.0625 34.375,14.0625 C35.2378906,14.0625 35.9375,14.7621094 35.9375,15.625 L35.9375,50 C35.9375,50.8628906 35.2378906,51.5625 34.375,51.5625 Z M28.125,51.5625 C27.2621094,51.5625 26.5625,50.8628906 26.5625,50 L26.5625,15.625 C26.5625,14.7621094 27.2621094,14.0625 28.125,14.0625 C28.9878906,14.0625 29.6875,14.7621094 29.6875,15.625 L29.6875,50 C29.6875,50.8628906 28.9878906,51.5625 28.125,51.5625 Z M21.875,51.5625 C21.0121094,51.5625 20.3125,50.8628906 20.3125,50 L20.3125,15.625 C20.3125,14.7621094 21.0121094,14.0625 21.875,14.0625 C22.7378906,14.0625 23.4375,14.7621094 23.4375,15.625 L23.4375,50 C23.4375,50.8628906 22.7378906,51.5625 21.875,51.5625 Z M15.625,51.5625 C14.7621094,51.5625 14.0625,50.8628906 14.0625,50 L14.0625,15.625 C14.0625,14.7621094 14.7621094,14.0625 15.625,14.0625 C16.4878906,14.0625 17.1875,14.7621094 17.1875,15.625 L17.1875,50 C17.1875,50.8628906 16.4878906,51.5625 15.625,51.5625 Z" id="Shape" fill="#7F4122"></path>
                    </g>
                </g>
            </g>
            <g id="elegant-1" transform="translate(1062.000000, 25.666667)">
                <g id="Layer_1">
                    <path d="M54.4289474,12.2944737 C46.1681579,14.4989474 37.4613158,14.4989474 29.2028947,12.2944737 C32.8547368,25.4057895 34.8455263,39.2092105 34.8455263,53.4844737 C34.8455263,54.2626316 34.7989474,55.0315789 34.7873684,55.8076316 L48.8442105,55.8076316 C48.8302632,55.0318421 48.7836842,54.2628947 48.7836842,53.4844737 C48.7839474,39.2094737 50.775,25.4057895 54.4289474,12.2944737 Z" id="Shape" fill="#FF8F00"></path>
                    <g id="Group" transform="translate(23.421053, 10.263158)" fill="#FFCC80">
                        <path d="M32.3321053,54.7692105 L32.3321053,47.8673684 L4.45552632,47.8673684 L4.45552632,54.7692105 C13.6036842,52.4671053 23.1839474,52.4671053 32.3321053,54.7692105 Z" id="Shape"></path>
                        <path d="M31.8418421,1.82921053 L30.1971053,43.2213158 L6.58789474,43.2213158 L4.94552632,1.82684211 C4.47394737,1.68973684 2.985,1.325 0.243684211,0.228684211 L2.13236842,45.5444737 L34.6552632,45.5444737 L36.5439474,0.231052632 C33.8026316,1.32763158 32.4971053,1.63657895 31.8418421,1.82921053 Z" id="Shape"></path>
                    </g>
                    <path d="M55.5557895,0.0544736842 L28.0742105,0.0544736842 C25.4328947,0.0544736842 23.3213158,2.25447368 23.4326316,4.89342105 L23.6534211,10.78 C35.2778947,15.4331579 48.3265789,15.4331579 59.9534211,10.78 L60.1973684,4.89342105 C60.3086842,2.25447368 58.1971053,0.0544736842 55.5557895,0.0544736842 Z" id="Shape" fill="#FFE0B2"></path>
                    <g id="Group" transform="translate(25.526316, 57.894737)" fill="#FFB74D">
                        <polygon id="Shape" points="2.35026316 42.0507895 0.0271052632 42.0507895 0.0271052632 0.236052632 4.67342105 0.236052632"></polygon>
                        <polygon id="Shape" points="30.2268421 42.0507895 32.55 42.0507895 32.55 0.236052632 27.9036842 0.236052632"></polygon>
                    </g>
                    <path d="M23.2305263,58.1307895 C23.2305263,55.5639474 25.3097368,53.4847368 27.8765789,53.4847368 L55.7531579,53.4847368 C58.32,53.4847368 60.3992105,55.5639474 60.3992105,58.1307895 L23.2305263,58.1307895 L23.2305263,58.1307895 Z" id="Shape" fill="#FF6D00"></path>
                    <path d="M105.536053,12.2944737 C97.2752632,14.4989474 88.5684211,14.4989474 80.31,12.2944737 C83.9618421,25.4057895 85.9526316,39.2092105 85.9526316,53.4844737 C85.9526316,54.2626316 85.9060526,55.0315789 85.8944737,55.8076316 L99.9513158,55.8076316 C99.9373684,55.0318421 99.8910526,54.2628947 99.8910526,53.4844737 C99.8910526,39.2094737 101.881842,25.4057895 105.536053,12.2944737 Z" id="Shape" fill="#FF8F00"></path>
                    <g id="Group" transform="translate(74.736842, 10.263158)" fill="#FFCC80">
                        <path d="M32.1234211,54.7692105 L32.1234211,47.8673684 L4.24684211,47.8673684 L4.24684211,54.7692105 C13.395,52.4671053 22.9752632,52.4671053 32.1234211,54.7692105 Z" id="Shape"></path>
                        <path d="M31.6331579,1.82921053 L29.9884211,43.2213158 L6.37921053,43.2213158 L4.73684211,1.82684211 C4.26526316,1.68973684 2.77605263,1.325 0.035,0.228684211 L1.92368421,45.5444737 L34.4463158,45.5444737 L36.335,0.231052632 C33.5939474,1.32763158 32.2884211,1.63657895 31.6331579,1.82921053 Z" id="Shape"></path>
                    </g>
                    <path d="M106.662895,0.0544736842 L79.1813158,0.0544736842 C76.54,0.0544736842 74.4284211,2.25447368 74.5397368,4.89342105 L74.7605263,10.78 C86.385,15.4331579 99.4336842,15.4331579 111.060526,10.78 L111.306842,4.89342105 C111.415789,2.25447368 109.304211,0.0544736842 106.662895,0.0544736842 Z" id="Shape" fill="#FFE0B2"></path>
                    <g id="Group" transform="translate(76.578947, 57.894737)" fill="#FFB74D">
                        <polygon id="Shape" points="2.40473684 42.0507895 0.0815789474 42.0507895 0.0815789474 0.236052632 4.72789474 0.236052632"></polygon>
                        <polygon id="Shape" points="30.2813158 42.0507895 32.6044737 42.0507895 32.6044737 0.236052632 27.9581579 0.236052632"></polygon>
                    </g>
                    <path d="M74.3376316,58.1307895 C74.3376316,55.5639474 76.4168421,53.4847368 78.9836842,53.4847368 L106.860263,53.4847368 C109.427105,53.4847368 111.506316,55.5639474 111.506316,58.1307895 L74.3376316,58.1307895 L74.3376316,58.1307895 Z" id="Shape" fill="#FF6D00"></path>
                    <rect id="Rectangle-path" fill="#FFE0B2" x="0" y="32.5771053" width="134.736842" height="4.64605263"></rect>
                    <rect id="Rectangle-path" fill="#FFCC80" x="9.29210526" y="37.2231579" width="116.152368" height="9.29210526"></rect>
                    <g id="Group" transform="translate(9.210526, 37.105263)" fill="#FFB74D">
                        <rect id="Rectangle-path" x="37.2505263" y="0.117894737" width="41.815" height="6.96921053"></rect>
                        <polygon id="Shape" points="4.72789474 62.8402632 0.0815789474 62.8402632 0.0815789474 0.117894737 7.05078947 0.117894737"></polygon>
                        <polygon id="Shape" points="111.587895 62.8402632 116.234211 62.8402632 116.234211 0.117894737 109.265 0.117894737"></polygon>
                    </g>
                </g>
            </g>
            <g id="restaurant" transform="translate(240.333333, 40.666667)">
                <g id="Layer_1">
                    <g id="Group">
                        <polygon id="Shape" fill="#CCCCCC" points="37.5560897 0.0868055556 33.5657051 7.92601496 17.3592415 15.8277244 7.56143162 7.92601496 3.57104701 0.0868055556"></polygon>
                        <polygon id="Shape" fill="#CCCCCC" points="107.000534 0.0868055556 103.01015 7.92601496 89.7417201 12.0884081 77.0058761 7.92601496 73.0154915 0.0868055556"></polygon>
                        <polygon id="Shape" fill="#E6E6E6" points="37.5560897 0.0868055556 33.5657051 7.92601496 14.2387821 7.92601496 10.2483974 0.0868055556"></polygon>
                        <polygon id="Shape" fill="#E6E6E6" points="107.000534 0.0868055556 103.01015 7.92601496 83.6832265 7.92601496 79.6928419 0.0868055556"></polygon>
                        <polyline id="Shape" fill="#F24125" points="66.2473291 24.7502671 77.9887821 36.4917201 89.730235 24.7502671 66.2473291 24.7502671"></polyline>
                        <polyline id="Shape" fill="#9E3B2B" points="89.730235 24.7502671 79.0579594 16.8961004 66.2473291 24.7502671 77.9887821 36.4917201 89.730235 24.7502671"></polyline>
                        <polyline id="Shape" fill="#F7B239" points="93.1463675 24.7502671 93.1463675 83.2411859 101.957799 83.2411859 105.112179 31.9618056 105.555556 24.7502671 99.8912927 19.5670406 93.1463675 24.7502671"></polyline>
                        <polyline id="Shape" fill="#F7B239" points="5.01602564 24.7502671 5.45940171 31.9618056 8.61378205 83.2411859 17.4278846 83.2411859 17.4278846 24.7502671 10.414797 19.0328526 5.01602564 24.7502671"></polyline>
                        <polygon id="Shape" fill="#F7B239" points="103.01015 7.92601496 77.0058761 7.92601496 58.6252671 7.92601496 28.8442842 12.3555021 12.4492521 7.92601496 0 7.92601496 0 24.7502671 5.01602564 24.7502671 29.2735043 24.7502671 76.9310897 24.7502671 89.730235 24.7502671 93.1463675 24.7502671 105.555556 24.7502671 110.571581 24.7502671 110.571581 7.92601496"></polygon>
                        <polyline id="Shape" fill="#E5A030" points="17.4278846 24.7502671 5.01602564 24.7502671 5.45940171 31.9618056 17.4278846 31.9618056 17.4278846 24.7502671"></polyline>
                        <polyline id="Shape" fill="#E5A030" points="105.555556 24.7502671 93.1463675 24.7502671 93.1463675 31.9618056 105.112179 31.9618056 105.555556 24.7502671"></polyline>
                        <polygon id="Shape" fill="#F24125" points="12.4492521 7.92601496 29.2735043 24.7502671 35.6730769 31.1498397 42.0726496 24.7502671 58.8995726 7.92601496 33.5657051 7.92601496"></polygon>
                    </g>
                </g>
            </g>
            <g id="table-1" transform="translate(94.000000, 0.000000)">
                <g id="Capa_1">
                    <path d="M61.3333333,39.1923077 C60.168,39.1923077 59.2222222,38.1034615 59.2222222,36.7564103 L59.2222222,17.2692308 C59.2222222,15.9221795 60.168,14.8333333 61.3333333,14.8333333 C62.4986667,14.8333333 63.4444444,15.9221795 63.4444444,17.2692308 L63.4444444,36.7564103 C63.4444444,38.1034615 62.4986667,39.1923077 61.3333333,39.1923077 Z" id="Shape" fill="#88C057"></path>
                    <path d="M61.3333333,34.3205128 C60.7928889,34.3205128 60.2524444,34.0817949 59.8407778,33.6067949 L55.6185556,28.735 C54.7931111,27.7825641 54.7931111,26.2430769 55.6185556,25.290641 C56.444,24.3382051 57.7782222,24.3382051 58.6036667,25.290641 L62.8258889,30.1624359 C63.6513333,31.1148718 63.6513333,32.654359 62.8258889,33.6067949 C62.4142222,34.0842308 61.8737778,34.3205128 61.3333333,34.3205128 Z" id="Shape" fill="#88C057"></path>
                    <path d="M61.3333333,29.4487179 C60.7928889,29.4487179 60.2524444,29.21 59.8407778,28.735 C59.0153333,27.7825641 59.0153333,26.2430769 59.8407778,25.290641 L64.063,20.4188462 C64.8884444,19.4664103 66.2226667,19.4664103 67.0481111,20.4188462 C67.8735556,21.3712821 67.8735556,22.9107692 67.0481111,23.8632051 L62.8258889,28.735 C62.4142222,29.2124359 61.8737778,29.4487179 61.3333333,29.4487179 Z" id="Shape" fill="#88C057"></path>
                    <path d="M120.444444,124.448718 C119.545111,124.448718 118.713333,123.783718 118.430444,122.738718 L107.874889,83.764359 C107.526556,82.4830769 108.147222,81.1141026 109.259778,80.7146154 C110.368111,80.3102564 111.556667,81.0264103 111.905,82.3125641 L122.460556,121.286923 C122.808889,122.568205 122.188222,123.937179 121.075667,124.336667 C120.864556,124.414615 120.653444,124.448718 120.444444,124.448718 Z" id="Shape" fill="#553323"></path>
                    <path d="M99.3354444,124.448718 C99.1644444,124.448718 98.9934444,124.424359 98.8203333,124.375641 C97.6887778,124.049231 97.0026667,122.726538 97.2834444,121.423333 L105.727889,82.4489744 C106.012889,81.1433333 107.163444,80.3541026 108.288667,80.675641 C109.420222,81.0020513 110.106333,82.3247436 109.825556,83.6279487 L101.381111,122.602308 C101.142556,123.713077 100.281222,124.448718 99.3354444,124.448718 Z" id="Shape" fill="#553323"></path>
                    <path d="M23.3333333,124.448718 C22.434,124.448718 21.6022222,123.783718 21.3193333,122.738718 L10.7637778,83.764359 C10.4154444,82.4830769 11.0361111,81.1141026 12.1486667,80.7146154 C13.257,80.3102564 14.4455556,81.0264103 14.7938889,82.3125641 L25.3494444,121.286923 C25.6977778,122.568205 25.0771111,123.937179 23.9645556,124.336667 C23.7534444,124.414615 23.5423333,124.448718 23.3333333,124.448718 Z" id="Shape" fill="#553323"></path>
                    <path d="M2.22433333,124.448718 C2.05333333,124.448718 1.88233333,124.424359 1.70922222,124.375641 C0.577666667,124.049231 -0.108444444,122.726538 0.172333333,121.423333 L8.61677778,82.4489744 C8.89966667,81.1433333 10.0481111,80.3541026 11.1775556,80.675641 C12.3091111,81.0020513 12.9952222,82.3247436 12.7144444,83.6279487 L4.27,122.602308 C4.03144444,123.713077 3.17011111,124.448718 2.22433333,124.448718 Z" id="Shape" fill="#553323"></path>
                    <path d="M38.1111111,122.012821 L84.5555556,122.012821 C74.0612222,122.012821 65.5555556,112.19859 65.5555556,100.089744 L65.5555556,78.1666667 L71.8888889,78.1666667 L71.8888889,68.4230769 L50.7777778,68.4230769 L50.7777778,78.1666667 L57.1111111,78.1666667 L57.1111111,100.089744 C57.1111111,112.19859 48.6054444,122.012821 38.1111111,122.012821 Z" id="Shape" fill="#C7CAC7"></path>
                    <path d="M101.535222,58.6794872 L21.1335556,58.6794872 C23.5655556,61.4734615 25.5478889,64.7789744 27.0003333,68.4230769 L95.6663333,68.4230769 C97.1208889,64.7789744 99.1011111,61.4758974 101.535222,58.6794872 Z" id="Shape" fill="#553323"></path>
                    <rect id="Rectangle-path" fill="#C7CAC7" x="27.5555556" y="51.3717949" width="12.6666667" height="7.30769231"></rect>
                    <path d="M44.4444444,53.8076923 L23.3333333,53.8076923 C22.168,53.8076923 21.2222222,52.7188462 21.2222222,51.3717949 C21.2222222,50.0247436 22.168,48.9358974 23.3333333,48.9358974 L44.4444444,48.9358974 C45.6097778,48.9358974 46.5555556,50.0247436 46.5555556,51.3717949 C46.5555556,52.7188462 45.6097778,53.8076923 44.4444444,53.8076923 Z" id="Shape" fill="#C7CAC7"></path>
                    <rect id="Rectangle-path" fill="#C7CAC7" x="82.4444444" y="51.3717949" width="12.6666667" height="7.30769231"></rect>
                    <path d="M99.3333333,53.8076923 L78.2222222,53.8076923 C77.0568889,53.8076923 76.1111111,52.7188462 76.1111111,51.3717949 C76.1111111,50.0247436 77.0568889,48.9358974 78.2222222,48.9358974 L99.3333333,48.9358974 C100.498667,48.9358974 101.444444,50.0247436 101.444444,51.3717949 C101.444444,52.7188462 100.498667,53.8076923 99.3333333,53.8076923 Z" id="Shape" fill="#C7CAC7"></path>
                    <path d="M55.0527778,36.7564103 C53.7122222,40.6367949 52.8888889,40.8779487 52.8888889,46.5 C52.8888889,58.6064103 56.6698889,58.6794872 61.3333333,58.6794872 C65.9967778,58.6794872 69.7777778,58.6064103 69.7777778,46.5 C69.7777778,40.8779487 68.9544444,40.6367949 67.6138889,36.7564103 L55.0527778,36.7564103 Z" id="Shape" fill="#C7CAC7"></path>
                    <path d="M61.3333333,0.217948718 L55,0.217948718 L55,9.96153846 C55,13.9807692 57.85,17.2692308 61.3333333,17.2692308 L61.3333333,0.217948718 Z" id="Shape" fill="#DD352E"></path>
                    <path d="M61.3333333,2.65384615 L67.6666667,2.65384615 L67.6666667,9.96153846 C67.6666667,13.9807692 64.8166667,17.2692308 61.3333333,17.2692308 L61.3333333,2.65384615 Z" id="Shape" fill="#B02721"></path>
                    <path d="M29.6666667,83.0384615 L9.32822222,83.0384615 C4.23833333,83.0384615 0.111111111,78.2787179 0.111111111,72.4057692 L0.111111111,48.9358974 L0.689555556,48.9358974 C16.6938889,48.9358974 29.6666667,63.9069231 29.6666667,82.3710256 L29.6666667,83.0384615 Z" id="Shape" fill="#BFA380"></path>
                    <path d="M93,83.0384615 L113.338444,83.0384615 C118.428333,83.0384615 122.555556,78.2762821 122.555556,72.4033333 L122.555556,48.9358974 L121.977111,48.9358974 C105.974889,48.9358974 93,63.9069231 93,82.3710256 L93,83.0384615 Z" id="Shape" fill="#BFA380"></path>
                    <path d="M93,124.448718 L29.6666667,124.448718 C28.5013333,124.448718 27.5555556,123.359872 27.5555556,122.012821 C27.5555556,120.665769 28.5013333,119.576923 29.6666667,119.576923 L93,119.576923 C94.1653333,119.576923 95.1111111,120.665769 95.1111111,122.012821 C95.1111111,123.359872 94.1653333,124.448718 93,124.448718 Z" id="Shape" fill="#839594"></path>
                    <rect id="Rectangle-path" fill="#839594" x="50.7777778" y="70.8589744" width="21.1111111" height="7.30769231"></rect>
                    <path d="M63.4444444,119.576923 L57.1111111,119.576923 L57.3475556,114.671026 C57.4172222,113.23141 57.7106667,111.828333 58.0843333,110.452051 C58.838,107.689744 59.2222222,104.805641 59.2222222,101.902051 L59.2222222,78.1666667 L61.3333333,78.1666667 L61.3333333,101.902051 C61.3333333,104.805641 61.7175556,107.689744 62.4691111,110.454487 C62.8427778,111.830769 63.1362222,113.233846 63.2058889,114.673462 L63.4444444,119.576923 Z" id="Shape" fill="#E7ECED"></path>
                </g>
            </g>
            <g id="table-2" transform="translate(1210.333333, 74.333333)">
                <g id="Capa_1">
                    <rect id="Rectangle-path" fill="#6B5B4B" x="0" y="8.66091954" width="9.72222222" height="10.0574713"></rect>
                    <rect id="Rectangle-path" fill="#6B5B4B" x="103.055556" y="8.66091954" width="9.72222222" height="10.0574713"></rect>
                    <rect id="Rectangle-path" fill="#BFA380" x="1.94444444" y="18.7183908" width="5.83333333" height="31.6091954"></rect>
                    <rect id="Rectangle-path" fill="#BFA380" x="105" y="18.7183908" width="5.83333333" height="31.6091954"></rect>
                    <path d="M7.77777778,0.614942529 C7.77777778,0.781896552 64.1666667,28.7758621 64.1666667,28.7758621 L106.944444,0.614942529 L7.77777778,0.614942529 Z" id="Shape" fill="#DD352E"></path>
                    <g id="Group" transform="translate(0.000000, 0.609195)" fill="#BFA380">
                        <polygon id="Shape" points="106.944444 0.00574712644 94.7216667 8.05172414 112.777778 8.05172414 112.777778 0.00574712644"></polygon>
                        <path d="M7.77777778,0.00574712644 L0,0.00574712644 L0,8.05172414 L23.7397222,8.05172414 C14.7272222,3.55201149 7.77777778,0.0640804598 7.77777778,0.00574712644 Z" id="Shape"></path>
                    </g>
                </g>
            </g>
            <path d="M1309.07765,53.6809773 C1308.72268,52.9529668 1307.98393,52.4911867 1307.17399,52.4911867 L1291.57137,52.4911867 C1290.76168,52.4911867 1290.02268,52.9532286 1289.6677,53.6809773 C1289.31299,54.4089878 1289.40435,55.2754799 1289.90357,55.913438 L1297.2554,65.3129145 L1297.2554,74.8315009 C1297.2554,76.0013962 1298.20331,76.9490401 1299.37294,76.9490401 C1300.54257,76.9490401 1301.49048,76.0011344 1301.49048,74.8315009 L1301.49048,65.3126527 L1308.84205,55.9131763 C1309.34074,55.2752182 1309.4321,54.408726 1309.07765,53.6809773 Z M1299.37268,61.1458988 L1295.91587,56.7262653 L1302.82922,56.7262653 L1299.37268,61.1458988 Z" id="Shape" fill="#7DD2F0"></path>
            <g id="table-3" transform="translate(453.826923, 11.666667)">
                <g id="Capa_1">
                    <path d="M108.888889,52.125 L3.88888889,52.125 C1.75,52.125 0,50.25 0,47.9583333 L0,47.9583333 C0,45.6666667 1.75,43.7916667 3.88888889,43.7916667 L108.888889,43.7916667 C111.027778,43.7916667 112.777778,45.6666667 112.777778,47.9583333 L112.777778,47.9583333 C112.777778,50.25 111.027778,52.125 108.888889,52.125 Z" id="Shape" fill="#BFA380"></path>
                    <path d="M21.3888889,43.7916667 L5.83333333,43.7916667 C4.76,43.7916667 3.88888889,42.8604167 3.88888889,41.7083333 C3.88888889,40.55625 4.76,39.625 5.83333333,39.625 L21.3888889,39.625 C22.4622222,39.625 23.3333333,40.55625 23.3333333,41.7083333 C23.3333333,42.8604167 22.4622222,43.7916667 21.3888889,43.7916667 Z" id="Shape" fill="#C7CAC7"></path>
                    <path d="M106.944444,43.7916667 L91.3888889,43.7916667 C90.3155556,43.7916667 89.4444444,42.8604167 89.4444444,41.7083333 C89.4444444,40.55625 90.3155556,39.625 91.3888889,39.625 L106.944444,39.625 C108.017778,39.625 108.888889,40.55625 108.888889,41.7083333 C108.888889,42.8604167 108.017778,43.7916667 106.944444,43.7916667 Z" id="Shape" fill="#C7CAC7"></path>
                    <path d="M65.5413889,19.4020833 C64.7811111,18.5875 63.5522222,18.5875 62.7919444,19.4020833 L60.2777778,22.0958333 L60.2777778,14.625 C60.2777778,13.4729167 59.4066667,12.5416667 58.3333333,12.5416667 C57.26,12.5416667 56.3888889,13.4729167 56.3888889,14.625 L56.3888889,31.2916667 C56.3888889,32.44375 57.26,33.375 58.3333333,33.375 C59.4066667,33.375 60.2777778,32.44375 60.2777778,31.2916667 L60.2777778,27.9875 L65.5413889,22.3479167 C66.3016667,21.5333333 66.3016667,20.2166667 65.5413889,19.4020833 Z" id="Shape" fill="#88C057"></path>
                    <path d="M5.83333333,52.125 L5.83333333,83.375 C5.83333333,103.166667 0,114.625 0,114.625 C13.6111111,114.625 13.6111111,83.375 13.6111111,83.375 L13.6111111,76.1125 C13.6111111,65.6395833 20.1541667,56.4625 29.5827778,53.70625 L35,52.125 L5.83333333,52.125 Z" id="Shape" fill="#553323"></path>
                    <path d="M106.944444,52.125 L106.944444,83.375 C106.944444,103.166667 112.777778,114.625 112.777778,114.625 C99.1666667,114.625 99.1666667,83.375 99.1666667,83.375 L99.1666667,76.1125 C99.1666667,65.6395833 92.6236111,56.4625 83.195,53.70625 L77.7777778,52.125 L106.944444,52.125 Z" id="Shape" fill="#553323"></path>
                    <path d="M58.3333333,0.0416666667 L52.5,0.0416666667 L52.5,8.375 C52.5,11.8125 55.125,14.625 58.3333333,14.625 L58.3333333,0.0416666667 Z" id="Shape" fill="#F8E81C"></path>
                    <path d="M58.3333333,2.125 L64.1666667,2.125 L64.1666667,8.375 C64.1666667,11.8125 61.5416667,14.625 58.3333333,14.625 L58.3333333,2.125 Z" id="Shape" fill="#F6A623"></path>
                    <path d="M61.8333333,31.2916667 L61.8333333,31.2916667 L54.8333333,31.2916667 L54.8333333,31.2916667 C54.2830556,33.6458333 52.9569444,35.64375 51.2944444,37.2916667 C50.4447222,38.1354167 49.9819444,39.4208333 50.2366667,40.7979167 C50.5652778,42.5770833 52.1266667,43.7916667 53.8202778,43.7916667 L62.8463889,43.7916667 C64.54,43.7916667 66.0994444,42.5770833 66.43,40.7979167 C66.6847222,39.4208333 66.2238889,38.1354167 65.3722222,37.2916667 C63.7097222,35.64375 62.3836111,33.6458333 61.8333333,31.2916667 Z" id="Shape" fill="#C7CAC7"></path>
                </g>
            </g>
            <g id="table-4" transform="translate(665.493590, 7.333333)">
                <g id="Capa_1">
                    <g id="Group">
                        <polygon id="Shape" fill="#FFE1CD" points="38.5275711 49.2555434 38.5275711 104.397775 41.3676513 104.397775 45.1706783 49.2555434"></polygon>
                        <path d="M6.54099198,49.634012 C6.71305616,49.515512 6.88818381,49.411012 7.06969365,49.338512 C6.88818381,49.411512 6.71280088,49.516012 6.54099198,49.634012 Z" id="Shape" fill="#FFE1CD"></path>
                        <path d="M7.06969365,49.4180434 C7.33570387,49.3115434 7.61090445,49.2555434 7.89299781,49.2555434 C7.61090445,49.2555434 7.33570387,49.3115434 7.06969365,49.4180434 Z" id="Shape" fill="#FFE1CD"></path>
                        <path d="M3.94292487,52.5519694 C3.98792487,52.3835279 4.03492487,52.2160546 4.09142487,52.0519694 C4.03542487,52.2160546 3.98842487,52.3835279 3.94292487,52.5519694 Z" id="Shape" fill="#FFE1CD"></path>
                        <polygon id="Shape" fill="#FFE1CD" points="58.9564916 49.2555434 52.7083151 49.2555434 45.1706783 49.2555434 48.97345 104.397775 52.8237053 104.397775 55.1537199 104.397775"></polygon>
                        <polygon id="Shape" fill="#FFE1CD" points="72.7425602 49.2555434 76.5453319 104.397775 82.7256018 104.397775 86.5283735 49.2555434"></polygon>
                        <polygon id="Shape" fill="#FFE1CD" points="86.5283735 49.2555434 90.3314004 104.397775 96.511415 104.397775 100.314442 49.2555434"></polygon>
                        <polygon id="Shape" fill="#FFE1CD" points="64.9621444 49.2555434 58.9564916 49.2555434 62.7595186 104.397775 65.0775346 104.397775 68.9395332 104.397775 72.7425602 49.2555434"></polygon>
                        <path d="M114.092852,53.3401532 C114.092852,51.0844274 112.264223,49.2555434 110.008242,49.2555434 L100.314442,49.2555434 L104.117469,104.397775 L110.297739,104.397775 L114.093107,53.440992 L114.093107,53.3401532 L114.092852,53.3401532 Z" id="Shape" fill="#FFE1CD"></path>
                        <path d="M42.6121809,112.566995 C41.484318,112.566995 40.569876,113.481437 40.569876,114.6093 C40.569876,115.737163 41.484318,116.651605 42.6121809,116.651605 L75.2890591,116.651605 C76.416922,116.651605 77.331364,115.737163 77.331364,114.6093 C77.331364,113.481437 76.416922,112.566995 75.2890591,112.566995 L65.0775346,112.566995 L52.8237053,112.566995 L42.6121809,112.566995 Z" id="Shape" fill="#7D5050"></path>
                        <path d="M62.7600292,104.407476 C62.9119256,106.611123 61.1652443,108.482385 58.9564916,108.482385 C56.7477389,108.482385 55.0008023,106.611123 55.152954,104.407476 L55.1537199,104.397775 L52.8237053,104.397775 L52.8237053,112.566995 L65.0775346,112.566995 L65.0775346,104.397775 L62.7595186,104.397775 L62.7600292,104.407476 Z" id="Shape" fill="#6B3C41"></path>
                        <path d="M41.3676513,104.397775 L41.3668855,104.407476 C41.2149891,106.611123 42.9616703,108.482385 45.170423,108.482385 L45.170423,108.482385 C47.3794311,108.482385 49.125857,106.611123 48.9739606,104.407476 L48.9731947,104.397775 L45.1701678,49.2555434 L41.3676513,104.397775 Z" id="Shape" fill="#FFEBE1"></path>
                        <path d="M55.152954,104.407476 C55.0010576,106.611123 56.7477389,108.482385 58.9564916,108.482385 C61.1652443,108.482385 62.9119256,106.611123 62.7600292,104.407476 L62.7592633,104.397775 L58.9562363,49.2555434 L55.1532093,104.397775 L55.152954,104.407476 Z" id="Shape" fill="#FFEBE1"></path>
                        <path d="M82.7256018,104.397775 L82.7248359,104.407476 C82.5729395,106.611123 84.3196207,108.482385 86.5283735,108.482385 C88.7371262,108.482385 90.4840627,106.611123 90.331911,104.407476 L90.3311451,104.397775 L86.5281182,49.2555434 L82.7256018,104.397775 Z" id="Shape" fill="#FFEBE1"></path>
                        <path d="M68.9395332,104.397775 L68.9387673,104.407476 C68.7868709,106.611123 70.5335522,108.482385 72.7423049,108.482385 C74.9510576,108.482385 76.6979942,106.611123 76.5458425,104.407476 L76.5450766,104.397775 L72.7420496,49.2555434 L68.9395332,104.397775 Z" id="Shape" fill="#FFEBE1"></path>
                        <path d="M96.511415,104.397775 L96.5106492,104.407476 C96.3587527,106.611123 98.105434,108.482385 100.314187,108.482385 L100.314187,108.482385 C102.523195,108.482385 104.269621,106.611123 104.117724,104.407476 L104.116958,104.397775 L100.313931,49.2555434 L96.511415,104.397775 Z" id="Shape" fill="#FFEBE1"></path>
                        <path d="M117.903793,104.407476 L114.100255,53.3401532 L114.092852,53.440992 L110.297484,104.397775 L110.296718,104.407476 C110.144821,106.611123 111.891503,108.482385 114.100255,108.482385 L114.100255,108.482385 C116.309263,108.482385 118.055945,106.611123 117.903793,104.407476 Z" id="Shape" fill="#FFEBE1"></path>
                        <path d="M7.89299781,49.2555434 C7.61090445,49.2555434 7.33570387,49.2841357 7.06969365,49.338512 C6.88818381,49.3757841 6.71280088,49.428884 6.54099198,49.4893873 C5.35288111,49.9067834 4.41699489,50.8546681 4.01900073,52.0517141 C3.99015317,52.1382567 3.96615609,52.2265864 3.94318016,52.3154267 C3.85842451,52.6434719 3.80838804,52.985558 3.80838804,53.3398979 L3.80838804,53.4004012 L3.81298322,53.3398979 L7.61575492,104.39752 L13.7957695,104.39752 L17.5987965,49.2552881 L7.89299781,49.2552881 L7.89299781,49.2555434 Z" id="Shape" fill="#F0D4BE"></path>
                        <polygon id="Shape" fill="#F0D4BE" points="17.5987965 49.2555434 21.4015682 104.397775 27.5818381 104.397775 31.3846098 49.2555434"></polygon>
                        <polygon id="Shape" fill="#F0D4BE" points="31.3846098 49.2555434 35.1876368 104.397775 38.5275711 104.397775 38.5275711 49.2555434"></polygon>
                        <path d="M27.5818381,104.397775 L27.5810722,104.407476 C27.4291758,106.611123 29.175857,108.482385 31.3846098,108.482385 L31.3846098,108.482385 C33.5936178,108.482385 35.3400438,106.611123 35.1881473,104.407476 L35.1873815,104.397775 L31.3843545,49.2555434 L27.5818381,104.397775 Z" id="Shape" fill="#FFE1CD"></path>
                        <path d="M13.7957695,104.397775 L13.7950036,104.407476 C13.6431072,106.611123 15.3897885,108.482385 17.5985412,108.482385 L17.5985412,108.482385 C19.8075492,108.482385 21.5539752,106.611123 21.4020788,104.407476 L21.4013129,104.397775 L17.5982859,49.2555434 L13.7957695,104.397775 Z" id="Shape" fill="#FFE1CD"></path>
                        <path d="M3.80838804,53.4006565 L0.00919037199,104.407476 C-0.142706054,106.611123 1.6039752,108.482385 3.81272794,108.482385 C6.02148067,108.482385 7.76841721,106.611123 7.6162655,104.407476 L7.61549964,104.397775 L3.81272794,53.3401532 L3.80838804,53.4006565 Z" id="Shape" fill="#FFE1CD"></path>
                        <path d="M64.9621444,49.2555434 L63.9800511,40.2305981 C62.4570022,40.7838074 60.8137126,41.0863239 59.099453,41.0863239 C57.3004376,41.0863239 55.5803063,40.7508753 53.9944566,40.1440554 L52.7080598,49.2555434 L58.9564916,49.2555434 L64.9621444,49.2555434 Z" id="Shape" fill="#FFB996"></path>
                        <path d="M63.9800511,40.2308534 C68.2757841,38.6705325 71.6080598,35.1087527 72.8574398,30.6733771 C72.0586433,30.8423778 71.2151714,30.739752 70.4720277,30.3657549 C70.0125091,31.8438731 68.633698,32.9171043 67.0044493,32.9171043 C65.3713713,32.9171043 63.9905179,31.8387673 63.5340627,30.3552881 C62.1721007,31.0435449 60.4677972,30.8209336 59.3299781,29.6831145 C59.1374909,29.4906273 58.9735959,29.2810357 58.8334427,29.0607221 C58.6922684,29.2840992 58.5268417,29.4964989 58.3320569,29.6912837 C57.1957695,30.8275711 55.4945295,31.0506929 54.1333333,30.3657549 C53.6738147,31.8438731 52.2950036,32.9171043 50.6657549,32.9171043 C49.0326769,32.9171043 47.6518235,31.8387673 47.1953683,30.3552881 C46.6212254,30.6452954 45.9870897,30.7714077 45.3593363,30.7371991 C46.600547,35.0650985 49.8278993,38.550547 53.9942013,40.1443107 C55.5800511,40.7508753 57.2999271,41.0865791 59.0991977,41.0865791 C60.8137126,41.0863239 62.4570022,40.7838074 63.9800511,40.2308534 Z" id="Shape" fill="#FFD7B4"></path>
                        <path d="M47.8854121,19.692159 C48.0214807,19.5300511 48.1713348,19.3804522 48.3331875,19.2443837 C47.539752,17.7800511 47.0350474,15.8804522 47.0350474,14.7635667 C47.0350474,14.3852298 47.0932531,14.0206783 47.2004741,13.6778264 C45.8415755,13.0010576 44.1479942,13.2259664 43.0155361,14.3586798 C41.8802699,15.493946 41.6563822,17.193399 42.3392779,18.5538293 C42.6762582,18.4504376 43.0336616,18.3942743 43.4043399,18.3942743 C44.5212254,18.394019 46.4208242,18.8987236 47.8854121,19.692159 Z" id="Shape" fill="#E88470"></path>
                        <path d="M47.1956236,30.3552881 C47.0917214,30.0172867 47.0350474,29.6586069 47.0350474,29.2863968 C47.0350474,28.1695113 47.539752,26.2699125 48.3331875,24.8053246 C48.1710795,24.669256 48.0214807,24.5194019 47.8854121,24.3575492 C46.4210795,25.1509847 44.5212254,25.6556893 43.4043399,25.6556893 C43.0247265,25.6556893 42.6588986,25.596973 42.3150255,25.4889861 C41.6326404,26.8494165 41.8565281,28.5481036 42.991539,29.6833698 C43.6496718,30.3415026 44.4979942,30.6902261 45.3595915,30.7371991 C45.987345,30.7714077 46.6214807,30.6452954 47.1956236,30.3552881 Z" id="Shape" fill="#E88470"></path>
                        <path d="M52.9985777,24.8053246 C52.3675055,25.3353027 51.5544128,25.6556893 50.6657549,25.6556893 C49.777097,25.6556893 48.9640044,25.335558 48.3329322,24.8053246 C47.5394967,26.2696572 47.0347921,28.1695113 47.0347921,29.2863968 C47.0347921,29.6586069 47.0912108,30.0172867 47.1953683,30.3552881 C47.6518235,31.8387673 49.0326769,32.9171043 50.6657549,32.9171043 C52.2950036,32.9171043 53.6738147,31.8438731 54.1333333,30.3657549 C54.2392779,30.02469 54.2964624,29.6621809 54.2964624,29.2863968 C54.2967177,28.1695113 53.7920131,26.2699125 52.9985777,24.8053246 Z" id="Shape" fill="#D2504B"></path>
                        <path d="M48.3331875,19.2443837 C48.9642597,18.7144055 49.7773523,18.3942743 50.6660102,18.3942743 C50.7208972,18.3942743 50.7742524,18.4001459 50.8286287,18.4024435 C49.9912837,17.2906637 49.8756382,15.8099927 50.4842451,14.5966083 C50.8281182,14.7045952 51.193946,14.7633115 51.5735594,14.7633115 C52.6904449,14.7633115 54.5900438,14.2586069 56.0546317,13.4651714 C55.5246535,12.8340992 55.2045222,12.0210066 55.2045222,11.1326039 C55.2045222,10.2442013 55.5246535,9.43085339 56.0546317,8.79978118 C54.5902991,8.00634573 52.6904449,7.50164114 51.5735594,7.50164114 C51.2028811,7.50164114 50.8454778,7.55780452 50.5084974,7.66119621 C49.0232312,8.11637491 47.9428519,9.49799416 47.9428519,11.1326039 C47.9428519,11.5017505 47.99876,11.8578775 48.1013858,12.1935813 C47.6908826,12.6030635 47.3781546,13.1105762 47.2007294,13.6775711 C47.0935084,14.020423 47.0353027,14.3849745 47.0353027,14.7633115 C47.0350474,15.8801969 47.5400073,17.7797958 48.3331875,19.2443837 Z" id="Shape" fill="#D2504B"></path>
                        <path d="M47.8854121,24.3575492 C47.355434,23.726477 47.0353027,22.9133844 47.0353027,22.0247265 C47.0353027,21.1360686 47.355434,20.3229759 47.8854121,19.692159 C46.4210795,18.8987236 44.5212254,18.394019 43.4043399,18.394019 C43.0336616,18.394019 42.6762582,18.4501823 42.3392779,18.553574 C40.8540117,19.0087527 39.7736324,20.390372 39.7736324,22.0247265 C39.7736324,23.6504012 40.8422684,25.0258935 42.3150255,25.4887309 C42.6588986,25.5967177 43.0247265,25.655434 43.4043399,25.655434 C44.5212254,25.6556893 46.4208242,25.1509847 47.8854121,24.3575492 Z" id="Shape" fill="#D2504B"></path>
                        <path d="M50.6660102,25.6556893 C51.5546681,25.6556893 52.3677608,25.335558 52.998833,24.8053246 C53.1609409,24.669256 53.3105398,24.5194019 53.4466083,24.3575492 C53.9765864,23.726477 54.2967177,22.9133844 54.2967177,22.0247265 C54.2967177,21.2062728 54.0225383,20.4536834 53.5658279,19.8466083 C52.6914661,19.8075492 51.8285923,19.4585704 51.1610139,18.790992 C51.0382203,18.6684537 50.9302334,18.5369803 50.828884,18.4024435 C50.7745077,18.3998906 50.7211524,18.3942743 50.6662655,18.3942743 C49.7776076,18.3942743 48.964515,18.7144055 48.3334427,19.2443837 C48.1713348,19.3804522 48.021736,19.5303063 47.8856674,19.692159 C47.3556893,20.3232312 47.035558,21.1363239 47.035558,22.0247265 C47.035558,22.9131291 47.3556893,23.726477 47.8856674,24.3575492 C48.021736,24.5196572 48.1715901,24.669256 48.3334427,24.8053246 C48.9642597,25.3353027 49.7773523,25.6556893 50.6660102,25.6556893 Z" id="Shape" fill="#823C41"></path>
                        <path d="M69.3370168,19.2443837 C69.4991247,19.3804522 69.6487236,19.5303063 69.7847921,19.692159 C71.2491247,18.8987236 73.1489788,18.394019 74.2658643,18.394019 C74.640372,18.394019 75.0016047,18.4509482 75.3413931,18.5561269 C76.0209701,17.1964624 75.7965718,15.5003282 74.6628373,14.3663384 C73.5288476,13.2323487 71.8327133,13.0079504 70.4730489,13.6877826 C70.5782276,14.0275711 70.6351568,14.3888038 70.6351568,14.7633115 C70.6351568,15.8801969 70.1304522,17.7797958 69.3370168,19.2443837 Z" id="Shape" fill="#E88470"></path>
                        <path d="M69.7850474,24.3575492 C69.6489788,24.5196572 69.4991247,24.669256 69.3372721,24.8053246 C70.1307075,26.2696572 70.6354121,28.1695113 70.6354121,29.2863968 C70.6354121,29.6621809 70.5782276,30.02469 70.472283,30.3657549 C71.2154267,30.739752 72.0588986,30.8423778 72.8576951,30.6733771 C73.5219548,30.5329686 74.1550693,30.207221 74.6710066,29.6912837 C75.8072939,28.5549964 76.030671,26.8537564 75.3454778,25.4925602 C75.0044128,25.5985047 74.6419037,25.6556893 74.2661196,25.6556893 C73.1489788,25.6556893 71.24938,25.1509847 69.7850474,24.3575492 Z" id="Shape" fill="#E88470"></path>
                        <path d="M64.6716265,24.8053246 C64.5095186,24.669256 64.3599198,24.5194019 64.2238512,24.3575492 C62.7595186,25.1509847 60.8596645,25.6556893 59.742779,25.6556893 C59.3631656,25.6556893 58.9973377,25.596973 58.6534646,25.4889861 C58.6368709,25.5221736 58.6223195,25.5563822 58.6064916,25.5900802 C58.386178,25.6316922 58.1597374,25.6559446 57.9274252,25.6559446 C56.8105398,25.6559446 54.9109409,25.15124 53.446353,24.3578045 C53.3102845,24.5199125 53.1604303,24.6695113 52.9985777,24.8055799 C53.7920131,26.2699125 54.2967177,28.1697666 54.2967177,29.2866521 C54.2967177,29.6624362 54.2395332,30.0249453 54.1335886,30.3660102 C55.4945295,31.0509482 57.1960248,30.8278264 58.3323122,29.691539 C58.527097,29.4967542 58.6922684,29.2843545 58.833698,29.0609774 C58.9738512,29.2815463 59.1377462,29.4911379 59.3302334,29.6833698 C60.4680525,30.8211889 62.1723559,31.0438001 63.534318,30.3555434 C63.4304158,30.0175419 63.3737418,29.6588621 63.3737418,29.2866521 C63.3734865,28.1695113 63.8781911,26.2699125 64.6716265,24.8053246 Z" id="Shape" fill="#E88470"></path>
                        <path d="M69.3370168,24.8053246 C68.7059446,25.3353027 67.8928519,25.6556893 67.004194,25.6556893 C66.1155361,25.6556893 65.3024435,25.335558 64.6713713,24.8053246 C63.8779358,26.2696572 63.3732312,28.1695113 63.3732312,29.2863968 C63.3732312,29.6586069 63.4296499,30.0172867 63.5338074,30.3552881 C63.9902626,31.8387673 65.371116,32.9171043 67.004194,32.9171043 C68.6334427,32.9171043 70.0122538,31.8438731 70.4717724,30.3657549 C70.577717,30.02469 70.6349015,29.6621809 70.6349015,29.2863968 C70.6351568,28.1695113 70.1304522,26.2699125 69.3370168,24.8053246 Z" id="Shape" fill="#D2504B"></path>
                        <path d="M63.3734865,22.0247265 C63.3734865,21.2098468 63.6453683,20.4603209 64.0985047,19.854267 C63.4840263,19.8820934 62.8646973,19.7562363 62.3025529,19.4731218 C62.4084974,19.1323122 62.465682,18.7698031 62.465682,18.3937637 C62.465682,17.2768782 61.9609774,15.3772794 61.1675419,13.9129468 C60.5364697,14.4429249 59.7233771,14.7630562 58.8347192,14.7630562 C57.9460613,14.7630562 57.1329686,14.4429249 56.5018964,13.9129468 C55.708461,15.3772794 55.2037564,17.2768782 55.2037564,18.3937637 C55.2037564,18.7659737 55.2601751,19.1246535 55.3643326,19.462655 C54.8014223,19.747046 54.1810722,19.8736689 53.5653173,19.846353 C54.022283,20.4536834 54.2962071,21.2062728 54.2962071,22.0244712 C54.2962071,22.9131291 53.9760759,23.7262217 53.4460977,24.3572939 C54.9104303,25.1507294 56.8102845,25.655434 57.9271699,25.655434 C58.1594821,25.655434 58.386178,25.6314369 58.6062363,25.5895697 C58.6218089,25.5558716 58.6363603,25.5219183 58.6532093,25.4884756 C58.9970824,25.5964624 59.3629103,25.6551787 59.7425237,25.6551787 C60.8594092,25.6551787 62.759008,25.1504741 64.2235959,24.3570387 C63.6938731,23.726477 63.3734865,22.9133844 63.3734865,22.0247265 Z" id="Shape" fill="#D2504B"></path>
                        <path d="M69.7850474,19.692159 C70.3150255,20.3232312 70.6351568,21.1363239 70.6351568,22.0247265 C70.6351568,22.9131291 70.3150255,23.726477 69.7850474,24.3575492 C71.24938,25.1509847 73.1492341,25.6556893 74.2661196,25.6556893 C74.6419037,25.6556893 75.0044128,25.5985047 75.3454778,25.4925602 C76.8235959,25.0330416 77.8968271,23.6542305 77.8968271,22.0249818 C77.8968271,20.3942013 76.8215536,19.0148796 75.3416484,18.5563822 C75.00186,18.4512035 74.6406273,18.3942743 74.2661196,18.3942743 C73.1489788,18.394019 71.24938,18.8987236 69.7850474,19.692159 Z" id="Shape" fill="#D2504B"></path>
                        <path d="M66.5015317,18.7989059 C65.8344639,19.4659737 64.9723559,19.8149526 64.09876,19.8545222 C63.6453683,20.4603209 63.3737418,21.2101021 63.3737418,22.0249818 C63.3737418,22.9136397 63.6938731,23.7267323 64.2238512,24.3578045 C64.3599198,24.5199125 64.5097739,24.6695113 64.6716265,24.8055799 C65.3026988,25.335558 66.1157914,25.6559446 67.0044493,25.6559446 C67.8931072,25.6559446 68.7061999,25.3358133 69.3372721,24.8055799 C69.49938,24.6695113 69.6489788,24.5196572 69.7850474,24.3578045 C70.3150255,23.7267323 70.6351568,22.9136397 70.6351568,22.0249818 C70.6351568,21.1363239 70.3150255,20.3232312 69.7850474,19.6924143 C69.6489788,19.5303063 69.4991247,19.3807075 69.3372721,19.2446389 C68.7061999,18.7146608 67.8931072,18.3945295 67.0044493,18.3945295 C66.9487965,18.3945295 66.8946754,18.4004012 66.8395332,18.4026988 C66.7363968,18.5400438 66.6266229,18.6738147 66.5015317,18.7989059 Z" id="Shape" fill="#823C41"></path>
                        <path d="M56.0546317,8.79978118 C56.1907002,8.63767323 56.3405543,8.4880744 56.502407,8.35200584 C55.7089716,6.88767323 55.204267,4.98781911 55.204267,3.87093363 C55.204267,3.49285193 55.2624726,3.12804522 55.3696937,2.78519329 C54.010795,2.10842451 52.3172137,2.33333333 51.1847557,3.46604668 C50.0494894,4.60131291 49.8256018,6.30076586 50.5084974,7.66119621 C50.8454778,7.55780452 51.2028811,7.50164114 51.5735594,7.50164114 C52.6904449,7.50189643 54.5900438,8.00660102 56.0546317,8.79978118 Z" id="Shape" fill="#E88470"></path>
                        <path d="M61.1677972,8.35200584 C61.3299052,8.4880744 61.479504,8.63792852 61.6155726,8.79978118 C63.0799052,8.00634573 64.9797593,7.50164114 66.0966448,7.50164114 C66.4711524,7.50164114 66.8323851,7.55857039 67.1721736,7.66374909 C67.8517505,6.30408461 67.6273523,4.6079504 66.4936178,3.47396061 C65.3598833,2.33997082 63.6634938,2.11557257 62.3038293,2.79540481 C62.409008,3.13519329 62.4659373,3.49642597 62.4659373,3.87093363 C62.4659373,4.98781911 61.9612327,6.88767323 61.1677972,8.35200584 Z" id="Shape" fill="#E88470"></path>
                        <path d="M61.1677972,13.913202 C61.9612327,15.3775346 62.4659373,17.2771335 62.4659373,18.394019 C62.4659373,18.7698031 62.4087527,19.1323122 62.3028082,19.4733771 C62.8649526,19.7562363 63.4840263,19.8820934 64.09876,19.8545222 C64.9723559,19.8152079 65.8344639,19.4659737 66.5015317,18.7989059 C66.6266229,18.6738147 66.7366521,18.5400438 66.8395332,18.4024435 C67.6725383,17.2901532 67.7856309,15.8115244 67.1760029,14.6001823 C66.834938,14.7061269 66.4724289,14.7633115 66.0966448,14.7633115 C64.9797593,14.7633115 63.0801605,14.2586069 61.6155726,13.4651714 C61.4797593,13.6272794 61.3299052,13.7771335 61.1677972,13.913202 Z" id="Shape" fill="#E88470"></path>
                        <path d="M51.1607586,18.790992 C51.828337,19.4585704 52.6914661,19.8078045 53.5655726,19.8466083 C54.1813275,19.8739241 54.8019329,19.7475565 55.3645879,19.4629103 C55.2606856,19.1249088 55.2040117,18.766229 55.2040117,18.394019 C55.2040117,17.2771335 55.7087163,15.3775346 56.5021517,13.913202 C56.3400438,13.7771335 56.1904449,13.6272794 56.0543764,13.4654267 C54.5900438,14.2588621 52.6901896,14.7635667 51.5733042,14.7635667 C51.1936907,14.7635667 50.8278629,14.7048505 50.4839898,14.5968636 C49.8753829,15.810248 49.9910284,17.2906637 50.8283735,18.4026988 C50.9299781,18.5369803 51.0382203,18.6681984 51.1607586,18.790992 Z" id="Shape" fill="#E88470"></path>
                        <path d="M56.502407,8.35200584 C57.1334792,7.82202772 57.9465718,7.50164114 58.8352298,7.50164114 C59.7238877,7.50164114 60.5369803,7.82177243 61.1680525,8.35200584 C61.961488,6.88767323 62.4661926,4.98781911 62.4661926,3.87093363 C62.4661926,3.49642597 62.4092633,3.13519329 62.3040846,2.79540481 C61.8455872,1.31524435 60.4662655,0.240226112 58.835485,0.240226112 C57.2085339,0.240226112 55.8317651,1.31039387 55.3702042,2.78519329 C55.2629832,3.12804522 55.2047775,3.49259664 55.2047775,3.87093363 C55.204267,4.98781911 55.7089716,6.88767323 56.502407,8.35200584 Z" id="Shape" fill="#D2504B"></path>
                        <path d="M61.6158279,8.79978118 C62.145806,9.43085339 62.4659373,10.243946 62.4659373,11.1326039 C62.4659373,12.0212619 62.145806,12.8343545 61.6158279,13.4651714 C63.0801605,14.2586069 64.9800146,14.7633115 66.0969001,14.7633115 C66.4726842,14.7633115 66.8351933,14.7061269 67.1762582,14.6001823 C67.7858862,15.8115244 67.6727936,17.2898979 66.8397885,18.4024435 C66.8949307,18.3998906 66.9490518,18.3942743 67.0047046,18.3942743 C67.8933625,18.3942743 68.7064551,18.7144055 69.3375274,19.2443837 C70.1309628,17.7800511 70.6356674,15.8804522 70.6356674,14.7635667 C70.6356674,14.3890591 70.5787381,14.0278264 70.4735594,13.6880379 C70.2966448,13.1167031 69.9826404,12.6058716 69.5695842,12.1938366 C69.6719548,11.8581327 69.7281182,11.5020058 69.7281182,11.1328592 C69.7281182,9.50207877 68.6528446,8.12275711 67.1729395,7.66425966 C66.833151,7.55908096 66.4719183,7.50215171 66.0974106,7.50215171 C64.9797593,7.50189643 63.0801605,8.00660102 61.6158279,8.79978118 Z" id="Shape" fill="#D2504B"></path>
                        <path d="M56.502407,13.913202 C57.1334792,14.4431802 57.9465718,14.7633115 58.8352298,14.7633115 C59.7238877,14.7633115 60.5369803,14.4431802 61.1680525,13.913202 C61.3301605,13.7771335 61.4797593,13.6272794 61.6158279,13.4654267 C62.145806,12.8343545 62.4659373,12.0212619 62.4659373,11.1328592 C62.4659373,10.2444566 62.145806,9.43110868 61.6158279,8.80003647 C61.4797593,8.63792852 61.3299052,8.48832969 61.1680525,8.35226112 C60.5369803,7.82228301 59.7238877,7.50189643 58.8352298,7.50189643 C57.9465718,7.50189643 57.1334792,7.82202772 56.502407,8.35226112 C56.3402991,8.48832969 56.1907002,8.63818381 56.0546317,8.80003647 C55.5246535,9.43110868 55.2045222,10.2442013 55.2045222,11.1328592 C55.2045222,12.0215171 55.5246535,12.8346098 56.0546317,13.4654267 C56.1907002,13.6272794 56.3405543,13.7771335 56.502407,13.913202 Z" id="Shape" fill="#823C41"></path>
                    </g>
                </g>
            </g>
            <g id="table" transform="translate(853.458333, 13.333333)">
                <g id="Capa_1">
                    <polygon id="Shape" fill="#7D5C3E" points="7.77777778 114.66092 3.88888889 114.66092 1.94444444 56.3275862 11.6666667 56.3275862"></polygon>
                    <polygon id="Shape" fill="#7D5C3E" points="108.888889 114.66092 105 114.66092 101.111111 56.3275862 110.833333 56.3275862"></polygon>
                    <path d="M105,48.2816092 C105,48.4485632 89.7453143,56.191785 89.7453143,56.191785 L13.0090202,56.191785 L5.83333333,48.2816092 L105,48.2816092 Z" id="Shape" fill="#553323"></path>
                    <g id="Group" transform="translate(0.000000, 48.275862)" fill="#553323">
                        <polygon id="Shape" points="5.83333333 0.00574712644 18.0561111 8.05172414 0 8.05172414 0 0.00574712644"></polygon>
                        <path d="M105,0.00574712644 L112.777778,0.00574712644 L112.777778,8.05172414 L89.0380556,8.05172414 C98.0505556,3.55201149 105,0.0640804598 105,0.00574712644 Z" id="Shape"></path>
                    </g>
                    <rect id="Rectangle-path" fill="#C7CAC7" x="9.72222222" y="42.2471264" width="15.5555556" height="6.03448276"></rect>
                    <path d="M7.77777778,42.2471264 L27.2222222,42.2471264" id="Shape" stroke="#949493" stroke-width="2"></path>
                    <rect id="Rectangle-path" fill="#C7CAC7" x="89.4444444" y="42.2471264" width="15.5555556" height="6.03448276"></rect>
                    <path d="M87.5,42.2471264 L106.944444,42.2471264" id="Shape" stroke="#949493" stroke-width="2"></path>
                    <path d="M58.3333333,30.1781609 L58.3333333,14.0862069" id="Shape" stroke="#88C057" stroke-width="2"></path>
                    <path d="M58.3333333,26.1551724 L54.4444444,22.1321839" id="Shape" stroke="#88C057" stroke-width="2"></path>
                    <path d="M58.3333333,22.1321839 L62.2222222,18.1091954" id="Shape" stroke="#88C057" stroke-width="2"></path>
                    <path d="M52.5486111,30.1781609 C51.3138889,33.3824713 50.5555556,33.5816092 50.5555556,38.2241379 C50.5555556,48.2212644 54.0380556,48.2816092 58.3333333,48.2816092 C62.6286111,48.2816092 66.1111111,48.2212644 66.1111111,38.2241379 C66.1111111,33.5816092 65.3527778,33.3824713 64.1180556,30.1781609 L52.5486111,30.1781609 Z" id="Shape" fill="#694F87"></path>
                    <path d="M58.3333333,0.00574712644 L52.5,0.00574712644 L52.5,10.0632184 C52.5,13.3821839 55.125,16.0977011 58.3333333,16.0977011 L58.3333333,0.00574712644 Z" id="Shape" fill="#DD352E"></path>
                    <path d="M58.3333333,4.02873563 L64.1666667,4.02873563 L64.1666667,8.05172414 C64.1666667,11.3706897 61.5416667,14.0862069 58.3333333,14.0862069 L58.3333333,4.02873563 Z" id="Shape" fill="#B02721"></path>
                </g>
            </g>
            <g id="buildings" transform="translate(793.666667, 82.333333)">
                <g id="Capa_1">
                    <path d="M37.9091667,0.0191666667 C35.4241667,-0.2175 33.3333333,1.73083333 33.3333333,4.16666667 C33.3333333,1.86583333 31.4675,3.12342925e-14 29.1666667,3.12342925e-14 C26.8658333,3.12342925e-14 25,1.86583333 25,4.16666667 C25,1.86583333 23.1341667,3.12342925e-14 20.8333333,3.12342925e-14 C18.5325,3.12342925e-14 16.6666667,1.86583333 16.6666667,4.16666667 C16.6666667,1.86583333 14.8008333,3.12342925e-14 12.5,3.12342925e-14 C10.1991667,3.12342925e-14 8.33333333,1.86583333 8.33333333,4.16666667 C8.33333333,1.73083333 6.2425,-0.2175 3.7575,0.0191666667 C1.59083333,0.225833333 0,2.16916667 0,4.34583333 L0,13.86 C0,14.49 0.51,15 1.14,15 L40.5275,15 C41.1566667,15 41.6666667,14.49 41.6666667,13.86 L41.6666667,4.34583333 C41.6666667,2.16916667 40.0758333,0.225833333 37.9091667,0.0191666667 Z" id="Shape" fill="#DD352E"></path>
                    <path d="M40.5266667,15 L1.14,15 C0.51,15 0,14.49 0,13.86 L0,11.6666667 L41.6666667,11.6666667 L41.6666667,13.86 C41.6666667,14.49 41.1566667,15 40.5266667,15 Z" id="Shape" fill="#BFA380"></path>
                    <path d="M36.6666667,46.6666667 C36.2058333,46.6666667 35.8333333,46.2941667 35.8333333,45.8333333 L35.8333333,43.3333333 C35.8333333,42.8725 36.2058333,42.5 36.6666667,42.5 C37.1275,42.5 37.5,42.8725 37.5,43.3333333 L37.5,45.8333333 C37.5,46.2941667 37.1275,46.6666667 36.6666667,46.6666667 Z" id="Shape" fill="#C7CAC7"></path>
                    <path d="M37.5,46.6666667 L35.8333333,46.6666667 C35.3725,46.6666667 35,46.2941667 35,45.8333333 C35,45.3725 35.3725,45 35.8333333,45 L37.5,45 C37.9608333,45 38.3333333,45.3725 38.3333333,45.8333333 C38.3333333,46.2941667 37.9608333,46.6666667 37.5,46.6666667 Z" id="Shape" fill="#C7CAC7"></path>
                    <path d="M5,46.6666667 C4.54,46.6666667 4.16666667,46.2941667 4.16666667,45.8333333 L4.16666667,43.3333333 C4.16666667,42.8725 4.54,42.5 5,42.5 C5.46,42.5 5.83333333,42.8725 5.83333333,43.3333333 L5.83333333,45.8333333 C5.83333333,46.2941667 5.46,46.6666667 5,46.6666667 Z" id="Shape" fill="#C7CAC7"></path>
                    <path d="M5.83333333,46.6666667 L4.16666667,46.6666667 C3.70666667,46.6666667 3.33333333,46.2941667 3.33333333,45.8333333 C3.33333333,45.3725 3.70666667,45 4.16666667,45 L5.83333333,45 C6.29333333,45 6.66666667,45.3725 6.66666667,45.8333333 C6.66666667,46.2941667 6.29333333,46.6666667 5.83333333,46.6666667 Z" id="Shape" fill="#C7CAC7"></path>
                    <polygon id="Shape" fill="#A88F71" points="35 15 35 20.8333333 6.66666667 20.8333333 6.66666667 15 3.33333333 15 3.33333333 43.3333333 6.66666667 43.3333333 6.66666667 24.1666667 35 24.1666667 35 43.3333333 38.3333333 43.3333333 38.3333333 15"></polygon>
                </g>
            </g>
            <g id="chair-1" transform="translate(1374.533692, 89.166667) scale(-1, 1) translate(-1374.533692, -89.166667) translate(1333.533692, 55.666667)">
                <g id="Layer_1">
                    <path d="M27.1370016,49.8063796 L2.69569378,5.91403509 L11.7382775,0.86937799 C14.8787879,-0.88261563 18.8448166,0.245295056 20.5934609,3.38755981 L35.8041467,30.7199362 L72.9977671,22.8213716 C76.5122807,22.0751196 79.9665072,24.3188198 80.7135566,27.8330144 L81.514992,31.6038278 C82.262201,35.1189793 80.0180223,38.5744817 76.5025518,39.3210526 L27.1370016,49.8063796 Z" id="Shape" fill="#F1CE30"></path>
                    <path d="M81.1113238,29.7038278 L31.4872408,40.515949 L9.96188198,1.86044657 L2.69569378,5.91403509 L27.1370016,49.8062201 L76.5027113,39.3210526 C80.0181818,38.5744817 82.2623604,35.1189793 81.5151515,31.6039872 L81.1113238,29.7038278 Z" id="Shape" fill="#D9BA2C"></path>
                    <path d="M25.792504,52.7668262 L0.332057416,7.12950558 C-0.371929825,5.86746411 0.0803827751,4.27368421 1.34226475,3.56969697 L1.34226475,3.56969697 C2.60430622,2.86570973 4.19776715,3.31802233 4.90191388,4.57990431 L28.4814992,46.8457735 L71.8108453,37.6425837 C73.2244019,37.3424242 74.6137161,38.2449761 74.9138756,39.6585327 L74.9138756,39.6585327 C75.2140351,41.0720893 74.3114833,42.4614035 72.8979266,42.761563 L25.792504,52.7668262 Z" id="Shape" fill="#542C19"></path>
                    <g id="Group" transform="translate(21.371611, 12.121212)" fill="#69351D">
                        <path d="M5.01658692,50.8748006 L0.0956937799,49.0942584 L15.2376396,7.24322169 L48.9280702,0.0821371611 C50.3414673,-0.218181818 51.730941,0.683891547 52.03126,2.09728868 L52.03126,2.09728868 C52.3317384,3.51068581 51.4295056,4.90031898 50.0161085,5.20063796 L19.1695375,11.7572568 L5.01658692,50.8748006 Z" id="Shape"></path>
                        <rect id="Rectangle-path" transform="translate(44.679666, 26.591800) rotate(255.841466) translate(-44.679666, -26.591800) " x="22.2343369" y="23.9753544" width="44.8906588" height="5.23289221"></rect>
                    </g>
                    <path d="M44.3714514,66.622807 C31.4583732,66.622807 19.2148325,64.5264753 10.2330144,60.823445 C8.83923445,60.2488038 8.21323764,58.623764 8.86794258,57.2660287 L8.86794258,57.2660287 C9.46778309,56.0220096 10.9341308,55.4519936 12.2102073,55.9800638 C20.5553429,59.4334928 32.0969697,61.3899522 44.3714514,61.3899522 C56.645933,61.3899522 68.1874003,59.4336523 76.5326954,55.9800638 C77.8089314,55.4519936 79.2751196,56.0220096 79.8749601,57.2660287 L79.8749601,57.2660287 C80.5296651,58.6239234 79.9035088,60.2491228 78.5098884,60.823445 C69.5279107,64.5264753 57.2845295,66.622807 44.3714514,66.622807 Z" id="Shape" fill="#542C19"></path>
                </g>
            </g>
            <g id="furniture" transform="translate(582.000000, 42.333333)">
                <g id="Layer_1">
                    <rect id="Rectangle-path" fill="#F09B41" x="8.6936849" y="57.4711914" width="40.2298177" height="2.87353516"></rect>
                    <g id="Group" transform="translate(5.696615, 21.484375)" fill="#FFAA4B">
                        <rect id="Rectangle-path" x="0.123535156" y="0.0673828125" width="4.31038411" height="24.425293"></rect>
                        <rect id="Rectangle-path" x="41.7902018" y="0.0673828125" width="4.31038411" height="24.425293"></rect>
                    </g>
                    <path d="M51.7970378,22.988444 L5.82014974,22.988444 C4.23307292,22.988444 2.94661458,21.7019857 2.94661458,20.1149089 L2.94661458,8.62076823 C2.94645182,3.85953776 6.80615234,0 11.5672201,0 L46.0499674,0 C50.8110352,0 54.6707357,3.85953776 54.6707357,8.62076823 L54.6707357,20.1150716 C54.6707357,21.7019857 53.3842773,22.988444 51.7970378,22.988444 Z" id="Shape" fill="#FFE678"></path>
                    <g id="Group" transform="translate(1.627604, 48.828125)" fill="#FFAA4B">
                        <path d="M2.75569661,0.0224609375 L0.0118815104,32.949056 C-0.0579427083,33.7869466 0.603190104,34.5052083 1.4436849,34.5052083 L2.97542318,34.5052083 C3.67789714,34.5052083 4.27718099,33.9972331 4.39257813,33.3045247 L9.93961589,0.0222981771 L2.75569661,0.0222981771 L2.75569661,0.0224609375 Z" id="Shape"></path>
                        <path d="M51.6062826,0.0224609375 L54.3502604,32.949056 C54.4200846,33.7866211 53.7589518,34.5052083 52.918457,34.5052083 L51.3867187,34.5052083 C50.6842448,34.5052083 50.0849609,33.9972331 49.9695638,33.3045247 L44.422526,0.0222981771 L51.6062826,0.0222981771 L51.6062826,0.0224609375 Z" id="Shape"></path>
                    </g>
                    <path d="M56.1074219,50.2874349 L1.50976562,50.2874349 C0.716308594,50.2874349 0.0729166667,49.644043 0.0729166667,48.8505859 L0.0729166667,47.413737 C0.0729166667,45.8266602 1.359375,44.5402018 2.94645182,44.5402018 L54.6705729,44.5402018 C56.2576497,44.5402018 57.5441081,45.8266602 57.5441081,47.413737 L57.5441081,48.8505859 C57.5442708,49.644043 56.9008789,50.2874349 56.1074219,50.2874349 Z" id="Shape" fill="#FFC855"></path>
                    <path d="M54.6707357,44.5402018 L2.94645182,44.5402018 C1.35953776,44.5402018 0.0729166667,45.8266602 0.0729166667,47.413737 L57.5441081,47.413737 C57.5442708,45.8266602 56.2576497,44.5402018 54.6707357,44.5402018 Z" id="Shape" fill="#FFE678"></path>
                    <g id="Group" transform="translate(6.510417, 6.347656)" fill="#FFC855">
                        <ellipse id="Oval" cx="1.46484375" cy="11.6121419" rx="1.43684896" ry="1.43684896"></ellipse>
                        <ellipse id="Oval" cx="1.46484375" cy="1.5546875" rx="1.43684896" ry="1.43684896"></ellipse>
                        <ellipse id="Oval" cx="43.1315104" cy="11.6121419" rx="1.43684896" ry="1.43684896"></ellipse>
                        <ellipse id="Oval" cx="43.1315104" cy="1.5546875" rx="1.43684896" ry="1.43684896"></ellipse>
                    </g>
                </g>
            </g>
            <g id="Group-28" transform="translate(0.000000, 20.000000)">
                <mask id="mask-2" fill="white">
                    <use xlink:href="#path-1"></use>
                </mask>
                <g id="Rectangle-14"></g>
                <g id="bar" mask="url(#mask-2)">
                    <g transform="translate(-67.000000, 6.000000)" id="Layer_1">
                        <g>
                            <g id="Group" transform="translate(41.361257, 2.094241)" fill="#E4EAF5">
                                <polygon id="Shape" points="35.578534 0.180890052 43.3795812 10.1554974 51.1811518 0.180890052"></polygon>
                            </g>
                            <rect id="Rectangle-path" fill="#C7CFE2" x="103.39267" y="43.6578534" width="7.81989529" height="53.360733"></rect>
                            <g id="Group" transform="translate(103.141361, 43.455497)" fill="#171D26" opacity="0.2">
                                <rect id="Rectangle-path" x="0.251308901" y="42.732199" width="7.81989529" height="13.6541885"></rect>
                                <rect id="Rectangle-path" x="0.251308901" y="0.202356021" width="7.81989529" height="11.0397906"></rect>
                            </g>
                            <path d="M95.9693717,48.202356 L115.599476,48.202356 C119.89712,48.202356 123.777487,45.6541885 125.485079,41.7104712 L133.62356,22.9149215 C134.707853,20.4104712 133.556806,17.5018325 131.05288,16.4172775 C128.548168,15.3324607 125.639529,16.4842932 124.555236,18.9879581 L116.416754,37.7835079 C116.275654,38.1094241 115.954974,38.3198953 115.599738,38.3198953 L95.9696335,38.3198953 C93.2408377,38.3198953 91.028534,40.532199 91.028534,43.2609948 C91.0282723,45.9900524 93.2403141,48.202356 95.9693717,48.202356 Z" id="Shape" fill="#FF6465"></path>
                            <g id="Group" transform="translate(39.267016, 0.000000)" fill="#7DD2F0">
                                <path d="M55.1790576,1.34764398 C54.8240838,0.619633508 54.0853403,0.157853403 53.2753927,0.157853403 L37.6727749,0.157853403 C36.863089,0.157853403 36.1240838,0.619895288 35.7691099,1.34764398 C35.4143979,2.07565445 35.5057592,2.9421466 36.0049738,3.58010471 L43.3568063,12.9795812 L43.3568063,22.4981675 C43.3568063,23.6680628 44.304712,24.6157068 45.4743455,24.6157068 C46.6439791,24.6157068 47.5918848,23.667801 47.5918848,22.4981675 L47.5918848,12.9793194 L54.9434555,3.57984293 C55.4421466,2.94188482 55.5335079,2.07539267 55.1790576,1.34764398 Z M45.4740838,8.81256545 L42.0172775,4.39293194 L48.9306283,4.39293194 L45.4740838,8.81256545 Z" id="Shape"></path>
                            </g>
                            <rect id="Rectangle-path" fill="#C7CFE2" x="61.4162304" y="27.4963351" width="10.9149215" height="67.3481675"></rect>
                            <rect id="Rectangle-path" fill="#171D26" opacity="0.2" x="61.4162304" y="27.4963351" width="10.9149215" height="11.491623"></rect>
                            <path d="M94.2447644,22.4981675 L39.504712,22.4981675 C36.7447644,22.4981675 34.5070681,24.7356021 34.5070681,27.4958115 C34.5070681,30.2560209 36.7445026,32.4934555 39.504712,32.4934555 L94.2447644,32.4934555 C97.004712,32.4934555 99.2424084,30.2560209 99.2424084,27.4958115 C99.2421466,24.7356021 97.004712,22.4981675 94.2447644,22.4981675 Z" id="Shape" fill="#FF6465"></path>
                            <g id="Group" transform="translate(34.293194, 22.251309)" fill="#171D26" opacity="0.2">
                                <rect id="Rectangle-path" x="27.1230366" y="61.9599476" width="10.9149215" height="10.6340314"></rect>
                            </g>
                            <g id="Group" transform="translate(11.780105, 92.670157)" fill="#707487">
                                <path d="M89.8997382,0.0112565445 L101.145812,0.0112565445 C106.192147,0.0112565445 110.283508,2.12565445 110.283508,7.17251309 L80.7625654,7.17251309 C80.7623037,2.12565445 84.8531414,0.0112565445 89.8997382,0.0112565445 Z" id="Shape"></path>
                            </g>
                            <g id="Group" transform="translate(11.780105, 15.968586)" fill="#171D26" opacity="0.2">
                                <path d="M108.058115,25.7421466 L116.196597,6.94659686 C117.146859,4.75183246 116.379843,2.24659686 114.490314,0.930890052 C115.847906,-0.0115183246 117.644241,-0.256282723 119.272775,0.44895288 C121.776963,1.53324607 122.92801,4.4421466 121.843455,6.94659686 L113.704974,25.7421466 C111.997382,29.6856021 108.116754,32.2340314 103.819372,32.2340314 L98.1727749,32.2340314 C102.469895,32.2337696 106.350524,29.6856021 108.058115,25.7421466 Z" id="Shape"></path>
                                <path d="M92.6753927,76.7128272 L101.145812,76.7128272 C106.192147,76.7128272 110.283246,78.8272251 110.283246,83.8740838 L101.812827,83.8740838 C101.812565,78.8272251 97.7217277,76.7128272 92.6753927,76.7128272 Z" id="Shape"></path>
                            </g>
                            <path d="M75.3212042,90.7049738 L58.4280105,90.7049738 C53.3816754,90.7049738 49.2903141,94.7958115 49.2903141,99.8426702 L84.458377,99.8426702 C84.4586387,94.7958115 80.3675393,90.7049738 75.3212042,90.7049738 Z" id="Shape" fill="#707487"></path>
                        </g>
                    </g>
                </g>
            </g>
            <g id="Group-27" transform="translate(1416.000000, 20.000000)">
                <mask id="mask-4" fill="white">
                    <use xlink:href="#path-3"></use>
                </mask>
                <g id="Rectangle-14-Copy"></g>
                <g id="bar-copy" mask="url(#mask-4)">
                    <g transform="translate(1.000000, 6.000000)" id="Layer_1">
                        <g>
                            <rect id="Rectangle-path" fill="#C7CFE2" x="22.8193717" y="43.6578534" width="7.81989529" height="53.360733"></rect>
                            <g id="Group" transform="translate(22.774869, 43.455497)" fill="#171D26" opacity="0.2">
                                <rect id="Rectangle-path" x="0.0445026178" y="42.732199" width="7.81989529" height="13.6541885"></rect>
                                <rect id="Rectangle-path" x="0.0445026178" y="0.202356021" width="7.81989529" height="11.0397906"></rect>
                            </g>
                            <path d="M38.0625654,48.202356 L18.4319372,48.202356 C14.1342932,48.202356 10.2539267,45.6541885 8.54633508,41.7104712 L0.408115183,22.9149215 C-0.67617801,20.4104712 0.47486911,17.5018325 2.97879581,16.4172775 C5.48350785,15.3324607 8.3921466,16.4842932 9.47643979,18.9879581 L17.6149215,37.7835079 C17.7560209,38.1094241 18.0769634,38.3198953 18.4319372,38.3198953 L38.0620419,38.3198953 C40.7908377,38.3198953 43.0031414,40.532199 43.0031414,43.2609948 C43.0034031,45.9900524 40.7913613,48.202356 38.0625654,48.202356 Z" id="Shape" fill="#FF6465"></path>
                            <path d="M14.1934555,41.710733 L6.05497382,22.9151832 C5.10471204,20.7204188 5.87172775,18.2151832 7.76125654,16.8994764 C6.40366492,15.9570681 4.60732984,15.7123037 2.97879581,16.4175393 C0.47460733,17.5018325 -0.676439791,20.410733 0.408115183,22.9151832 L8.54659686,41.710733 C10.2541885,45.6541885 14.1348168,48.2026178 18.432199,48.2026178 L24.0790576,48.2026178 C19.7816754,48.202356 15.9010471,45.6541885 14.1934555,41.710733 Z" id="Shape" fill="#171D26" opacity="0.2"></path>
                            <g id="Group" transform="translate(41.361257, 2.094241)" fill="#E4EAF5">
                                <polygon id="Shape" points="15.7308901 0.180890052 7.92958115 10.1554974 0.128010471 0.180890052"></polygon>
                            </g>
                            <g id="Group" transform="translate(39.267016, 0.000000)" fill="#7DD2F0">
                                <path d="M17.8251309,0.157853403 L2.22225131,0.157853403 C1.41256545,0.157853403 0.673560209,0.619895288 0.318586387,1.34764398 C-0.0361256545,2.07565445 0.0552356021,2.9421466 0.554450262,3.57984293 L7.90602094,12.9793194 L7.90602094,22.4981675 C7.90602094,23.6680628 8.8539267,24.6157068 10.0235602,24.6157068 C11.1931937,24.6157068 12.1410995,23.667801 12.1410995,22.4981675 L12.1410995,12.9795812 L19.4929319,3.58010471 C19.9921466,2.94188482 20.0832461,2.07539267 19.7287958,1.34764398 C19.373822,0.619633508 18.6348168,0.157853403 17.8251309,0.157853403 Z M10.0235602,8.81256545 L6.56701571,4.39293194 L13.4803665,4.39293194 L10.0235602,8.81256545 Z" id="Shape"></path>
                            </g>
                            <rect id="Rectangle-path" fill="#C7CFE2" x="61.4162304" y="27.4963351" width="10.9149215" height="67.3481675"></rect>
                            <rect id="Rectangle-path" fill="#171D26" opacity="0.2" x="61.4162304" y="27.4963351" width="10.9149215" height="11.491623"></rect>
                            <path d="M94.2447644,22.4981675 L39.504712,22.4981675 C36.7447644,22.4981675 34.5070681,24.7356021 34.5070681,27.4958115 C34.5070681,30.2560209 36.7445026,32.4934555 39.504712,32.4934555 L94.2447644,32.4934555 C97.004712,32.4934555 99.2424084,30.2560209 99.2424084,27.4958115 C99.2421466,24.7356021 97.004712,22.4981675 94.2447644,22.4981675 Z" id="Shape" fill="#FF6465"></path>
                            <g id="Group" transform="translate(34.293194, 22.251309)" fill="#171D26" opacity="0.2">
                                <path d="M11.5078534,5.24450262 C11.5078534,2.48455497 13.7455497,0.246858639 16.5054974,0.246858639 L5.21151832,0.246858639 C2.45157068,0.246858639 0.213874346,2.48429319 0.213874346,5.24450262 C0.213874346,8.00471204 2.45157068,10.2421466 5.21151832,10.2421466 L16.5054974,10.2421466 C13.7455497,10.2418848 11.5078534,8.00445026 11.5078534,5.24450262 Z" id="Shape"></path>
                                <rect id="Rectangle-path" x="27.1230366" y="61.9599476" width="10.9149215" height="10.6340314"></rect>
                            </g>
                            <g id="Group" transform="translate(11.780105, 92.670157)" fill="#707487">
                                <path d="M20.5719895,0.0112565445 L9.32591623,0.0112565445 C4.27958115,0.0112565445 0.188219895,2.12565445 0.188219895,7.17251309 L29.7091623,7.17251309 C29.7091623,2.12565445 25.6183246,0.0112565445 20.5719895,0.0112565445 Z" id="Shape"></path>
                            </g>
                            <g id="Group" transform="translate(11.780105, 15.968586)" fill="#171D26" opacity="0.2">
                                <path d="M17.7960733,76.7128272 L9.32565445,76.7128272 C4.27931937,76.7128272 0.188219895,78.8272251 0.188219895,83.8740838 L8.65863874,83.8740838 C8.65890052,78.8272251 12.7497382,76.7128272 17.7960733,76.7128272 Z" id="Shape"></path>
                            </g>
                            <path d="M75.3212042,90.7049738 L58.4280105,90.7049738 C53.3816754,90.7049738 49.2903141,94.7958115 49.2903141,99.8426702 L84.458377,99.8426702 C84.4586387,94.7958115 80.3675393,90.7049738 75.3212042,90.7049738 Z" id="Shape" fill="#707487"></path>
                        </g>
                    </g>
                </g>
            </g>
        </g>
    </g>
</svg>