<?xml version="1.0" encoding="UTF-8"?>
<svg width="1391px" height="60px" viewBox="0 0 1391 60" version="1.1" xmlns="http://www.w3.org/2000/svg" xmlns:xlink="http://www.w3.org/1999/xlink">
    <!-- Generator: Sketch 41.2 (35397) - http://www.bohemiancoding.com/sketch -->
    <title>Group 13</title>
    <desc>Created with Sketch.</desc>
    <defs></defs>
    <g id="Page-1" stroke="none" stroke-width="1" fill="none" fill-rule="evenodd">
        <g id="Group-26">
            <g id="Group-13" transform="translate(104.000000, 0.000000)">
                <g id="window-1" transform="translate(1124.000000, 0.000000)">
                    <g id="Capa_1">
                        <rect id="Rectangle-path" fill="#28384C" x="5.17241379" y="36.2431034" width="49.6551724" height="16.5155172"></rect>
                        <rect id="Rectangle-path" fill="#FBF6F2" x="0" y="0" width="60" height="4.13793103"></rect>
                        <rect id="Rectangle-path" fill="#BCB7B3" x="1.03448276" y="4.13793103" width="57.9310345" height="3.10344828"></rect>
                        <rect id="Rectangle-path" fill="#EDE7E9" x="54.8275862" y="7.24137931" width="3.10344828" height="45.5172414"></rect>
                        <polygon id="Shape" fill="#DBD6D2" points="5.17241379 7.24137931 5.17241379 36.2068966 37.527931 36.2068966 45.2306897 36.2068966 54.8275862 36.2068966 54.8275862 7.24137931"></polygon>
                        <rect id="Rectangle-path" fill="#FBF6F2" x="0" y="52.7586207" width="60" height="4.13793103"></rect>
                        <rect id="Rectangle-path" fill="#BCB7B3" x="1.03448276" y="56.8965517" width="57.9310345" height="3.10344828"></rect>
                        <rect id="Rectangle-path" fill="#EDE7E9" x="2.06896552" y="7.24137931" width="3.10344828" height="45.5172414"></rect>
                        <rect id="Rectangle-path" fill="#7FABDA" x="8.27586207" y="10.3448276" width="43.4482759" height="22.7586207"></rect>
                        <path d="M41.3793103,42.4137931 L41.3793103,44.4827586" id="Shape" stroke="#23A24D" stroke-width="2"></path>
                        <path d="M45.5172414,38.2758621 C45.5172414,37.7048276 45.2855172,37.1875862 44.9110345,36.8131034 C44.9110345,36.2834483 44.7093103,35.7537931 44.3048276,35.3503448 C43.9003448,34.9458621 43.3717241,34.7441379 42.842069,34.7441379 C42.4675862,34.3696552 41.9503448,34.137931 41.3793103,34.137931 C40.8082759,34.137931 40.2910345,34.3696552 39.9165517,34.7441379 C39.3868966,34.7441379 38.8572414,34.9458621 38.4537931,35.3503448 C38.0503448,35.7548276 37.8475862,36.2834483 37.8475862,36.8131034 C37.4731034,37.1875862 37.2413793,37.7048276 37.2413793,38.2758621 C37.2413793,38.8468966 37.4731034,39.3641379 37.8475862,39.7386207 C37.8475862,40.2682759 38.0493103,40.797931 38.4537931,41.2013793 C38.8582759,41.6048276 39.3868966,41.8075862 39.9165517,41.8075862 C40.2910345,42.182069 40.8082759,42.4137931 41.3793103,42.4137931 C41.9503448,42.4137931 42.4675862,42.182069 42.842069,41.8075862 C43.3717241,41.8075862 43.9013793,41.6058621 44.3048276,41.2013793 C44.7082759,40.7968966 44.9110345,40.2682759 44.9110345,39.7386207 C45.2855172,39.3641379 45.5172414,38.8468966 45.5172414,38.2758621 Z" id="Shape" fill="#EBBA16"></path>
                        <ellipse id="Oval" fill="#DD352E" cx="41.3793103" cy="38.2758621" rx="1.03448276" ry="1.03448276"></ellipse>
                        <polygon id="Shape" fill="#F7B563" points="44.4827586 52.7586207 38.2758621 52.7586207 36.2068966 47.5862069 46.5517241 47.5862069"></polygon>
                        <polygon id="Shape" fill="#BC8850" points="47.5862069 47.5862069 35.1724138 47.5862069 34.137931 44.4827586 48.6206897 44.4827586"></polygon>
                        <polygon id="Shape" fill="#A4C9EA" points="24.8275862 10.3448276 8.27586207 30 8.27586207 33.1034483 11.3793103 33.1034483 30 10.3448276"></polygon>
                        <polygon id="Shape" fill="#D2E8F9" points="34.137931 10.3448276 15.5172414 33.1034483 17.5862069 33.1034483 20.6896552 33.1034483 39.3103448 10.3448276"></polygon>
                    </g>
                </g>
                <g id="window-2" transform="translate(841.562059, 0.000000)">
                    <g id="Capa_1">
                        <polygon id="Shape" fill="#6B4842" points="32.0689655 4.13793103 27.9310345 4.13793103 2.06896552 4.13793103 2.06896552 27.9310345 2.06896552 32.0689655 2.06896552 55.862069 27.9310345 55.862069 32.0689655 55.862069 57.9310345 55.862069 57.9310345 32.0689655 57.9310345 27.9310345 57.9310345 4.13793103"></polygon>
                        <rect id="Rectangle-path" fill="#7383BF" x="6.20689655" y="8.27586207" width="21.7241379" height="19.6551724"></rect>
                        <rect id="Rectangle-path" fill="#7383BF" x="6.20689655" y="32.0689655" width="21.7241379" height="19.6551724"></rect>
                        <rect id="Rectangle-path" fill="#7383BF" x="32.0689655" y="32.0689655" width="21.7241379" height="19.6551724"></rect>
                        <rect id="Rectangle-path" fill="#7383BF" x="32.0689655" y="8.27586207" width="21.7241379" height="19.6551724"></rect>
                        <rect id="Rectangle-path" fill="#847059" x="0" y="0" width="60" height="4.13793103"></rect>
                        <rect id="Rectangle-path" fill="#847059" x="0" y="55.862069" width="60" height="4.13793103"></rect>
                        <polygon id="Shape" fill="#93A3D8" points="15.5172414 32.0689655 6.20689655 41.3793103 6.20689655 47.5862069 21.7241379 32.0689655"></polygon>
                        <polygon id="Shape" fill="#93A3D8" points="41.3793103 32.0689655 32.0689655 41.3793103 32.0689655 47.5862069 47.5862069 32.0689655"></polygon>
                        <polygon id="Shape" fill="#93A3D8" points="15.5172414 8.27586207 6.20689655 17.5862069 6.20689655 23.7931034 21.7241379 8.27586207"></polygon>
                        <polygon id="Shape" fill="#93A3D8" points="41.3793103 8.27586207 32.0689655 17.5862069 32.0689655 23.7931034 47.5862069 8.27586207"></polygon>
                    </g>
                </g>
                <g id="window-3" transform="translate(565.439907, 0.000000)">
                    <g id="Capa_1">
                        <rect id="Rectangle-path" fill="#492510" x="0.526315789" y="55.7894737" width="52.6315789" height="4.21052632"></rect>
                        <path d="M51.0526316,55.7894737 L2.63157895,55.7894737 L2.63157895,24.2105263 C2.63157895,10.8389474 13.4705263,0 26.8421053,0 L26.8421053,0 C40.2136842,0 51.0526316,10.8389474 51.0526316,24.2105263 L51.0526316,55.7894737 Z" id="Shape" fill="#A45D31"></path>
                        <path d="M5.78947368,52.6315789 L5.78947368,24.2105263 C5.78947368,12.6021053 15.2336842,3.15789474 26.8421053,3.15789474 C38.4505263,3.15789474 47.8947368,12.6021053 47.8947368,24.2105263 L47.8947368,52.6315789 L5.78947368,52.6315789 Z" id="Shape" fill="#7FABDA"></path>
                        <path d="M42.3694737,11.6294737 C39.8231579,8.49263158 36.3473684,6.15052632 32.3663158,5.00315789 L6.84210526,50.9473684 L6.84210526,51.5789474 L20.1757895,51.5789474 L42.3694737,11.6294737 Z" id="Shape" fill="#A1C8EC"></path>
                        <path d="M48.8410526,22.1052632 C48.3221053,16.6389474 45.7968421,11.76 42.02,8.18210526 L41.8157895,7.99368421 C41.8021053,7.98105263 41.7873684,7.97052632 41.7736842,7.95789474 C41.2884211,7.51157895 40.7852632,7.08736842 40.2621053,6.68526316 C40.2242105,6.65578947 40.1852632,6.62842105 40.1473684,6.6 C39.6452632,6.22 39.1305263,5.86 38.5957895,5.52315789 C38.5231579,5.47684211 38.4484211,5.43368421 38.3747368,5.38842105 C37.8747368,5.08105263 37.3652632,4.78947368 36.84,4.52210526 C36.7210526,4.46105263 36.6,4.40736842 36.48,4.34842105 C35.9936842,4.11157895 35.5021053,3.88526316 34.9968421,3.68421053 C34.8221053,3.61473684 34.6442105,3.55578947 34.4684211,3.49052632 C34.0073684,3.32 33.5452632,3.15473684 33.0694737,3.01473684 C32.8242105,2.94210526 32.5747368,2.88736842 32.3263158,2.82315789 C31.9084211,2.71578947 31.4936842,2.60526316 31.0663158,2.52210526 C30.7084211,2.45157895 30.3452632,2.40842105 29.9831579,2.35684211 C29.6515789,2.30947368 29.3252632,2.24842105 28.9894737,2.21578947 C28.28,2.14421053 27.5631579,2.10526316 26.8421053,2.10526316 C26.1231579,2.10526316 25.4094737,2.14421053 24.7010526,2.21368421 C24.36,2.24631579 24.0294737,2.30842105 23.6936842,2.35578947 C23.34,2.40736842 22.9852632,2.44947368 22.6347368,2.51789474 C22.2021053,2.60210526 21.78,2.71368421 21.3568421,2.82210526 C21.1178947,2.88421053 20.8778947,2.93684211 20.6421053,3.00631579 C20.1610526,3.14736842 19.6915789,3.31368421 19.2252632,3.48631579 C19.0589474,3.54842105 18.8905263,3.60421053 18.7263158,3.66947368 C18.2157895,3.87157895 17.7189474,4.09789474 17.2284211,4.33684211 C17.1157895,4.39157895 17.0021053,4.44315789 16.8905263,4.5 C16.3631579,4.76736842 15.8505263,5.05789474 15.3484211,5.36526316 C15.2789474,5.40736842 15.2094737,5.44842105 15.1410526,5.49157895 C14.6084211,5.82631579 14.0936842,6.18210526 13.5926316,6.56 C13.5547368,6.58842105 13.5168421,6.61578947 13.4789474,6.64526316 C12.9589474,7.04105263 12.46,7.46 11.9768421,7.9 C11.9621053,7.91368421 11.9463158,7.92421053 11.9315789,7.93789474 L11.6263158,8.21894737 C7.87052632,11.7926316 5.36105263,16.6578947 4.84315789,22.1052632 L4.73684211,22.1052632 L4.73684211,24.2105263 L4.73684211,38.9473684 L4.73684211,53.6842105 L25.7894737,53.6842105 L48.9473684,53.6842105 L48.9473684,38.9473684 L48.9473684,36.8421053 L48.9473684,24.2105263 L48.9473684,22.1052632 L48.8410526,22.1052632 Z M46.8421053,51.5789474 L27.8947368,51.5789474 L27.8947368,38.9473684 L46.8421053,38.9473684 L46.8421053,51.5789474 Z M46.8421053,36.8421053 L28.3621053,36.8421053 L25.7894737,41.4736842 L25.7894737,51.5789474 L20.1757895,51.5789474 L6.84210526,51.5789474 L6.84210526,50.9473684 L6.84210526,38.9473684 L13.5084211,38.9473684 L14.6778947,36.8421053 L6.84210526,36.8421053 L6.84210526,24.2105263 L21.6957895,24.2105263 L22.8652632,22.1052632 L6.95473684,22.1052632 C7.43473684,17.5378947 9.46421053,13.4315789 12.4989474,10.3031579 L23.3778947,21.1821053 L24.4410526,19.2684211 L14.0505263,8.87684211 C15.3536842,7.78631579 16.7778947,6.88105263 18.2821053,6.16105263 C18.3694737,6.11894737 18.4547368,6.07578947 18.5431579,6.03473684 C18.9494737,5.84736842 19.3642105,5.67894737 19.7821053,5.52 C19.9526316,5.45578947 20.1231579,5.39157895 20.2968421,5.33157895 C20.6652632,5.20210526 21.0378947,5.08526316 21.4136842,4.97789474 C21.6589474,4.90842105 21.9073684,4.84631579 22.1568421,4.78631579 C22.4842105,4.70631579 22.8115789,4.62947368 23.1431579,4.56631579 C23.4831579,4.50210526 23.8294737,4.45473684 24.1747368,4.40842105 C24.4347368,4.37263158 24.6936842,4.32947368 24.9557895,4.30526316 C25.5778947,4.24736842 26.2052632,4.21052632 26.8421053,4.21052632 C27.4789474,4.21052632 28.1073684,4.24736842 28.7294737,4.30631579 C28.9884211,4.33052632 29.2431579,4.37368421 29.5010526,4.40842105 C29.8515789,4.45578947 30.2010526,4.50315789 30.5452632,4.56842105 C30.8715789,4.63052632 31.1947368,4.70631579 31.5168421,4.78526316 C31.7726316,4.84736842 32.0273684,4.91052632 32.2789474,4.98210526 C32.3073684,4.99052632 32.3357895,5.00105263 32.3642105,5.00947368 L32.3663158,5.00526316 C32.4915789,5.04105263 32.6105263,5.08842105 32.7347368,5.12736842 C32.9494737,5.19368421 33.1642105,5.25684211 33.3768421,5.33052632 C33.46,5.35894737 33.5410526,5.39052632 33.6231579,5.42105263 C34.0915789,5.59052632 34.5515789,5.77789474 35.0031579,5.98 C35.0452632,5.99894737 35.0884211,6.01368421 35.1305263,6.03263158 C35.1326316,6.03368421 35.1347368,6.03473684 35.1368421,6.03578947 C36.36,6.59473684 37.5105263,7.28 38.5863158,8.06315789 C38.6136842,8.08315789 38.6410526,8.10210526 38.6684211,8.12210526 C38.9957895,8.36315789 39.3147368,8.61263158 39.6263158,8.87263158 C39.6284211,8.87473684 39.6315789,8.87684211 39.6336842,8.87894737 L39.6336842,8.87894737 C40.1736842,9.32947368 40.6926316,9.80315789 41.1821053,10.3073684 L41.1842105,10.3052632 C41.1968421,10.3189474 41.2084211,10.3336842 41.2210526,10.3463158 C41.58,10.7178947 41.9242105,11.1021053 42.2536842,11.5 C42.2610526,11.5084211 42.2694737,11.5168421 42.2768421,11.5263158 C42.3063158,11.5621053 42.34,11.5947368 42.3684211,11.6315789 L42.3631579,11.6410526 C44.7389474,14.5652632 46.3136842,18.1621053 46.7273684,22.1073684 L36.5484211,22.1073684 L35.3789474,24.2126316 L46.8421053,24.2126316 L46.8421053,36.8421053 Z" id="Shape" fill="#553323"></path>
                        <path d="M35.0031579,5.97789474 C34.5515789,5.77578947 34.0915789,5.58842105 33.6231579,5.41894737 C33.72,5.45473684 33.8178947,5.48947368 33.9157895,5.52631579 C34.2821053,5.66631579 34.6442105,5.81789474 35.0031579,5.97789474 Z" id="Shape" fill="#A1C8EC"></path>
                        <path d="M38.5863158,8.06105263 C37.5105263,7.27789474 36.36,6.59263158 35.1368421,6.03368421 C35.2326316,6.07789474 35.3263158,6.12526316 35.4210526,6.17052632 C36.5252632,6.70105263 37.5852632,7.33263158 38.5863158,8.06105263 Z" id="Shape" fill="#A1C8EC"></path>
                        <path d="M41.2221053,10.3452632 C41.58,10.7168421 41.9252632,11.1010526 42.2547368,11.4989474 C41.9252632,11.1 41.5810526,10.7157895 41.2221053,10.3452632 Z" id="Shape" fill="#A1C8EC"></path>
                        <path d="M27.8947368,24.2105263 L35.38,24.2105263 L36.5494737,22.1052632 L29.3831579,22.1052632 L41.1821053,10.3063158 C40.6926316,9.80210526 40.1736842,9.32842105 39.6336842,8.87789474 L26.8421053,21.6694737 L24.4410526,19.2684211 L23.3778947,21.1821053 L24.3010526,22.1052632 L22.8652632,22.1052632 L21.6957895,24.2105263 L25.7894737,24.2105263 L25.7894737,36.8421053 L14.6778947,36.8421053 L13.5084211,38.9473684 L25.7894737,38.9473684 L25.7894737,41.4736842 L28.3621053,36.8421053 L27.8947368,36.8421053 L27.8947368,24.2105263 Z" id="Shape" fill="#684233"></path>
                        <path d="M32.3663158,5.00421053 L32.3642105,5.00842105 C32.4884211,5.04421053 32.6115789,5.08736842 32.7347368,5.12631579 C32.6105263,5.08736842 32.4915789,5.04 32.3663158,5.00421053 Z" id="Shape" fill="#A1C8EC"></path>
                        <path d="M38.6684211,8.12105263 C38.9936842,8.36105263 39.3136842,8.61052632 39.6263158,8.87157895 C39.3147368,8.61157895 38.9957895,8.36105263 38.6684211,8.12105263 Z" id="Shape" fill="#A1C8EC"></path>
                        <path d="M42.3694737,11.6294737 C42.34,11.5936842 42.3073684,11.56 42.2778947,11.5242105 C42.3084211,11.5610526 42.3347368,11.6010526 42.3642105,11.6389474 L42.3694737,11.6294737 Z" id="Shape" fill="#A1C8EC"></path>
                    </g>
                </g>
                <g id="window-4" transform="translate(280.562941, 0.000000)">
                    <g id="Layer_1">
                        <polygon id="Shape" fill="#F7B239" points="57.6120732 0.116219512 57.6120732 54.0087805 4.82536585 54.0087805 4.82536585 0.116219512"></polygon>
                        <g id="Group" transform="translate(9.634146, 5.000000)" fill="#779BAA">
                            <path d="M43.1632927,23.7557317 L43.1632927,39.1686585 C31.2314634,44.3482927 23.9484146,39.1686585 23.9484146,39.1686585 L23.9484146,23.7557317 L43.1632927,23.7557317 Z" id="Shape"></path>
                            <path d="M43.1632927,0.0470731707 L43.1632927,14.5656098 C31.2314634,19.5497561 23.9484146,14.5656098 23.9484146,14.5656098 L23.9484146,0.0470731707 L43.1632927,0.0470731707 Z" id="Shape"></path>
                            <path d="M19.2221951,23.7557317 L19.2221951,39.1686585 C7.29036585,44.3482927 0.00731707317,39.1686585 0.00731707317,39.1686585 L0.00731707317,23.7557317 L19.2221951,23.7557317 Z" id="Shape"></path>
                        </g>
                        <path d="M28.8563415,42.5887805 L28.8563415,47.9704878 L9.64158537,47.9704878 L9.64158537,42.5887805 C9.64158537,42.5887805 16.9246341,47.237561 28.8563415,42.5887805 Z" id="Shape" fill="#F2F2F2"></path>
                        <path d="M18.7186585,42.4469512 C18.2480488,42.4469512 17.8663415,42.0654878 17.8663415,41.5946341 L17.8663415,40.0162195 C17.8663415,39.5454878 18.2480488,39.1639024 18.7186585,39.1639024 C19.1892683,39.1639024 19.5709756,39.5453659 19.5709756,40.0162195 L19.5709756,41.5946341 C19.5709756,42.0653659 19.1892683,42.4469512 18.7186585,42.4469512 Z" id="Shape" fill="#4D4D4D"></path>
                        <path d="M28.8563415,5.04707317 L28.8563415,19.6635366 C16.9245122,24.6812195 9.64146341,19.6635366 9.64146341,19.6635366 L9.64146341,5.04707317 L28.8563415,5.04707317 Z" id="Shape" fill="#779BAA"></path>
                        <polygon id="Shape" fill="#CCCCCC" points="14.0346341 44.5753659 14.0346341 41.5940244 23.4018293 41.5940244 23.4018293 44.5676829 23.4018293 48.3579268 23.4018293 53.2902439 14.0346341 53.2902439 14.0346341 48.3579268"></polygon>
                        <polygon id="Shape" fill="#E6E6E6" points="16.6613415 44.5753659 16.6613415 41.5940244 20.775122 41.5940244 20.775122 44.5676829 20.775122 48.3579268 20.775122 53.2902439 16.6613415 53.2902439 16.6613415 48.3579268"></polygon>
                        <path d="M16.6317073,37.4137805 L16.6317073,37.4137805 C15.4790244,36.2610976 15.4790244,34.3920732 16.6317073,33.2395122 L18.7189024,31.1523171 L20.8060976,33.2395122 C21.9587805,34.3921951 21.9587805,36.2612195 20.8060976,37.4137805 L20.8060976,37.4137805 C19.6532927,38.5665854 17.7842683,38.5665854 16.6317073,37.4137805 Z" id="Shape" fill="#F95428"></path>
                        <polygon id="Shape" fill="#E09B2D" points="62.4390244 52.9029268 62.4390244 59.8837805 0 59.8837805 0 52.9029268 4.82536585 52.9029268 14.0346341 52.9029268 23.4018293 52.9029268 57.6120732 52.9029268"></polygon>
                        <g id="Group" transform="translate(9.634146, 18.536585)" fill="#F2F2F2">
                            <path d="M43.1632927,24.0521951 L43.1632927,29.4339024 L23.9485366,29.4339024 L23.9485366,24.0521951 C23.9485366,24.0521951 31.2315854,28.7009756 43.1632927,24.0521951 Z" id="Shape"></path>
                            <path d="M43.1632927,0.0523170732 L43.1632927,5.72536585 L23.9485366,5.72536585 L23.9485366,0.0523170732 C23.9485366,0.0523170732 31.2315854,4.70097561 43.1632927,0.0523170732 Z" id="Shape"></path>
                            <path d="M19.2221951,0.0523170732 L19.2221951,5.72536585 L0.00743902439,5.72536585 L0.00743902439,0.0523170732 C0.00743902439,0.0523170732 7.2904878,4.70097561 19.2221951,0.0523170732 Z" id="Shape"></path>
                        </g>
                        <g id="Group" transform="translate(11.707317, 7.682927)" fill="#FFFFFF">
                            <ellipse id="Oval" cx="35.0468293" cy="6.97146341" rx="1.16219512" ry="1.16219512"></ellipse>
                            <ellipse id="Oval" cx="30.2430488" cy="1.85792683" rx="1.16219512" ry="1.16219512"></ellipse>
                            <circle id="Oval" cx="12.0354878" cy="1.23804878" r="1.16219512"></circle>
                            <circle id="Oval" cx="8.93621951" cy="6.97146341" r="1.16219512"></circle>
                            <circle id="Oval" cx="3.82268293" cy="4.80207317" r="1.16219512"></circle>
                            <ellipse id="Oval" cx="1.22707317" cy="29.7768293" rx="1.16219512" ry="1.16219512"></ellipse>
                            <circle id="Oval" cx="13.52" cy="26.8836585" r="1.16219512"></circle>
                            <ellipse id="Oval" cx="27.6087805" cy="24.8909756" rx="1.16219512" ry="1.16219512"></ellipse>
                            <ellipse id="Oval" cx="34.8918293" cy="27.7359756" rx="1.16219512" ry="1.16219512"></ellipse>
                            <ellipse id="Oval" cx="29.3132927" cy="32.2297561" rx="1.16219512" ry="1.16219512"></ellipse>
                        </g>
                    </g>
                </g>
                <g id="window">
                    <g id="Layer_1">
                        <polygon id="Shape" fill="#6B4841" points="5.26945312 55.8621094 52.8556641 55.8621094 52.8556641 4.13789062 5.26945312 4.13789062"></polygon>
                        <polygon id="Shape" fill="#7FABDA" points="9.40734375 38.2758984 48.7176563 38.2758984 48.7176563 8.27589844 9.40734375 8.27589844"></polygon>
                        <path d="M3.20039062,57.9310547 L1.13144531,57.9310547 C0.510703125,57.9310547 0.0969140625,57.5172656 0.0969140625,56.8965234 C0.0969140625,56.2757812 0.510703125,55.8619922 1.13144531,55.8619922 L3.20039062,55.8619922 C3.82113281,55.8619922 4.23492187,56.2757812 4.23492187,56.8965234 C4.23492187,57.5172656 3.82113281,57.9310547 3.20039062,57.9310547" id="Shape" fill="#847059"></path>
                        <polygon id="Shape" fill="#28384B" points="9.40734375 55.8621094 48.7176563 55.8621094 48.7176563 38.2758984 9.40734375 38.2758984"></polygon>
                        <g id="Group" transform="translate(3.164062, 0.000000)" fill="#847059">
                            <path d="M51.7605469,55.8621094 L0.036328125,55.8621094 L0.036328125,57.9310547 C0.036328125,59.0689453 0.967382812,60 2.10527344,60 L49.6914844,60 C50.829375,60 51.7604297,59.0689453 51.7604297,57.9310547 L51.7604297,55.8621094 L51.7605469,55.8621094 Z" id="Shape"></path>
                            <path d="M49.6914844,0 L2.10539062,0 C0.967382812,0 0.036328125,0.931054688 0.036328125,2.06894531 C0.036328125,3.20683594 0.967382812,4.13789063 2.10539062,4.13789063 L49.6916016,4.13789063 C50.8294922,4.13789063 51.7605469,3.20683594 51.7605469,2.06894531 C51.7605469,0.931054688 50.8294922,0 49.6914844,0" id="Shape"></path>
                            <path d="M53.8294922,57.9310547 L51.7605469,57.9310547 C51.1398047,57.9310547 50.7260156,57.5172656 50.7260156,56.8965234 C50.7260156,56.2757812 51.1398047,55.8619922 51.7605469,55.8619922 L53.8294922,55.8619922 C54.4502344,55.8619922 54.8640234,56.2757812 54.8640234,56.8965234 C54.8640234,57.5172656 54.4501172,57.9310547 53.8294922,57.9310547" id="Shape"></path>
                        </g>
                        <g id="Group" transform="translate(12.421875, 11.367188)" fill="#A4C9EB">
                            <path d="M1.12335938,5.18449219 C0.813046875,5.18449219 0.60609375,5.08101563 0.399257813,4.87417969 C-0.01453125,4.46039063 -0.01453125,3.83964844 0.399257813,3.42585938 L3.50273438,0.322382813 C3.91652344,-0.09140625 4.53726563,-0.09140625 4.95105469,0.322382813 C5.36484375,0.736171875 5.36484375,1.35691406 4.95105469,1.77070313 L1.84757813,4.87417969 C1.640625,5.08113281 1.43367188,5.18449219 1.12335938,5.18449219" id="Shape"></path>
                            <path d="M9.39925781,7.25355469 C9.08894531,7.25355469 8.88199219,7.15007812 8.67515625,6.94324219 C8.26136719,6.52945312 8.26136719,5.90871094 8.67515625,5.49492187 L13.8475781,0.3225 C14.2613672,-0.0912890625 14.8821094,-0.0912890625 15.2958984,0.3225 C15.7096875,0.736289062 15.7096875,1.35703125 15.2958984,1.77082031 L10.1234766,6.94324219 C9.91652344,7.15007812 9.70957031,7.25355469 9.39925781,7.25355469" id="Shape"></path>
                            <path d="M1.12335938,15.5293359 C0.813046875,15.5293359 0.60609375,15.4258594 0.399257813,15.2190234 C-0.01453125,14.8052344 -0.01453125,14.1844922 0.399257813,13.7707031 L2.46820313,11.7017578 C2.88199219,11.2879688 3.50273438,11.2879688 3.91652344,11.7017578 C4.3303125,12.1155469 4.3303125,12.7362891 3.91652344,13.1500781 L1.84757813,15.2190234 C1.640625,15.4258594 1.43367188,15.5293359 1.12335938,15.5293359" id="Shape"></path>
                            <path d="M1.12335938,10.3569141 C0.813046875,10.3569141 0.60609375,10.2534375 0.399257813,10.0466016 C-0.01453125,9.6328125 -0.01453125,9.01207031 0.399257813,8.59828125 L2.46820313,6.52933594 C2.88199219,6.11554687 3.50273438,6.11554687 3.91652344,6.52933594 C4.3303125,6.943125 4.3303125,7.56386719 3.91652344,7.97765625 L1.84757813,10.0466016 C1.640625,10.2535547 1.43367188,10.3569141 1.12335938,10.3569141" id="Shape"></path>
                            <path d="M6.29578125,5.18449219 C5.98546875,5.18449219 5.77851562,5.08101563 5.57167969,4.87417969 C5.15789062,4.46039063 5.15789062,3.83964844 5.57167969,3.42585938 L8.67515625,0.322382813 C9.08894531,-0.09140625 9.7096875,-0.09140625 10.1234766,0.322382813 C10.5372656,0.736171875 10.5372656,1.35691406 10.1234766,1.77070313 L7.02,4.87417969 C6.81304687,5.08113281 6.60609375,5.18449219 6.29578125,5.18449219" id="Shape"></path>
                            <path d="M7.3303125,9.3225 C7.3303125,8.70175781 6.91652344,8.28796875 6.29578125,8.28796875 C5.67503906,8.28796875 5.26125,8.70175781 5.26125,9.3225 C5.26125,9.94324219 5.67503906,10.3570312 6.29578125,10.3570312 C6.91652344,10.3570312 7.3303125,9.943125 7.3303125,9.3225" id="Shape"></path>
                        </g>
                    </g>
                </g>
            </g>
        </g>
    </g>
</svg>